RobotoFlexCondensed-Thin.ufo
<glyph name="exclam" format="2">
  <advance width="473"/>
  <unicode hex="0021"/>
  <outline>
    <contour>
      <point x="186.0" y="56.21470588233667" type="curve" smooth="yes"/>
      <point x="186" y="99"/>
      <point x="204" y="134"/>
      <point x="237.16339869278335" y="134.42941176467335" type="curve" smooth="yes"/>
      <point x="270" y="134"/>
      <point x="287" y="99"/>
      <point x="286.94346405223337" y="56.21470588233667" type="curve" smooth="yes"/>
      <point x="287" y="13"/>
      <point x="270" y="-22"/>
      <point x="237.16339869278335" y="-22.0" type="curve" smooth="yes"/>
      <point x="205" y="-22"/>
      <point x="186" y="13"/>
    </contour>
    <contour>
      <point x="215.43267973855666" y="383.99738562089334" type="line"/>
      <point x="211.61666666666667" y="1456.0" type="line"/>
      <point x="261.64346405223336" y="1456.0" type="line"/>
      <point x="257.3934640522333" y="383.99738562089334" type="line"/>
    </contour>
  </outline>
</glyph>
<glyph name="ampersand" format="2">
  <advance width="1036"/>
  <unicode hex="0026"/>
  <outline>
    <contour>
      <point x="80.0" y="380.0" type="curve" smooth="yes"/>
      <point x="79" y="566"/>
      <point x="141" y="669"/>
      <point x="371.11239869278336" y="821.22203921567" type="curve" smooth="yes"/>
      <point x="491.7224313725083" y="909.54402614378" type="line" smooth="yes"/>
      <point x="590" y="978"/>
      <point x="647" y="1053"/>
      <point x="647.4261307189" y="1177.50797385622" type="curve" smooth="yes"/>
      <point x="647" y="1328"/>
      <point x="582" y="1429"/>
      <point x="464.00428758171836" y="1429.46793464055" type="curve" smooth="yes"/>
      <point x="342" y="1429"/>
      <point x="266" y="1321"/>
      <point x="265.71300653594506" y="1158.1013071895534" type="curve" smooth="yes"/>
      <point x="266" y="1052"/>
      <point x="291" y="974"/>
      <point x="415.86377124178665" y="805.3326143791066" type="curve" smooth="yes"/>
      <point x="1012.8601960784883" y="0.0" type="line"/>
      <point x="947.3012549019934" y="0.0" type="line"/>
      <point x="372.83998692811" y="777.2373071895533" type="line" smooth="yes"/>
      <point x="230" y="968"/>
      <point x="213" y="1037"/>
      <point x="213.15820915037835" y="1158.1013071895534" type="curve" smooth="yes"/>
      <point x="213" y="1364"/>
      <point x="314" y="1486"/>
      <point x="464.00428758171836" y="1486.0" type="curve" smooth="yes"/>
      <point x="608" y="1486"/>
      <point x="706" y="1375"/>
      <point x="706.4496470588316" y="1178.3226405228868" type="curve" smooth="yes"/>
      <point x="706" y="1043"/>
      <point x="630" y="941"/>
      <point x="532.4233333333333" y="865.6053725490033" type="curve" smooth="yes"/>
      <point x="398.88251633993167" y="769.99797385622" type="line" smooth="yes"/>
      <point x="191" y="630"/>
      <point x="132" y="536"/>
      <point x="131.8834640522333" y="380.9493464052233" type="curve" smooth="yes"/>
      <point x="132" y="171"/>
      <point x="251" y="37"/>
      <point x="435.07619607848835" y="36.53206535945" type="curve" smooth="yes"/>
      <point x="691" y="37"/>
      <point x="903" y="283"/>
      <point x="902.7545751634368" y="674.0" type="curve"/>
      <point x="955.9887058823366" y="674.0" type="line"/>
      <point x="956" y="280"/>
      <point x="731" y="-20"/>
      <point x="435.07619607848835" y="-20.0" type="curve" smooth="yes"/>
      <point x="211" y="-20"/>
      <point x="81" y="149"/>
    </contour>
  </outline>
</glyph>
<glyph name="zero" format="2">
  <advance width="1141"/>
  <unicode hex="0030"/>
  <outline>
    <contour>
      <point x="183.73986928109997" y="455.52745098034336" type="curve" smooth="yes"/>
      <point x="183.73986928109997" y="997.70588235299" type="line" smooth="yes"/>
      <point x="184" y="1313"/>
      <point x="323" y="1486"/>
      <point x="570.1287581698966" y="1486.0" type="curve" smooth="yes"/>
      <point x="818" y="1486"/>
      <point x="957" y="1313"/>
      <point x="957.4669934640549" y="997.70588235299" type="curve" smooth="yes"/>
      <point x="957.4669934640549" y="455.52745098034336" type="line" smooth="yes"/>
      <point x="957" y="140"/>
      <point x="818" y="-30"/>
      <point x="570.1287581698966" y="-30.0" type="curve" smooth="yes"/>
      <point x="323" y="-30"/>
      <point x="184" y="140"/>
    </contour>
    <contour>
      <point x="236.21666666666667" y="451.06078431367666" type="line" smooth="yes"/>
      <point x="236" y="192"/>
      <point x="356" y="27"/>
      <point x="570.1287581698966" y="27.37941176467335" type="curve" smooth="yes"/>
      <point x="785" y="27"/>
      <point x="906" y="192"/>
      <point x="905.9395424837118" y="451.06078431367666" type="curve" smooth="yes"/>
      <point x="905.9395424837118" y="998.0225490196567" type="line" smooth="yes"/>
      <point x="906" y="1255"/>
      <point x="786" y="1429"/>
      <point x="570.1287581698966" y="1428.6205882353267" type="curve" smooth="yes"/>
      <point x="354" y="1429"/>
      <point x="236" y="1255"/>
      <point x="236.21666666666667" y="998.0225490196567" type="curve" smooth="yes"/>
    </contour>
  </outline>
</glyph>
<glyph name="two" format="2">
  <advance width="1141"/>
  <unicode hex="0032"/>
  <outline>
    <contour>
      <point x="184.68921568632334" y="0.0" type="line"/>
      <point x="184.68921568632334" y="57.04607843134001" type="line"/>
      <point x="735.3104575162882" y="701.6434640522333" type="line" smooth="yes"/>
      <point x="837" y="827"/>
      <point x="922" y="963"/>
      <point x="921.9581699347084" y="1133.81797385622" type="curve" smooth="yes"/>
      <point x="922" y="1292"/>
      <point x="813" y="1430"/>
      <point x="604.3614379084534" y="1428.6205882353267" type="curve" smooth="yes"/>
      <point x="380" y="1427"/>
      <point x="239" y="1312"/>
      <point x="239.13333333333333" y="1050.2346405228866" type="curve" smooth="yes"/>
      <point x="239.13333333333333" y="1031.9346405228866" type="line"/>
      <point x="187.8898692811" y="1031.9346405228866" type="line"/>
      <point x="187.8898692811" y="1048.8513071895534" type="line" smooth="yes"/>
      <point x="188" y="1326"/>
      <point x="349" y="1486"/>
      <point x="604.3614379084534" y="1486.0" type="curve" smooth="yes"/>
      <point x="845" y="1486"/>
      <point x="975" y="1324"/>
      <point x="974.5849673202749" y="1132.7513071895532" type="curve" smooth="yes"/>
      <point x="975" y="957"/>
      <point x="934" y="854"/>
      <point x="772.9251633986249" y="661.2506535947766" type="curve" smooth="yes"/>
      <point x="239.102941176495" y="32.76928104577334" type="line"/>
      <point x="1025.8156862745016" y="32.76928104577334" type="line"/>
      <point x="1025.8156862745016" y="0.0" type="line"/>
    </contour>
  </outline>
</glyph>
<glyph name="three" format="2">
  <advance width="1141"/>
  <unicode hex="0033"/>
  <outline>
    <contour>
      <point x="156.50653594776665" y="379.13202614378" type="curve" smooth="yes"/>
      <point x="156.50653594776665" y="391.8986928104467" type="line"/>
      <point x="207.9" y="391.8986928104467" type="line"/>
      <point x="207.9" y="381.8986928104467" type="line" smooth="yes"/>
      <point x="208" y="156"/>
      <point x="369" y="26"/>
      <point x="577.24411764701" y="26.430065359450012" type="curve" smooth="yes"/>
      <point x="767" y="26"/>
      <point x="942" y="154"/>
      <point x="941.8215686274917" y="375.6153594771133" type="curve" smooth="yes"/>
      <point x="942" y="623"/>
      <point x="738" y="728"/>
      <point x="537.89405228756" y="728.3186274509967" type="curve" smooth="yes"/>
      <point x="412.42179084962163" y="728.3186274509967" type="line"/>
      <point x="412.42179084962163" y="788.73202614378" type="line"/>
      <point x="527.3473725490034" y="788.73202614378" type="line" smooth="yes"/>
      <point x="728" y="789"/>
      <point x="890" y="911"/>
      <point x="889.7588235293467" y="1099.8006535947768" type="curve" smooth="yes"/>
      <point x="890" y="1310"/>
      <point x="752" y="1431"/>
      <point x="577.2994509803433" y="1430.1786013072165" type="curve" smooth="yes"/>
      <point x="425" y="1429"/>
      <point x="246" y="1292"/>
      <point x="245.93006535945" y="1098.1013071895534" type="curve" smooth="yes"/>
      <point x="245.93006535945" y="1074.26797385622" type="line"/>
      <point x="196.35392156865998" y="1074.26797385622" type="line"/>
      <point x="196.35392156865998" y="1098.1013071895534" type="line" smooth="yes"/>
      <point x="196" y="1327"/>
      <point x="393" y="1486"/>
      <point x="577.2994509803433" y="1486.0" type="curve" smooth="yes"/>
      <point x="784" y="1486"/>
      <point x="942" y="1327"/>
      <point x="941.6189542483851" y="1099.0506535947768" type="curve" smooth="yes"/>
      <point x="942" y="953"/>
      <point x="859" y="833"/>
      <point x="685.9385620915467" y="761.85" type="curve"/>
      <point x="685.9385620915467" y="757.85" type="line"/>
      <point x="854" y="724"/>
      <point x="996" y="607"/>
      <point x="995.6816993463917" y="367.36601307189" type="curve" smooth="yes"/>
      <point x="996" y="146"/>
      <point x="808" y="-30"/>
      <point x="577.24411764701" y="-31.383333333333333" type="curve" smooth="yes"/>
      <point x="388" y="-33"/>
      <point x="157" y="118"/>
    </contour>
  </outline>
</glyph>
<glyph name="six" format="2">
  <advance width="1141"/>
  <unicode hex="0036"/>
  <outline>
    <contour>
      <point x="148.61176470584167" y="614.0" type="curve" smooth="yes"/>
      <point x="148.61176470584167" y="644.0" type="line" smooth="yes"/>
      <point x="149" y="1161"/>
      <point x="439" y="1486"/>
      <point x="804.8346405228867" y="1486.0" type="curve" smooth="yes"/>
      <point x="824.9166666666666" y="1486.0" type="line"/>
      <point x="824.9166666666666" y="1428.6205882353267" type="line"/>
      <point x="804.8346405228867" y="1428.6205882353267" type="line" smooth="yes"/>
      <point x="479" y="1429"/>
      <point x="199" y="1140"/>
      <point x="199.23856209154667" y="654.0" type="curve" smooth="yes"/>
      <point x="199.23856209154667" y="604.0" type="line" smooth="yes"/>
      <point x="199" y="181"/>
      <point x="378" y="26"/>
      <point x="613.9467320261167" y="26.430065359450012" type="curve" smooth="yes"/>
      <point x="851" y="26"/>
      <point x="970" y="186"/>
      <point x="969.6401960784883" y="464.0" type="curve" smooth="yes"/>
      <point x="970" y="718"/>
      <point x="848" y="861"/>
      <point x="620.8633986927833" y="861.03594771244" type="curve" smooth="yes"/>
      <point x="389" y="861"/>
      <point x="193" y="683"/>
      <point x="193.23856209154667" y="464.0" type="curve"/>
      <point x="164.14117647065333" y="464.0" type="line"/>
      <point x="164" y="729"/>
      <point x="369" y="917"/>
      <point x="623.12614379079" y="917.46601307189" type="curve" smooth="yes"/>
      <point x="880" y="917"/>
      <point x="1022" y="736"/>
      <point x="1022.2669934640548" y="464.0" type="curve" smooth="yes"/>
      <point x="1022" y="169"/>
      <point x="869" y="-30"/>
      <point x="614.89607843134" y="-30.0" type="curve" smooth="yes"/>
      <point x="335" y="-30"/>
      <point x="149" y="199"/>
    </contour>
  </outline>
</glyph>
<glyph name="eight" format="2">
  <advance width="1127"/>
  <unicode hex="0038"/>
  <outline>
    <contour>
      <point x="136.51367880490952" y="376.31666666666666" type="curve" smooth="yes"/>
      <point x="137" y="571"/>
      <point x="261" y="690"/>
      <point x="433.7111577964655" y="742.0757703081396" type="curve"/>
      <point x="433.7111577964655" y="746.0757703081396" type="line"/>
      <point x="277" y="789"/>
      <point x="182" y="932"/>
      <point x="181.8097572362495" y="1096.6833333333334" type="curve" smooth="yes"/>
      <point x="182" y="1332"/>
      <point x="341" y="1486"/>
      <point x="561.8216153127538" y="1486.0" type="curve" smooth="yes"/>
      <point x="782" y="1486"/>
      <point x="947" y="1326"/>
      <point x="946.8464519141289" y="1096.6833333333334" type="curve" smooth="yes"/>
      <point x="947" y="932"/>
      <point x="852" y="791"/>
      <point x="692.3314192344038" y="746.0757703081396" type="curve"/>
      <point x="692.3314192344038" y="742.0757703081396" type="line"/>
      <point x="874" y="701"/>
      <point x="993" y="575"/>
      <point x="993.0918767506921" y="376.31666666666666" type="curve" smooth="yes"/>
      <point x="993" y="117"/>
      <point x="807" y="-30"/>
      <point x="561.8216153127538" y="-30.0" type="curve" smooth="yes"/>
      <point x="316" y="-30"/>
      <point x="137" y="117"/>
    </contour>
    <contour>
      <point x="189.90714285714284" y="376.51601307189003" type="curve" smooth="yes"/>
      <point x="190" y="169"/>
      <point x="332" y="24"/>
      <point x="561.8216153127538" y="25.480718954226674" type="curve" smooth="yes"/>
      <point x="792" y="25"/>
      <point x="939" y="149"/>
      <point x="938.6317460317922" y="376.51601307189003" type="curve" smooth="yes"/>
      <point x="939" y="578"/>
      <point x="792" y="717"/>
      <point x="561.8216153127538" y="717.41797385622" type="curve" smooth="yes"/>
      <point x="332" y="716"/>
      <point x="190" y="580"/>
    </contour>
    <contour>
      <point x="233.96988795514955" y="1096.4839869281102" type="curve" smooth="yes"/>
      <point x="234" y="908"/>
      <point x="360" y="774"/>
      <point x="561.8216153127538" y="772.58202614378" type="curve" smooth="yes"/>
      <point x="764" y="773"/>
      <point x="895" y="908"/>
      <point x="894.6863211950905" y="1096.4839869281102" type="curve" smooth="yes"/>
      <point x="895" y="1292"/>
      <point x="764" y="1431"/>
      <point x="561.8216153127538" y="1430.5192810457734" type="curve" smooth="yes"/>
      <point x="360" y="1432"/>
      <point x="234" y="1292"/>
    </contour>
  </outline>
</glyph>
<glyph name="nine" format="2">
  <advance width="1141"/>
  <unicode hex="0039"/>
  <outline>
    <contour>
      <point x="118.93986928109999" y="988.1666666666666" type="curve" smooth="yes"/>
      <point x="119" y="1285"/>
      <point x="284" y="1486"/>
      <point x="538.7607843136767" y="1486.0" type="curve" smooth="yes"/>
      <point x="819" y="1486"/>
      <point x="993" y="1257"/>
      <point x="992.5950980391749" y="842.0" type="curve" smooth="yes"/>
      <point x="992.5950980391749" y="812.0" type="line" smooth="yes"/>
      <point x="993" y="295"/>
      <point x="687" y="-30"/>
      <point x="336.3722222222683" y="-30.0" type="curve" smooth="yes"/>
      <point x="315.340849673265" y="-30.0" type="line"/>
      <point x="315.340849673265" y="27.37941176467335" type="line"/>
      <point x="336.3722222222683" y="27.37941176467335" type="line" smooth="yes"/>
      <point x="663" y="27"/>
      <point x="941" y="316"/>
      <point x="941.0189542483851" y="802.0" type="curve" smooth="yes"/>
      <point x="941.0189542483851" y="852.0" type="line" smooth="yes"/>
      <point x="941" y="1275"/>
      <point x="776" y="1430"/>
      <point x="538.7607843136767" y="1429.5699346405502" type="curve" smooth="yes"/>
      <point x="302" y="1430"/>
      <point x="173" y="1269"/>
      <point x="172.63333333333333" y="988.1666666666666" type="curve" smooth="yes"/>
      <point x="173" y="732"/>
      <point x="292" y="587"/>
      <point x="519.39411764701" y="587.2973856208934" type="curve" smooth="yes"/>
      <point x="752" y="587"/>
      <point x="947" y="765"/>
      <point x="947.0189542483851" y="988.1666666666666" type="curve"/>
      <point x="978.1323529411683" y="988.1666666666666" type="line"/>
      <point x="978" y="721"/>
      <point x="771" y="531"/>
      <point x="517.1313725490033" y="530.8673202614433" type="curve" smooth="yes"/>
      <point x="262" y="531"/>
      <point x="119" y="715"/>
    </contour>
  </outline>
</glyph>
<glyph name="question" format="2">
  <advance width="705"/>
  <unicode hex="003F"/>
  <outline>
    <contour>
      <point x="247.87405228756" y="56.32537254900333" type="curve" smooth="yes"/>
      <point x="248" y="99"/>
      <point x="267" y="135"/>
      <point x="298.5327973855667" y="134.65074509800667" type="curve" smooth="yes"/>
      <point x="331" y="135"/>
      <point x="349" y="99"/>
      <point x="349.308862745155" y="56.32537254900333" type="curve" smooth="yes"/>
      <point x="349" y="14"/>
      <point x="332" y="-22"/>
      <point x="299.5994640522334" y="-22.0" type="curve" smooth="yes"/>
      <point x="266" y="-22"/>
      <point x="248" y="14"/>
    </contour>
    <contour>
      <point x="44.38337254900334" y="1092.1519607843302" type="line"/>
      <point x="44.38337254900334" y="1112.1519607843302" type="line" smooth="yes"/>
      <point x="44" y="1333"/>
      <point x="155" y="1476"/>
      <point x="339.808849673265" y="1476.0" type="curve" smooth="yes"/>
      <point x="521" y="1476"/>
      <point x="628" y="1334"/>
      <point x="628.1809673202749" y="1147.26797385622" type="curve" smooth="yes"/>
      <point x="628" y="961"/>
      <point x="587" y="882"/>
      <point x="471.7986535947767" y="749.9040261437799" type="curve" smooth="yes"/>
      <point x="355" y="613"/>
      <point x="325" y="529"/>
      <point x="324.63254248371163" y="421.8986928104467" type="curve" smooth="yes"/>
      <point x="324.63254248371163" y="411.8986928104467" type="line"/>
      <point x="270.8233986927833" y="411.8986928104467" type="line"/>
      <point x="270.8233986927833" y="421.8986928104467" type="line" smooth="yes"/>
      <point x="271" y="569"/>
      <point x="331" y="666"/>
      <point x="431.0217516339517" y="783.9226535947766" type="curve" smooth="yes"/>
      <point x="536" y="906"/>
      <point x="575" y="988"/>
      <point x="575.3211699347083" y="1147.26797385622" type="curve" smooth="yes"/>
      <point x="575" y="1305"/>
      <point x="498" y="1421"/>
      <point x="339.808849673265" y="1420.8906143791069" type="curve" smooth="yes"/>
      <point x="182" y="1421"/>
      <point x="98" y="1307"/>
      <point x="98.21618300659833" y="1112.1519607843302" type="curve" smooth="yes"/>
      <point x="98.21618300659833" y="1092.1519607843302" type="line"/>
    </contour>
  </outline>
</glyph>
<glyph name="B" format="2">
  <advance width="1032"/>
  <unicode hex="0042"/>
  <outline>
    <contour>
      <point x="170.0" y="0.0" type="line"/>
      <point x="170.0" y="1456.0" type="line"/>
      <point x="522.642915032715" y="1456.0" type="line" smooth="yes"/>
      <point x="754" y="1456"/>
      <point x="885" y="1355"/>
      <point x="885.2541372548451" y="1093.6426666666666" type="curve" smooth="yes"/>
      <point x="885" y="919"/>
      <point x="807" y="798"/>
      <point x="695.2837973855667" y="766.1186666666666" type="curve"/>
      <point x="695.2837973855667" y="762.1186666666666" type="line"/>
      <point x="839" y="729"/>
      <point x="931" y="597"/>
      <point x="931.1635490196567" y="391.52799999999996" type="curve" smooth="yes"/>
      <point x="931" y="131"/>
      <point x="789" y="0"/>
      <point x="558.210967320275" y="0.0" type="curve" smooth="yes"/>
    </contour>
    <contour>
      <point x="221.78879738556662" y="54.87205228756001" type="line"/>
      <point x="558.210967320275" y="54.87205228756001" type="line" smooth="yes"/>
      <point x="780" y="55"/>
      <point x="878" y="173"/>
      <point x="878.3984183006185" y="393.54401307189" type="curve" smooth="yes"/>
      <point x="878" y="600"/>
      <point x="780" y="730"/>
      <point x="558.210967320275" y="730.0899738562199" type="curve" smooth="yes"/>
      <point x="221.78879738556662" y="730.0899738562199" type="line"/>
    </contour>
    <contour>
      <point x="221.78879738556662" y="785.9100261437801" type="line"/>
      <point x="522.642915032715" y="785.9100261437801" type="line" smooth="yes"/>
      <point x="743" y="786"/>
      <point x="832" y="898"/>
      <point x="832.489006535945" y="1092.6933202614434" type="curve" smooth="yes"/>
      <point x="832" y="1304"/>
      <point x="743" y="1401"/>
      <point x="522.642915032715" y="1401.1279477124401" type="curve" smooth="yes"/>
      <point x="221.78879738556662" y="1401.1279477124401" type="line"/>
    </contour>
  </outline>
</glyph>
<glyph name="C" format="2">
  <advance width="1004"/>
  <unicode hex="0043"/>
  <outline>
    <contour>
      <point x="115.0" y="702.8801960784883" type="curve" smooth="yes"/>
      <point x="115.0" y="753.1198039215117" type="line" smooth="yes"/>
      <point x="115" y="1276"/>
      <point x="305" y="1486"/>
      <point x="603.1754575162884" y="1486.0" type="curve" smooth="yes"/>
      <point x="875" y="1486"/>
      <point x="962" y="1312"/>
      <point x="1032.6165247431709" y="998.1013071895534" type="curve" smooth="yes"/>
      <point x="1035.1634901960135" y="988.1013071895534" type="line"/>
      <point x="982.4456928104466" y="988.1013071895534" type="line"/>
      <point x="979.8987273576045" y="998.1013071895534" type="line" smooth="yes"/>
      <point x="932" y="1175"/>
      <point x="869" y="1430"/>
      <point x="603.1754575162884" y="1429.8226013072167" type="curve" smooth="yes"/>
      <point x="314" y="1430"/>
      <point x="167" y="1163"/>
      <point x="166.60379738556665" y="796.853137254845" type="curve" smooth="yes"/>
      <point x="166.60379738556665" y="660.2135294118217" type="line" smooth="yes"/>
      <point x="167" y="220"/>
      <point x="338" y="26"/>
      <point x="602.1087908496216" y="26.177398692783328" type="curve" smooth="yes"/>
      <point x="884" y="26"/>
      <point x="975" y="281"/>
      <point x="982.5123594771133" y="457.8986928104467" type="curve" smooth="yes"/>
      <point x="982.4456928104466" y="467.8986928104467" type="line"/>
      <point x="1035.1634901960135" y="467.8986928104467" type="line"/>
      <point x="1035.2301568626801" y="457.8986928104467" type="line" smooth="yes"/>
      <point x="1034" y="141"/>
      <point x="875" y="-30"/>
      <point x="603.1754575162884" y="-30.0" type="curve" smooth="yes"/>
      <point x="302" y="-30"/>
      <point x="115" y="175"/>
    </contour>
  </outline>
</glyph>
<glyph name="D" format="2">
  <advance width="1137"/>
  <unicode hex="0044"/>
  <outline>
    <contour>
      <point x="170.0" y="0.0" type="line"/>
      <point x="170.0" y="1456.0" type="line"/>
      <point x="472.862836601375" y="1456.0" type="line" smooth="yes"/>
      <point x="801" y="1456"/>
      <point x="1022" y="1237"/>
      <point x="1021.7743594771134" y="753.1198039215117" type="curve" smooth="yes"/>
      <point x="1021.7743594771134" y="702.8801960784883" type="line" smooth="yes"/>
      <point x="1022" y="219"/>
      <point x="801" y="0"/>
      <point x="472.862836601375" y="0.0" type="curve" smooth="yes"/>
    </contour>
    <contour>
      <point x="221.6941307189" y="55.82139869278335" type="line"/>
      <point x="472.862836601375" y="55.82139869278335" type="line" smooth="yes"/>
      <point x="778" y="56"/>
      <point x="969" y="249"/>
      <point x="969.10389542488" y="702.8801960784883" type="curve" smooth="yes"/>
      <point x="969.10389542488" y="753.1198039215117" type="line" smooth="yes"/>
      <point x="969" y="1207"/>
      <point x="778" y="1400"/>
      <point x="472.862836601375" y="1400.1786013072165" type="curve" smooth="yes"/>
      <point x="221.6941307189" y="1400.1786013072165" type="line"/>
    </contour>
  </outline>
</glyph>
<glyph name="M" format="2">
  <advance width="1561"/>
  <unicode hex="004D"/>
  <outline>
    <contour>
      <point x="170.0" y="0.0" type="line"/>
      <point x="170.0" y="1456.0" type="line"/>
      <point x="236.44084967326498" y="1456.0" type="line"/>
      <point x="731.2264705881782" y="170.7875350139812" type="line" smooth="yes"/>
      <point x="748" y="123"/>
      <point x="767" y="89"/>
      <point x="776.4692810457733" y="47.02707749769286" type="curve"/>
      <point x="782.33594771244" y="47.02707749769286" type="line"/>
      <point x="793" y="89"/>
      <point x="808" y="125"/>
      <point x="825.5986928104467" y="171.85420168064786" type="curve" smooth="yes"/>
      <point x="1329.081045751615" y="1456.0" type="line"/>
      <point x="1390.3052287582134" y="1456.0" type="line"/>
      <point x="1390.3052287582134" y="0.0" type="line"/>
      <point x="1337.5284313725083" y="0.0" type="line"/>
      <point x="1337.5284313725083" y="1205.4117647058415" type="line" smooth="yes"/>
      <point x="1338" y="1254"/>
      <point x="1348" y="1318"/>
      <point x="1347.7849206348747" y="1364.9450980391748" type="curve"/>
      <point x="1338.9277777777318" y="1364.9450980391748" type="line"/>
      <point x="1329" y="1318"/>
      <point x="1306" y="1254"/>
      <point x="1289.0977124182816" y="1205.4117647058415" type="curve" smooth="yes"/>
      <point x="809.0653594771134" y="0.0" type="line"/>
      <point x="746.643137254845" y="0.0" type="line"/>
      <point x="264.04346405223333" y="1204.0284313725083" type="line" smooth="yes"/>
      <point x="247" y="1253"/>
      <point x="224" y="1316"/>
      <point x="216.46405228756" y="1363.5617647058416" type="curve"/>
      <point x="207.60690943041715" y="1363.5617647058416" type="line"/>
      <point x="207" y="1316"/>
      <point x="218" y="1253"/>
      <point x="217.74607843134" y="1204.0284313725083" type="curve" smooth="yes"/>
      <point x="217.74607843134" y="0.0" type="line"/>
    </contour>
  </outline>
</glyph>
<glyph name="N" format="2">
  <advance width="1213"/>
  <unicode hex="004E"/>
  <outline>
    <contour>
      <point x="170.0" y="0.0" type="line"/>
      <point x="170.0" y="1456.0" type="line"/>
      <point x="259.89215686268" y="1456.0" type="line"/>
      <point x="934.9565359477666" y="150.21143790845338" type="line" smooth="yes"/>
      <point x="949" y="115"/>
      <point x="978" y="49"/>
      <point x="994.959103641473" y="5.660784313676686" type="curve"/>
      <point x="1003.3876750700445" y="5.660784313676686" type="line"/>
      <point x="996" y="53"/>
      <point x="995" y="95"/>
      <point x="995.2379084967702" y="137.6447712417867" type="curve" smooth="yes"/>
      <point x="995.2379084967702" y="1456.0" type="line"/>
      <point x="1043.5633464052232" y="1456.0" type="line"/>
      <point x="1043.5633464052232" y="0.0" type="line"/>
      <point x="952.4918300652918" y="0.0" type="line"/>
      <point x="269.84281045745666" y="1317.2065359477667" type="line" smooth="yes"/>
      <point x="251" y="1359"/>
      <point x="211" y="1416"/>
      <point x="211.30518207281287" y="1452.67385620921" type="curve"/>
      <point x="200.26297852473238" y="1452.67385620921" type="line"/>
      <point x="212" y="1403"/>
      <point x="215" y="1343"/>
      <point x="215.0127450980067" y="1297.2065359477667" type="curve" smooth="yes"/>
      <point x="215.0127450980067" y="0.0" type="line"/>
    </contour>
  </outline>
</glyph>
<glyph name="O" format="2">
  <advance width="1210"/>
  <unicode hex="004F"/>
  <outline>
    <contour>
      <point x="115.0" y="702.8801960784883" type="curve" smooth="yes"/>
      <point x="115.0" y="753.1198039215117" type="line" smooth="yes"/>
      <point x="115" y="1264"/>
      <point x="309" y="1486"/>
      <point x="605.1888039215117" y="1486.0" type="curve" smooth="yes"/>
      <point x="900" y="1486"/>
      <point x="1094" y="1264"/>
      <point x="1094.310941176495" y="753.1198039215117" type="curve" smooth="yes"/>
      <point x="1094.310941176495" y="702.8801960784883" type="line" smooth="yes"/>
      <point x="1094" y="192"/>
      <point x="900" y="-30"/>
      <point x="605.1888039215117" y="-30.0" type="curve" smooth="yes"/>
      <point x="310" y="-30"/>
      <point x="115" y="192"/>
    </contour>
    <contour>
      <point x="166.60379738556665" y="670.8801960784883" type="line" smooth="yes"/>
      <point x="167" y="220"/>
      <point x="335" y="26"/>
      <point x="605.1888039215117" y="26.177398692783328" type="curve" smooth="yes"/>
      <point x="875" y="26"/>
      <point x="1042" y="220"/>
      <point x="1041.6404771241232" y="670.8801960784883" type="curve" smooth="yes"/>
      <point x="1041.6404771241232" y="786.1864705881783" type="line" smooth="yes"/>
      <point x="1042" y="1237"/>
      <point x="875" y="1430"/>
      <point x="605.1888039215117" y="1429.8226013072167" type="curve" smooth="yes"/>
      <point x="335" y="1430"/>
      <point x="167" y="1237"/>
      <point x="166.60379738556665" y="786.1864705881783" type="curve" smooth="yes"/>
    </contour>
  </outline>
</glyph>
<glyph name="Q" format="2">
  <advance width="1210"/>
  <unicode hex="0051"/>
  <outline>
    <contour>
      <point x="115.0" y="702.8801960784883" type="curve" smooth="yes"/>
      <point x="115.0" y="753.1198039215117" type="line" smooth="yes"/>
      <point x="115" y="1264"/>
      <point x="309" y="1486"/>
      <point x="605.1888039215117" y="1486.0" type="curve" smooth="yes"/>
      <point x="900" y="1486"/>
      <point x="1094" y="1264"/>
      <point x="1094.310941176495" y="753.1198039215117" type="curve" smooth="yes"/>
      <point x="1094.310941176495" y="702.8801960784883" type="line" smooth="yes"/>
      <point x="1094" y="192"/>
      <point x="900" y="-30"/>
      <point x="605.1888039215117" y="-30.0" type="curve" smooth="yes"/>
      <point x="310" y="-30"/>
      <point x="115" y="192"/>
    </contour>
    <contour>
      <point x="166.60379738556665" y="660.2135294118217" type="line" smooth="yes"/>
      <point x="167" y="209"/>
      <point x="335" y="26"/>
      <point x="605.1888039215117" y="26.177398692783328" type="curve" smooth="yes"/>
      <point x="875" y="26"/>
      <point x="1042" y="209"/>
      <point x="1041.6404771241232" y="660.2135294118217" type="curve" smooth="yes"/>
      <point x="1041.6404771241232" y="795.7864705881783" type="line" smooth="yes"/>
      <point x="1042" y="1247"/>
      <point x="875" y="1430"/>
      <point x="605.1888039215117" y="1429.8226013072167" type="curve" smooth="yes"/>
      <point x="335" y="1430"/>
      <point x="167" y="1247"/>
      <point x="166.60379738556665" y="795.7864705881783" type="curve" smooth="yes"/>
    </contour>
    <contour>
      <point x="1105.5073202614435" y="-212.13869281044668" type="line"/>
      <point x="506.61805228756" y="280.78" type="line"/>
      <point x="550.175888888935" y="322.54073202611664" type="line"/>
      <point x="1149.2721699347082" y="-169.13194771244" type="line"/>
    </contour>
  </outline>
</glyph>
<glyph name="R" format="2">
  <advance width="995"/>
  <unicode hex="0052"/>
  <outline>
    <contour>
      <point x="170.0" y="0.0" type="line"/>
      <point x="170.0" y="1456.0" type="line"/>
      <point x="511.37756862749166" y="1456.0" type="line" smooth="yes"/>
      <point x="770" y="1456"/>
      <point x="892" y="1333"/>
      <point x="891.6748300652916" y="1049.7352941176634" type="curve" smooth="yes"/>
      <point x="892" y="766"/>
      <point x="770" y="644"/>
      <point x="511.37756862749166" y="644.0639346405501" type="curve" smooth="yes"/>
      <point x="221.6941307189" y="644.0639346405501" type="line"/>
      <point x="221.6941307189" y="0.0" type="line"/>
    </contour>
    <contour>
      <point x="221.6941307189" y="700.8333333333334" type="line"/>
      <point x="511.37756862749166" y="700.8333333333334" type="line" smooth="yes"/>
      <point x="756" y="701"/>
      <point x="839" y="830"/>
      <point x="838.957032679725" y="1049.7352941176634" type="curve" smooth="yes"/>
      <point x="839" y="1271"/>
      <point x="756" y="1400"/>
      <point x="511.37756862749166" y="1400.2972679738834" type="curve" smooth="yes"/>
      <point x="221.6941307189" y="1400.2972679738834" type="line"/>
    </contour>
    <contour>
      <point x="882.7676470588317" y="0.0" type="line"/>
      <point x="514.6964052287283" y="672.0" type="line"/>
      <point x="578.6833071895533" y="672.0" type="line"/>
      <point x="953.5545751634368" y="0.0" type="line"/>
    </contour>
  </outline>
</glyph>
<glyph name="Y" format="2">
  <advance width="1017"/>
  <unicode hex="0059"/>
  <outline>
    <contour>
      <point x="482.27767320261165" y="0.0" type="line"/>
      <point x="482.27767320261165" y="595.9626274509967" type="line"/>
      <point x="15.0" y="1456.0" type="line"/>
      <point x="77.55294117649501" y="1456.0" type="line"/>
      <point x="433.56960784316175" y="782.51797385622" type="line" smooth="yes"/>
      <point x="455" y="742"/>
      <point x="479" y="670"/>
      <point x="504.49640522872824" y="618.940756302464" type="curve"/>
      <point x="516.3457516339516" y="618.940756302464" type="line"/>
      <point x="541" y="670"/>
      <point x="562" y="742"/>
      <point x="583.1225490196566" y="782.51797385622" type="curve" smooth="yes"/>
      <point x="943.41790849677" y="1456.0" type="line"/>
      <point x="1001.2494771241234" y="1456.0" type="line"/>
      <point x="533.0224575162883" y="595.9626274509967" type="line"/>
      <point x="533.0224575162883" y="0.0" type="line"/>
    </contour>
  </outline>
</glyph>
<glyph name="a" format="2">
  <advance width="941"/>
  <unicode hex="0061"/>
  <outline>
    <contour>
      <point x="90.0" y="286.62857142857143" type="curve" smooth="yes"/>
      <point x="90" y="506"/>
      <point x="225" y="614"/>
      <point x="455.4411764706533" y="613.5891690009229" type="curve" smooth="yes"/>
      <point x="740.4415032680417" y="613.5891690009229" type="line"/>
      <point x="740.4415032680417" y="744.8571428571429" type="line" smooth="yes"/>
      <point x="740" y="930"/>
      <point x="672" y="1052"/>
      <point x="477.42189542488" y="1052.0097572362495" type="curve" smooth="yes"/>
      <point x="285" y="1052"/>
      <point x="209" y="941"/>
      <point x="208.886928104605" y="785.3363678804909" type="curve" smooth="yes"/>
      <point x="208.886928104605" y="780.3363678804909" type="line"/>
      <point x="162.20947712412334" y="780.3363678804909" type="line"/>
      <point x="162.20947712412334" y="785.3363678804909" type="line" smooth="yes"/>
      <point x="162" y="990"/>
      <point x="274" y="1107"/>
      <point x="483.68790849677" y="1106.857142857143" type="curve" smooth="yes"/>
      <point x="680" y="1107"/>
      <point x="792" y="1000"/>
      <point x="791.8349673202752" y="744.8571428571429" type="curve" smooth="yes"/>
      <point x="791.8349673202752" y="240.0" type="line" smooth="yes"/>
      <point x="792" y="153"/>
      <point x="807" y="75"/>
      <point x="834.0310457516149" y="16.0" type="curve"/>
      <point x="834.0310457516149" y="0.0" type="line"/>
      <point x="789.4696078431617" y="0.0" type="line"/>
      <point x="767" y="37"/>
      <point x="750" y="103"/>
      <point x="742.6241830065984" y="163.0857142857143" type="curve"/>
      <point x="692" y="79"/>
      <point x="562" y="-20"/>
      <point x="383.83758169938164" y="-20.0" type="curve" smooth="yes"/>
      <point x="203" y="-20"/>
      <point x="90" y="53"/>
    </contour>
    <contour>
      <point x="140.44411764701002" y="276.2785714285714" type="curve" smooth="yes"/>
      <point x="140" y="94"/>
      <point x="226" y="35"/>
      <point x="397.13104575161503" y="34.847385620893334" type="curve" smooth="yes"/>
      <point x="571" y="35"/>
      <point x="740" y="146"/>
      <point x="740.4415032680417" y="316.5337535013843" type="curve"/>
      <point x="740.4415032680417" y="559.5251167133629" type="line"/>
      <point x="477.42189542488" y="559.5251167133629" type="line" smooth="yes"/>
      <point x="258" y="560"/>
      <point x="140" y="478"/>
    </contour>
  </outline>
</glyph>
<glyph name="c" format="2">
  <advance width="784"/>
  <unicode hex="0063"/>
  <outline>
    <contour>
      <point x="85.0" y="522.4285714285714" type="curve" smooth="yes"/>
      <point x="85.0" y="554.4285714285714" type="line" smooth="yes"/>
      <point x="85" y="909"/>
      <point x="237" y="1107"/>
      <point x="486.36993464055" y="1106.857142857143" type="curve" smooth="yes"/>
      <point x="719" y="1107"/>
      <point x="830" y="945"/>
      <point x="829.5303921568383" y="733.6727357609819" type="curve" smooth="yes"/>
      <point x="829.5303921568383" y="728.6727357609819" type="line"/>
      <point x="782.3196078431617" y="728.6727357609819" type="line"/>
      <point x="782.3196078431617" y="733.6727357609819" type="line" smooth="yes"/>
      <point x="782" y="914"/>
      <point x="704" y="1049"/>
      <point x="485.30326797388335" y="1048.760410831026" type="curve" smooth="yes"/>
      <point x="250" y="1049"/>
      <point x="135" y="879"/>
      <point x="135.29411764701" y="586.4285714285714" type="curve" smooth="yes"/>
      <point x="135.29411764701" y="490.42857142857144" type="line" smooth="yes"/>
      <point x="135" y="196"/>
      <point x="253" y="27"/>
      <point x="475.7032679738833" y="27.030065359450006" type="curve" smooth="yes"/>
      <point x="698" y="27"/>
      <point x="782" y="163"/>
      <point x="782.3196078431617" y="343.18440709616095" type="curve" smooth="yes"/>
      <point x="782.3196078431617" y="348.18440709616095" type="line"/>
      <point x="829.5303921568383" y="348.18440709616095" type="line"/>
      <point x="829.5303921568383" y="343.18440709616095" type="line" smooth="yes"/>
      <point x="830" y="132"/>
      <point x="722" y="-30"/>
      <point x="477.83660130721665" y="-30.0" type="curve" smooth="yes"/>
      <point x="240" y="-30"/>
      <point x="85" y="167"/>
    </contour>
  </outline>
</glyph>
<glyph name="e" format="2">
  <advance width="894"/>
  <unicode hex="0065"/>
  <outline>
    <contour>
      <point x="85.0" y="522.4285714285714" type="curve" smooth="yes"/>
      <point x="85.0" y="554.4285714285714" type="line" smooth="yes"/>
      <point x="85" y="909"/>
      <point x="240" y="1107"/>
      <point x="475.53790849677" y="1106.857142857143" type="curve" smooth="yes"/>
      <point x="706" y="1107"/>
      <point x="833" y="952"/>
      <point x="832.8797385620616" y="572.4285714285714" type="curve" smooth="yes"/>
      <point x="832.8797385620616" y="542.747198879568" type="line"/>
      <point x="89.36732026144334" y="542.747198879568" type="line"/>
      <point x="89.36732026144334" y="597.1605975723514" type="line"/>
      <point x="779.726097105528" y="597.1605975723514" type="line"/>
      <point x="779.726097105528" y="572.8204481792635" type="line" smooth="yes"/>
      <point x="780" y="909"/>
      <point x="712" y="1049"/>
      <point x="454.6288515405592" y="1048.8777310924695" type="curve" smooth="yes"/>
      <point x="255" y="1049"/>
      <point x="130" y="911"/>
      <point x="130.19542483656335" y="586.4285714285714" type="curve" smooth="yes"/>
      <point x="130.19542483656335" y="490.42857142857144" type="line" smooth="yes"/>
      <point x="130" y="179"/>
      <point x="237" y="28"/>
      <point x="496.7346405228867" y="27.979411764673344" type="curve" smooth="yes"/>
      <point x="637" y="28"/>
      <point x="713" y="79"/>
      <point x="781.4689542483851" y="166.69411764701002" type="curve"/>
      <point x="836.3323529411682" y="135.55" type="line"/>
      <point x="769" y="26"/>
      <point x="661" y="-30"/>
      <point x="507.40130718955334" y="-30.0" type="curve" smooth="yes"/>
      <point x="234" y="-30"/>
      <point x="85" y="167"/>
    </contour>
  </outline>
</glyph>
<glyph name="g" format="2">
  <advance width="1002"/>
  <unicode hex="0067"/>
  <outline>
    <contour>
      <point x="127.16413071890001" y="-333.1666666666667" type="curve"/>
      <point x="138.64202614378" y="-282.99928104577333" type="line"/>
      <point x="204" y="-341"/>
      <point x="328" y="-381"/>
      <point x="458.2785490196566" y="-380.8906143791067" type="curve" smooth="yes"/>
      <point x="671" y="-381"/>
      <point x="802" y="-233"/>
      <point x="801.6876601307217" y="23.79738562089333" type="curve" smooth="yes"/>
      <point x="801.6876601307217" y="128.88019607848835" type="line"/>
      <point x="726" y="41"/>
      <point x="618" y="-20"/>
      <point x="440.30579084962164" y="-20.0" type="curve" smooth="yes"/>
      <point x="208" y="-20"/>
      <point x="85" y="193"/>
      <point x="85.0" y="522.4285714285714" type="curve" smooth="yes"/>
      <point x="85.0" y="554.4285714285714" type="line" smooth="yes"/>
      <point x="85" y="870"/>
      <point x="217" y="1097"/>
      <point x="454.1724575162883" y="1096.857142857143" type="curve" smooth="yes"/>
      <point x="613" y="1097"/>
      <point x="741" y="1024"/>
      <point x="805.908993464055" y="934.9769467786546" type="curve"/>
      <point x="802.6756339869416" y="934.9769467786546" type="line"/>
      <point x="803.9823267973883" y="1076.857142857143" type="line"/>
      <point x="853.5237908496216" y="1076.857142857143" type="line"/>
      <point x="853.5237908496216" y="23.79738562089333" type="line" smooth="yes"/>
      <point x="854" y="-274"/>
      <point x="696" y="-436"/>
      <point x="463.4998823529901" y="-436.0" type="curve" smooth="yes"/>
      <point x="323" y="-436"/>
      <point x="209" y="-396"/>
    </contour>
    <contour>
      <point x="135.79211764701" y="486.16190476190474" type="line" smooth="yes"/>
      <point x="136" y="197"/>
      <point x="240" y="37"/>
      <point x="470.83857516343664" y="37.48141176467334" type="curve" smooth="yes"/>
      <point x="645" y="37"/>
      <point x="762" y="121"/>
      <point x="801.6876601307217" y="217.96026143793836" type="curve"/>
      <point x="801.6876601307217" y="858.8968814192045" type="line"/>
      <point x="757" y="940"/>
      <point x="646" y="1039"/>
      <point x="485.77190849677" y="1039.3757310924696" type="curve" smooth="yes"/>
      <point x="240" y="1039"/>
      <point x="136" y="871"/>
      <point x="135.79211764701" y="582.1619047619048" type="curve" smooth="yes"/>
    </contour>
  </outline>
</glyph>
<glyph name="h" format="2">
  <advance width="964"/>
  <unicode hex="0068"/>
  <outline>
    <contour>
      <point x="148.0" y="0.0" type="line"/>
      <point x="148.0" y="1536.0" type="line"/>
      <point x="198.88678431367666" y="1536.0" type="line"/>
      <point x="198.88678431367666" y="893.5580578898578" type="line"/>
      <point x="274" y="1028"/>
      <point x="362" y="1097"/>
      <point x="529.4087478992247" y="1096.857142857143" type="curve" smooth="yes"/>
      <point x="726" y="1097"/>
      <point x="826" y="990"/>
      <point x="825.5222483660484" y="771.5764239029162" type="curve" smooth="yes"/>
      <point x="825.5222483660484" y="0.0" type="line"/>
      <point x="773.68611764701" y="0.0" type="line"/>
      <point x="773.68611764701" y="773.5764239029162" type="line" smooth="yes"/>
      <point x="774" y="952"/>
      <point x="694" y="1041"/>
      <point x="530.9065098039866" y="1041.1544108310263" type="curve" smooth="yes"/>
      <point x="371" y="1041"/>
      <point x="259" y="936"/>
      <point x="198.88678431367666" y="816.4166853408545" type="curve"/>
      <point x="198.88678431367666" y="0.0" type="line"/>
    </contour>
  </outline>
</glyph>
<glyph name="j" format="2">
  <advance width="364"/>
  <unicode hex="006A"/>
  <outline>
    <contour>
      <point x="-133.59281045745666" y="-415.53333333333336" type="curve"/>
      <point x="-133.59281045745666" y="-362.5192810457733" type="line"/>
      <point x="-108" y="-371"/>
      <point x="-63" y="-381"/>
      <point x="-27.707843137319998" y="-381.13594771244" type="curve" smooth="yes"/>
      <point x="90" y="-381"/>
      <point x="157" y="-308"/>
      <point x="157.0" y="-126.20261437910666" type="curve" smooth="yes"/>
      <point x="157.0" y="1076.857142857143" type="line"/>
      <point x="207.44411764701002" y="1076.857142857143" type="line"/>
      <point x="207.44411764701002" y="-90.0" type="line" smooth="yes"/>
      <point x="207" y="-331"/>
      <point x="125" y="-436"/>
      <point x="-33.95326797388333" y="-436.0" type="curve" smooth="yes"/>
      <point x="-74" y="-436"/>
      <point x="-110" y="-423"/>
    </contour>
    <contour>
      <point x="152.49738562089334" y="1413.6876750700444" type="curve" smooth="yes"/>
      <point x="152" y="1443"/>
      <point x="164" y="1468"/>
      <point x="181.74738562089334" y="1468.2889822595978" type="curve" smooth="yes"/>
      <point x="200" y="1468"/>
      <point x="211" y="1443"/>
      <point x="210.99738562089334" y="1413.6876750700444" type="curve" smooth="yes"/>
      <point x="211" y="1381"/>
      <point x="199" y="1358"/>
      <point x="182.69673202611665" y="1357.7030345471578" type="curve" smooth="yes"/>
      <point x="165" y="1358"/>
      <point x="152" y="1381"/>
    </contour>
  </outline>
</glyph>
<glyph name="n" format="2">
  <advance width="964"/>
  <unicode hex="006E"/>
  <outline>
    <contour>
      <point x="148.0" y="0.0" type="line"/>
      <point x="148.0" y="1076.857142857143" type="line"/>
      <point x="197.54146405223332" y="1076.857142857143" type="line"/>
      <point x="197.89881045745665" y="916.0967507003046" type="line"/>
      <point x="193.71610457512" y="916.0967507003046" type="line"/>
      <point x="277" y="1039"/>
      <point x="389" y="1097"/>
      <point x="537.3056666666666" y="1096.857142857143" type="curve" smooth="yes"/>
      <point x="717" y="1097"/>
      <point x="826" y="1000"/>
      <point x="825.5222483660484" y="743.8430905695828" type="curve" smooth="yes"/>
      <point x="825.5222483660484" y="0.0" type="line"/>
      <point x="773.68611764701" y="0.0" type="line"/>
      <point x="773.68611764701" y="756.5097572362495" type="line" smooth="yes"/>
      <point x="774" y="956"/>
      <point x="689" y="1041"/>
      <point x="511.7065098039867" y="1041.1544108310263" type="curve" smooth="yes"/>
      <point x="359" y="1041"/>
      <point x="256" y="945"/>
      <point x="198.88678431367666" y="848.4166853408545" type="curve"/>
      <point x="198.88678431367666" y="0.0" type="line"/>
    </contour>
  </outline>
</glyph>
<glyph name="p" format="2">
  <advance width="1002"/>
  <unicode hex="0070"/>
  <outline>
    <contour>
      <point x="148.0" y="-416.0" type="line"/>
      <point x="148.0" y="1076.857142857143" type="line"/>
      <point x="197.54146405223332" y="1076.857142857143" type="line"/>
      <point x="197.89881045745665" y="934.9769467786546" type="line"/>
      <point x="193.71610457512" y="934.9769467786546" type="line"/>
      <point x="261" y="1024"/>
      <point x="389" y="1097"/>
      <point x="546.40198692811" y="1096.857142857143" type="curve" smooth="yes"/>
      <point x="783" y="1097"/>
      <point x="916" y="870"/>
      <point x="915.5744444443983" y="554.4285714285714" type="curve" smooth="yes"/>
      <point x="915.5744444443983" y="522.4285714285714" type="line" smooth="yes"/>
      <point x="916" y="207"/>
      <point x="783" y="-20"/>
      <point x="546.40198692811" y="-20.0" type="curve" smooth="yes"/>
      <point x="388" y="-20"/>
      <point x="275" y="34"/>
      <point x="198.88678431367666" y="121.41352941182168" type="curve"/>
      <point x="198.88678431367666" y="-416.0" type="line"/>
    </contour>
    <contour>
      <point x="198.88678431367666" y="205.16026143793835" type="line"/>
      <point x="241" y="133"/>
      <point x="348" y="37"/>
      <point x="521.31985620921" y="37.48141176467334" type="curve" smooth="yes"/>
      <point x="755" y="37"/>
      <point x="864" y="202"/>
      <point x="863.8329803921649" y="490.42857142857144" type="curve" smooth="yes"/>
      <point x="863.8329803921649" y="586.4285714285714" type="line" smooth="yes"/>
      <point x="864" y="875"/>
      <point x="757" y="1039"/>
      <point x="526.6531895425434" y="1039.3757310924696" type="curve" smooth="yes"/>
      <point x="364" y="1039"/>
      <point x="247" y="953"/>
      <point x="198.88678431367666" y="869.5635480858712" type="curve"/>
    </contour>
  </outline>
</glyph>
<glyph name="q" format="2">
  <advance width="1002"/>
  <unicode hex="0071"/>
  <outline>
    <contour>
      <point x="85.0" y="522.4285714285714" type="curve" smooth="yes"/>
      <point x="85.0" y="554.4285714285714" type="line" smooth="yes"/>
      <point x="85" y="870"/>
      <point x="217" y="1097"/>
      <point x="454.3937908496216" y="1096.857142857143" type="curve" smooth="yes"/>
      <point x="613" y="1097"/>
      <point x="741" y="1024"/>
      <point x="805.3003267973884" y="934.7002801119878" type="curve"/>
      <point x="803.1183006536085" y="934.7002801119878" type="line"/>
      <point x="803.6503267973884" y="1076.857142857143" type="line"/>
      <point x="854.077124182955" y="1076.857142857143" type="line"/>
      <point x="854.077124182955" y="-416.0" type="line"/>
      <point x="801.3003267973884" y="-416.0" type="line"/>
      <point x="801.3003267973884" y="129.37114845944072" type="line"/>
      <point x="801.3003267973884" y="129.156862745155" type="line"/>
      <point x="726" y="41"/>
      <point x="613" y="-20"/>
      <point x="454.3937908496216" y="-20.0" type="curve" smooth="yes"/>
      <point x="217" y="-20"/>
      <point x="85" y="207"/>
    </contour>
    <contour>
      <point x="135.79211764701" y="490.42857142857144" type="line" smooth="yes"/>
      <point x="136" y="202"/>
      <point x="242" y="37"/>
      <point x="478.30524183010334" y="37.48141176467334" type="curve" smooth="yes"/>
      <point x="638" y="37"/>
      <point x="752" y="121"/>
      <point x="801.6876601307217" y="217.96026143793836" type="curve"/>
      <point x="801.6876601307217" y="869.5635480858712" type="line"/>
      <point x="757" y="953"/>
      <point x="652" y="1039"/>
      <point x="488.97190849676997" y="1039.3757310924696" type="curve" smooth="yes"/>
      <point x="253" y="1039"/>
      <point x="136" y="891"/>
      <point x="135.79211764701" y="586.4285714285714" type="curve" smooth="yes"/>
    </contour>
  </outline>
</glyph>
<glyph name="r" format="2">
  <advance width="623"/>
  <unicode hex="0072"/>
  <outline>
    <contour>
      <point x="148.0" y="0.0" type="line"/>
      <point x="148.0" y="1076.857142857143" type="line"/>
      <point x="197.54146405223332" y="1076.857142857143" type="line"/>
      <point x="197.89881045745665" y="935.3502147525378" type="line"/>
      <point x="193.71610457512" y="935.3502147525378" type="line"/>
      <point x="262" y="1027"/>
      <point x="362" y="1107"/>
      <point x="503.2104836600684" y="1106.857142857143" type="curve" smooth="yes"/>
      <point x="537" y="1107"/>
      <point x="578" y="1098"/>
      <point x="593.2026797385566" y="1092.857142857143" type="curve"/>
      <point x="593.2026797385566" y="1038.2037310924695" type="line"/>
      <point x="562" y="1044"/>
      <point x="532" y="1050"/>
      <point x="493.7304705881784" y="1049.966397759136" type="curve" smooth="yes"/>
      <point x="363" y="1050"/>
      <point x="256" y="963"/>
      <point x="198.88678431367666" y="850.9874696545312" type="curve"/>
      <point x="198.88678431367666" y="0.0" type="line"/>
    </contour>
  </outline>
</glyph>
<glyph name="s" format="2">
  <advance width="837"/>
  <unicode hex="0073"/>
  <outline>
    <contour>
      <point x="80.0" y="316.18440709616095" type="line"/>
      <point x="130.44411764701002" y="316.18440709616095" type="line"/>
      <point x="130.44411764701002" y="310.23506069093764" type="line" smooth="yes"/>
      <point x="130" y="117"/>
      <point x="249" y="22"/>
      <point x="422.39379084962167" y="21.814052287560003" type="curve" smooth="yes"/>
      <point x="599" y="22"/>
      <point x="696" y="105"/>
      <point x="696.3032212884829" y="258.4017273576043" type="curve" smooth="yes"/>
      <point x="696" y="404"/>
      <point x="626" y="476"/>
      <point x="416.3277777777317" y="533.2305322129014" type="curve" smooth="yes"/>
      <point x="206" y="590"/>
      <point x="138" y="693"/>
      <point x="137.52264239031928" y="832.9394024276486" type="curve" smooth="yes"/>
      <point x="138" y="1005"/>
      <point x="263" y="1107"/>
      <point x="449.4794584500738" y="1106.857142857143" type="curve" smooth="yes"/>
      <point x="645" y="1107"/>
      <point x="760" y="985"/>
      <point x="760.0098506069122" y="766.55392156866" type="curve" smooth="yes"/>
      <point x="760.0098506069122" y="761.55392156866" type="line"/>
      <point x="709.1823996265689" y="761.55392156866" type="line"/>
      <point x="709.1823996265689" y="776.4833800187338" type="line" smooth="yes"/>
      <point x="709" y="967"/>
      <point x="613" y="1055"/>
      <point x="449.4794584500738" y="1055.0430905695828" type="curve" smooth="yes"/>
      <point x="288" y="1055"/>
      <point x="191" y="989"/>
      <point x="190.74943977588595" y="848.1554154995385" type="curve" smooth="yes"/>
      <point x="191" y="718"/>
      <point x="237" y="641"/>
      <point x="447.5571895425433" y="580.7766106442414" type="curve" smooth="yes"/>
      <point x="657" y="520"/>
      <point x="757" y="442"/>
      <point x="756.9209150327151" y="275.7510737628276" type="curve" smooth="yes"/>
      <point x="757" y="90"/>
      <point x="647" y="-30"/>
      <point x="422.39379084962167" y="-30.0" type="curve" smooth="yes"/>
      <point x="189" y="-30"/>
      <point x="80" y="90"/>
      <point x="80.0" y="310.23506069093764" type="curve" smooth="yes"/>
    </contour>
  </outline>
</glyph>
<glyph name="u" format="2">
  <advance width="964"/>
  <unicode hex="0075"/>
  <outline>
    <contour>
      <point x="138.0" y="333.01405228756" type="curve" smooth="yes"/>
      <point x="138.0" y="1076.857142857143" type="line"/>
      <point x="188.88678431367666" y="1076.857142857143" type="line"/>
      <point x="188.88678431367666" y="331.01405228756" type="line" smooth="yes"/>
      <point x="189" y="119"/>
      <point x="272" y="36"/>
      <point x="449.79972549017174" y="35.70273202611668" type="curve" smooth="yes"/>
      <point x="601" y="36"/>
      <point x="689" y="107"/>
      <point x="763.68611764701" y="217.77379084962172" type="curve"/>
      <point x="763.68611764701" y="1076.857142857143" type="line"/>
      <point x="815.5222483660484" y="1076.857142857143" type="line"/>
      <point x="815.5222483660484" y="0.0" type="line"/>
      <point x="765.9807843136766" y="0.0" type="line"/>
      <point x="765.7407581698967" y="139.42705882350498" type="line"/>
      <point x="767.7901307189001" y="139.42705882350498" type="line"/>
      <point x="689" y="35"/>
      <point x="590" y="-20"/>
      <point x="415.54991503271503" y="-20.0" type="curve" smooth="yes"/>
      <point x="251" y="-20"/>
      <point x="138" y="77"/>
    </contour>
  </outline>
</glyph>
<glyph name="w" format="2">
  <advance width="1458"/>
  <unicode hex="0077"/>
  <outline>
    <contour>
      <point x="25.0" y="1076.857142857143" type="line"/>
      <point x="93.27556862749167" y="1076.857142857143" type="line"/>
      <point x="308.10298786175713" y="255.05154061627906" type="line" smooth="yes"/>
      <point x="324" y="201"/>
      <point x="349" y="95"/>
      <point x="358.28431372549835" y="41.14257703086929" type="curve"/>
      <point x="365.6676470588317" y="41.14257703086929" type="line"/>
      <point x="376" y="95"/>
      <point x="405" y="201"/>
      <point x="421.37105508863976" y="255.05154061627906" type="curve" smooth="yes"/>
      <point x="690.711111111065" y="1076.857142857143" type="line"/>
      <point x="770.2107843136766" y="1076.857142857143" type="line"/>
      <point x="1021.3727357609819" y="255.05154061627906" type="line" smooth="yes"/>
      <point x="1036" y="201"/>
      <point x="1066" y="95"/>
      <point x="1074.3451914098375" y="41.14257703086929" type="curve"/>
      <point x="1080.3451914098375" y="41.14257703086929" type="line"/>
      <point x="1089" y="95"/>
      <point x="1124" y="201"/>
      <point x="1138.2037815125968" y="255.05154061627906" type="curve" smooth="yes"/>
      <point x="1366.1283137254984" y="1076.857142857143" type="line"/>
      <point x="1431.1104967319582" y="1076.857142857143" type="line"/>
      <point x="1149.8810588235049" y="0.0" type="line"/>
      <point x="1042.9963725490034" y="0.0" type="line"/>
      <point x="773.88006535945" y="822.698459383721" type="line" smooth="yes"/>
      <point x="756" y="876"/>
      <point x="745" y="915"/>
      <point x="733.6372549019933" y="968.8651260503876" type="curve"/>
      <point x="724.8705882353266" y="968.8651260503876" type="line"/>
      <point x="712" y="915"/>
      <point x="704" y="876"/>
      <point x="685.6944444443983" y="822.698459383721" type="curve" smooth="yes"/>
      <point x="415.13013725484495" y="0.0" type="line"/>
      <point x="307.62810457512" y="0.0" type="line"/>
    </contour>
  </outline>
</glyph>
<glyph name="y" format="2">
  <advance width="1062"/>
  <unicode hex="0079"/>
  <outline>
    <contour>
      <point x="172.29346405223333" y="-416.0" type="curve"/>
      <point x="172.29346405223333" y="-366.05261437910667" type="line"/>
      <point x="211" y="-377"/>
      <point x="259" y="-387"/>
      <point x="294.9284313725083" y="-386.8192810457733" type="curve" smooth="yes"/>
      <point x="391" y="-387"/>
      <point x="384" y="-449"/>
      <point x="557.4338468720468" y="-10.972315592930952" type="curve"/>
      <point x="565.7909897291897" y="12.00149393087857" type="line"/>
      <point x="140.58333333333331" y="1076.857142857143" type="line"/>
      <point x="221.55294117649498" y="1076.857142857143" type="line"/>
      <point x="560.8150326797249" y="178.60868347342193" type="line" smooth="yes"/>
      <point x="576" y="145"/>
      <point x="581" y="125"/>
      <point x="592.9535014006091" y="54.469374416435954" type="curve"/>
      <point x="600.3368347339424" y="54.469374416435954" type="line"/>
      <point x="608" y="125"/>
      <point x="613" y="145"/>
      <point x="627.9629785247323" y="178.60868347342193" type="curve" smooth="yes"/>
      <point x="989.0222222222684" y="1076.857142857143" type="line"/>
      <point x="1060.061111111065" y="1076.857142857143" type="line"/>
      <point x="617.2931372548449" y="26.51666666666665" type="line" smooth="yes"/>
      <point x="463" y="-376"/>
      <point x="439" y="-436"/>
      <point x="297.0264705881783" y="-436.0" type="curve" smooth="yes"/>
      <point x="242" y="-436"/>
      <point x="208" y="-428"/>
    </contour>
  </outline>
</glyph>
<glyph name="braceleft" format="2">
  <advance width="566"/>
  <unicode hex="007B"/>
  <outline>
    <contour>
      <point x="550.9773986927834" y="-312.0" type="line"/>
      <point x="299" y="-312"/>
      <point x="150" y="-153"/>
      <point x="224.07461437910666" y="129.506928104605" type="curve" smooth="yes"/>
      <point x="274.1013071895533" y="332.1013071895533" type="line" smooth="yes"/>
      <point x="317" y="506"/>
      <point x="209" y="546"/>
      <point x="55.31966013072167" y="545.8613071895534" type="curve"/>
      <point x="55.31966013072167" y="602.1386928104466" type="line"/>
      <point x="209" y="602"/>
      <point x="317" y="642"/>
      <point x="274.1013071895533" y="815.8986928104466" type="curve" smooth="yes"/>
      <point x="224.07461437910666" y="1018.4930718953949" type="line" smooth="yes"/>
      <point x="150" y="1301"/>
      <point x="299" y="1460"/>
      <point x="550.9773986927834" y="1460.0" type="curve"/>
      <point x="550.9773986927834" y="1404.7732810457733" type="line"/>
      <point x="313" y="1405"/>
      <point x="210" y="1274"/>
      <point x="277.0087320261166" y="1016.5943790849483" type="curve" smooth="yes"/>
      <point x="327.9847712417867" y="814.0" type="line" smooth="yes"/>
      <point x="358" y="703"/>
      <point x="309" y="607"/>
      <point x="179.50749019601332" y="574.0" type="curve"/>
      <point x="309" y="541"/>
      <point x="356" y="446"/>
      <point x="327.9847712417867" y="334.0" type="curve" smooth="yes"/>
      <point x="277.0087320261166" y="131.40562091505168" type="line" smooth="yes"/>
      <point x="210" y="-126"/>
      <point x="313" y="-257"/>
      <point x="550.9773986927834" y="-256.77328104577333" type="curve"/>
    </contour>
  </outline>
</glyph>
<glyph name="braceright" format="2">
  <advance width="566"/>
  <unicode hex="007D"/>
  <outline>
    <contour>
      <point x="14.058026143779998" y="-312.0" type="curve"/>
      <point x="14.058026143779998" y="-256.77328104577333" type="line"/>
      <point x="252" y="-257"/>
      <point x="357" y="-126"/>
      <point x="288.02669281044666" y="131.40562091505168" type="curve" smooth="yes"/>
      <point x="238.0" y="334.0" type="line" smooth="yes"/>
      <point x="210" y="446"/>
      <point x="256" y="541"/>
      <point x="386.47728104577334" y="574.0" type="curve"/>
      <point x="256" y="607"/>
      <point x="210" y="702"/>
      <point x="238.0" y="814.0" type="curve" smooth="yes"/>
      <point x="288.02669281044666" y="1016.5943790849483" type="line" smooth="yes"/>
      <point x="357" y="1274"/>
      <point x="252" y="1405"/>
      <point x="14.058026143779998" y="1404.7732810457733" type="curve"/>
      <point x="14.058026143779998" y="1460.0" type="line"/>
      <point x="266" y="1460"/>
      <point x="417" y="1301"/>
      <point x="341.91015686267997" y="1018.4930718953949" type="curve" smooth="yes"/>
      <point x="290.93411764701" y="815.8986928104466" type="line" smooth="yes"/>
      <point x="248" y="642"/>
      <point x="356" y="602"/>
      <point x="510.665111111065" y="602.1386928104466" type="curve"/>
      <point x="510.665111111065" y="545.8613071895534" type="line"/>
      <point x="356" y="546"/>
      <point x="248" y="506"/>
      <point x="290.93411764701" y="332.1013071895533" type="curve" smooth="yes"/>
      <point x="341.91015686267997" y="129.506928104605" type="line" smooth="yes"/>
      <point x="417" y="-153"/>
      <point x="266" y="-312"/>
    </contour>
  </outline>
</glyph>
<glyph name="asciitilde" format="2">
  <advance width="1718"/>
  <unicode hex="007E"/>
  <outline>
    <contour>
      <point x="584.4993464052234" y="617.7666666666667" type="curve"/>
      <point x="584.4993464052234" y="675.9" type="line"/>
      <point x="614" y="709"/>
      <point x="651" y="721"/>
      <point x="706.600980392165" y="720.8833333333333" type="curve" smooth="yes"/>
      <point x="647" y="721"/>
      <point x="792" y="711"/>
      <point x="857.6872549019934" y="701.9006535947767" type="curve" smooth="yes"/>
      <point x="920" y="698"/>
      <point x="1065" y="681"/>
      <point x="1012.9735294118218" y="680.95" type="curve" smooth="yes"/>
      <point x="1076" y="681"/>
      <point x="1113" y="701"/>
      <point x="1142.3758169934015" y="739.0833333333334" type="curve"/>
      <point x="1142.3758169934015" y="678.5666666666666" type="line"/>
      <point x="1114" y="650"/>
      <point x="1075" y="635"/>
      <point x="1016.106862745155" y="634.65" type="curve" smooth="yes"/>
      <point x="1077" y="635"/>
      <point x="950" y="640"/>
      <point x="902.8725490196566" y="636.5506535947767" type="curve" smooth="yes"/>
      <point x="824" y="651"/>
      <point x="660" y="675"/>
      <point x="710.8676470588316" y="674.9" type="curve" smooth="yes"/>
      <point x="652" y="675"/>
      <point x="616" y="659"/>
    </contour>
  </outline>
</glyph>
<glyph name="cent" format="2">
  <advance width="886"/>
  <unicode hex="00A2"/>
  <outline>
    <contour>
      <point x="511.1" y="194.85000000000002" type="curve" smooth="yes"/>
      <point x="793" y="195"/>
      <point x="820" y="344"/>
      <point x="806.4" y="526.3" type="curve"/>
      <point x="860.55" y="526.3" type="line"/>
      <point x="876" y="310"/>
      <point x="832" y="138"/>
      <point x="513.2333333333333" y="138.41666666666666" type="curve" smooth="yes"/>
      <point x="306" y="138"/>
      <point x="114" y="288"/>
      <point x="114.0" y="678.4166666666666" type="curve" smooth="yes"/>
      <point x="114.0" y="695.9166666666666" type="line" smooth="yes"/>
      <point x="114" y="1086"/>
      <point x="303" y="1236"/>
      <point x="521.7666666666667" y="1235.9166666666667" type="curve" smooth="yes"/>
      <point x="794" y="1236"/>
      <point x="874" y="1065"/>
      <point x="860.55" y="891.5333333333333" type="curve"/>
      <point x="806.4" y="891.5333333333333" type="line"/>
      <point x="820" y="1059"/>
      <point x="778" y="1178"/>
      <point x="520.7" y="1178.4166666666667" type="curve" smooth="yes"/>
      <point x="320" y="1178"/>
      <point x="170" y="1057"/>
      <point x="169.85" y="727.9166666666666" type="curve" smooth="yes"/>
      <point x="169.85" y="646.4166666666666" type="line" smooth="yes"/>
      <point x="170" y="319"/>
      <point x="327" y="195"/>
    </contour>
    <contour>
      <point x="420.3" y="0.0" type="line"/>
      <point x="420.3" y="181.66666666666669" type="line"/>
      <point x="419.76666666666665" y="195.66666666666669" type="line"/>
      <point x="419.76666666666665" y="708.0" type="line"/>
      <point x="476.76666666666665" y="708.0" type="line"/>
      <point x="476.76666666666665" y="194.66666666666669" type="line"/>
      <point x="476.23333333333335" y="184.66666666666669" type="line"/>
      <point x="476.23333333333335" y="0.0" type="line"/>
    </contour>
    <contour>
      <point x="419.76666666666665" y="708.0" type="line"/>
      <point x="419.76666666666665" y="1182.0" type="line"/>
      <point x="420.3" y="1192.0" type="line"/>
      <point x="420.3" y="1402.0" type="line"/>
      <point x="476.23333333333335" y="1402.0" type="line"/>
      <point x="476.23333333333335" y="1192.0" type="line"/>
      <point x="476.76666666666665" y="1179.0" type="line"/>
      <point x="476.76666666666665" y="708.0" type="line"/>
    </contour>
  </outline>
</glyph>
<glyph name="section" format="2">
  <advance width="1256"/>
  <unicode hex="00A7"/>
  <guideline x="0" y="1658.0" angle="0" identifier="QzZ5gIiCyn"/>
  <guideline x="0" y="578.0" angle="0" identifier="9Hxjf2sdFw"/>
  <outline>
    <contour>
      <point x="728.35" y="137.15" type="curve"/>
      <point x="728.35" y="199.43333333333334" type="line"/>
      <point x="914" y="229"/>
      <point x="984" y="339"/>
      <point x="983.6666666666666" y="497.5833333333333" type="curve"/>
      <point x="984" y="641"/>
      <point x="981" y="725"/>
      <point x="651.65" y="804.55" type="curve" smooth="yes"/>
      <point x="334" y="885"/>
      <point x="281" y="1035"/>
      <point x="281.15" y="1153.9" type="curve" smooth="yes"/>
      <point x="281" y="1331"/>
      <point x="421" y="1490"/>
      <point x="625.7666666666667" y="1489.6166666666666" type="curve" smooth="yes"/>
      <point x="826" y="1489"/>
      <point x="963" y="1318"/>
      <point x="963.5333333333333" y="1109.6833333333334" type="curve"/>
      <point x="909.2" y="1109.6833333333334" type="line"/>
      <point x="909" y="1325"/>
      <point x="785" y="1441"/>
      <point x="625.7666666666667" y="1440.75" type="curve" smooth="yes"/>
      <point x="465" y="1441"/>
      <point x="345" y="1310"/>
      <point x="345.1666666666667" y="1149.6833333333334" type="curve" smooth="yes"/>
      <point x="345" y="1029"/>
      <point x="464" y="901"/>
      <point x="700.6" y="848.5833333333334" type="curve" smooth="yes"/>
      <point x="1025" y="767"/>
      <point x="1042" y="671"/>
      <point x="1041.55" y="491.8333333333333" type="curve" smooth="yes"/>
      <point x="1042" y="328"/>
      <point x="960" y="167"/>
    </contour>
    <contour>
      <point x="490.95" y="928.5833333333334" type="curve"/>
      <point x="491.3333333333333" y="869.4333333333334" type="line"/>
      <point x="330" y="842"/>
      <point x="264" y="724"/>
      <point x="264.4166666666667" y="560.0833333333334" type="curve" smooth="yes"/>
      <point x="264" y="412"/>
      <point x="292" y="322"/>
      <point x="604.1833333333333" y="240.91666666666669" type="curve" smooth="yes"/>
      <point x="947" y="149"/>
      <point x="950" y="20"/>
      <point x="950.4" y="-139.28333333333333" type="curve" smooth="yes"/>
      <point x="950" y="-357"/>
      <point x="831" y="-503"/>
      <point x="575.4833333333333" y="-503.46666666666664" type="curve" smooth="yes"/>
      <point x="307" y="-503"/>
      <point x="216" y="-315"/>
      <point x="216.15" y="-106.58333333333334" type="curve"/>
      <point x="272.25" y="-107.35" type="line"/>
      <point x="272" y="-257"/>
      <point x="331" y="-450"/>
      <point x="575.4833333333333" y="-450.45" type="curve" smooth="yes"/>
      <point x="810" y="-450"/>
      <point x="887" y="-302"/>
      <point x="887.3833333333333" y="-130.46666666666667" type="curve" smooth="yes"/>
      <point x="887" y="25"/>
      <point x="807" y="126"/>
      <point x="564.9" y="188.66666666666666" type="curve" smooth="yes"/>
      <point x="247" y="274"/>
      <point x="208" y="368"/>
      <point x="208.3" y="556.25" type="curve" smooth="yes"/>
      <point x="208" y="723"/>
      <point x="255" y="897"/>
    </contour>
  </outline>
</glyph>
<glyph name="twosuperior" format="2">
  <advance width="614"/>
  <unicode hex="00B2"/>
  <outline>
    <contour>
      <point x="105.19999999999999" y="697.0" type="line"/>
      <point x="105.19999999999999" y="777.3333333333334" type="line"/>
      <point x="272.48333333333335" y="1009.2833333333333" type="line" smooth="yes"/>
      <point x="350" y="1108"/>
      <point x="463" y="1181"/>
      <point x="463.28333333333336" y="1284.9666666666667" type="curve" smooth="yes"/>
      <point x="463" y="1371"/>
      <point x="408" y="1438"/>
      <point x="298.7166666666667" y="1438.1" type="curve" smooth="yes"/>
      <point x="177" y="1438"/>
      <point x="125" y="1381"/>
      <point x="128.13333333333333" y="1239.5" type="curve"/>
      <point x="88.58333333333334" y="1239.5" type="line"/>
      <point x="85" y="1423"/>
      <point x="160" y="1487"/>
      <point x="297.48333333333335" y="1487.0" type="curve" smooth="yes"/>
      <point x="443" y="1487"/>
      <point x="510" y="1415"/>
      <point x="509.98333333333335" y="1284.2" type="curve" smooth="yes"/>
      <point x="510" y="1176"/>
      <point x="399" y="1066"/>
      <point x="281.31666666666666" y="933.65" type="curve" smooth="yes"/>
      <point x="125.43333333333334" y="748.1666666666666" type="line"/>
      <point x="527.15" y="748.1666666666666" type="line"/>
      <point x="527.15" y="697.0" type="line"/>
    </contour>
  </outline>
</glyph>
<glyph name="threesuperior" format="2">
  <advance width="625"/>
  <unicode hex="00B3"/>
  <outline>
    <contour>
      <point x="110.98333333333332" y="928.5" type="curve"/>
      <point x="153.16666666666669" y="928.5" type="line"/>
      <point x="153" y="793"/>
      <point x="190" y="734"/>
      <point x="330.8" y="734.2833333333333" type="curve" smooth="yes"/>
      <point x="432" y="734"/>
      <point x="505" y="802"/>
      <point x="504.9166666666667" y="911.1666666666666" type="curve" smooth="yes"/>
      <point x="505" y="1010"/>
      <point x="452" y="1094"/>
      <point x="335.55" y="1091.05" type="curve" smooth="yes"/>
      <point x="284.93333333333334" y="1091.05" type="line"/>
      <point x="284.93333333333334" y="1133.2166666666667" type="line"/>
      <point x="335.55" y="1133.2166666666667" type="line" smooth="yes"/>
      <point x="451" y="1135"/>
      <point x="486" y="1185"/>
      <point x="486.3833333333333" y="1282.6666666666667" type="curve" smooth="yes"/>
      <point x="486" y="1394"/>
      <point x="410" y="1443"/>
      <point x="330.56666666666666" y="1442.8666666666666" type="curve" smooth="yes"/>
      <point x="191" y="1443"/>
      <point x="164" y="1367"/>
      <point x="164.16666666666669" y="1247.5" type="curve"/>
      <point x="121.98333333333332" y="1247.5" type="line"/>
      <point x="122" y="1389"/>
      <point x="157" y="1487"/>
      <point x="333.1" y="1487.0" type="curve" smooth="yes"/>
      <point x="464" y="1487"/>
      <point x="520" y="1419"/>
      <point x="519.6333333333333" y="1296.2" type="curve" smooth="yes"/>
      <point x="520" y="1182"/>
      <point x="459" y="1136"/>
      <point x="374.5" y="1117.3666666666666" type="curve"/>
      <point x="469" y="1100"/>
      <point x="542" y="1005"/>
      <point x="541.7" y="917.0" type="curve" smooth="yes"/>
      <point x="542" y="779"/>
      <point x="488" y="686"/>
      <point x="325.8" y="686.0" type="curve" smooth="yes"/>
      <point x="184" y="686"/>
      <point x="111" y="786"/>
    </contour>
  </outline>
</glyph>
<glyph name="cedilla" format="2">
  <advance width="1024"/>
  <unicode hex="00B8"/>
  <outline>
    <contour>
      <point x="440.0" y="42.0" type="line"/>
      <point x="505.3666666666667" y="42.0" type="line"/>
      <point x="466.3" y="-88.96666666666667" type="line"/>
      <point x="569" y="-106"/>
      <point x="604" y="-161"/>
      <point x="603.65" y="-226.0" type="curve" smooth="yes"/>
      <point x="604" y="-332"/>
      <point x="502" y="-409"/>
      <point x="346.6166666666667" y="-408.7166666666667" type="curve"/>
      <point x="343.76666666666665" y="-361.2" type="line"/>
      <point x="450" y="-356"/>
      <point x="556" y="-306"/>
      <point x="555.8333333333334" y="-228.0" type="curve" smooth="yes"/>
      <point x="556" y="-162"/>
      <point x="512" y="-144"/>
      <point x="399.0" y="-135.0" type="curve"/>
    </contour>
  </outline>
</glyph>
<glyph name="ae" format="2">
  <advance width="1221"/>
  <unicode hex="00E6"/>
  <outline>
    <contour>
      <point x="131.9" y="269.85" type="curve" smooth="yes"/>
      <point x="132" y="102"/>
      <point x="196" y="31"/>
      <point x="321.18333333333334" y="31.049999999999997" type="curve" smooth="yes"/>
      <point x="452" y="31"/>
      <point x="583" y="141"/>
      <point x="582.85" y="309.4" type="curve"/>
      <point x="582.85" y="527.8166666666667" type="line"/>
      <point x="388.18333333333334" y="527.8166666666667" type="line" smooth="yes"/>
      <point x="222" y="528"/>
      <point x="132" y="456"/>
    </contour>
    <contour>
      <point x="90.0" y="294.7" type="curve" smooth="yes"/>
      <point x="90" y="476"/>
      <point x="191" y="579"/>
      <point x="370.0" y="579.4666666666667" type="curve" smooth="yes"/>
      <point x="582.85" y="579.4666666666667" type="line"/>
      <point x="582.85" y="720.0" type="line" smooth="yes"/>
      <point x="583" y="908"/>
      <point x="532" y="1031"/>
      <point x="388.18333333333334" y="1030.95" type="curve" smooth="yes"/>
      <point x="247" y="1031"/>
      <point x="190" y="910"/>
      <point x="189.9" y="770.0" type="curve" smooth="yes"/>
      <point x="189.9" y="765.0" type="line"/>
      <point x="151.76666666666668" y="765.0" type="line"/>
      <point x="151.76666666666668" y="770.0" type="line" smooth="yes"/>
      <point x="152" y="957"/>
      <point x="232" y="1082"/>
      <point x="393.5" y="1082.0" type="curve" smooth="yes"/>
      <point x="436" y="1082"/>
      <point x="522" y="1096"/>
      <point x="616.9666666666667" y="954.6833333333333" type="curve"/>
      <point x="748" y="1076"/>
      <point x="852" y="1082"/>
      <point x="896.25" y="1082.0" type="curve" smooth="yes"/>
      <point x="1072" y="1082"/>
      <point x="1169" y="932"/>
      <point x="1169.1" y="560.0" type="curve" smooth="yes"/>
      <point x="1169.1" y="533.1666666666666" type="line"/>
      <point x="601.2166666666667" y="533.1666666666666" type="line"/>
      <point x="601.2166666666667" y="582.8333333333334" type="line"/>
      <point x="1126.5833333333335" y="582.8333333333334" type="line"/>
      <point x="1125.1333333333332" y="587.0333333333333" type="line"/>
      <point x="1127" y="885"/>
      <point x="1052" y="1030"/>
      <point x="900.6" y="1029.7166666666667" type="curve" smooth="yes"/>
      <point x="723" y="1030"/>
      <point x="634" y="881"/>
      <point x="634.45" y="574.0" type="curve" smooth="yes"/>
      <point x="634.45" y="478.0" type="line" smooth="yes"/>
      <point x="634" y="184"/>
      <point x="713" y="22"/>
      <point x="912.7" y="22.28333333333333" type="curve" smooth="yes"/>
      <point x="1020" y="22"/>
      <point x="1070" y="72"/>
      <point x="1126.2333333333333" y="158.15" type="curve"/>
      <point x="1176.35" y="135.55" type="line"/>
      <point x="1120" y="26"/>
      <point x="1040" y="-30"/>
      <point x="923.3666666666667" y="-30.0" type="curve" smooth="yes"/>
      <point x="769" y="-30"/>
      <point x="697" y="66"/>
      <point x="637.1333333333333" y="186.58333333333334" type="curve"/>
      <point x="528" y="39"/>
      <point x="408" y="-20"/>
      <point x="317.3833333333333" y="-20.0" type="curve" smooth="yes"/>
      <point x="172" y="-20"/>
      <point x="90" y="59"/>
    </contour>
  </outline>
</glyph>
<glyph name="eth" format="2">
  <advance width="805"/>
  <unicode hex="00F0"/>
  <outline>
    <contour>
      <point x="161.86666666666667" y="1542.9666666666667" type="curve"/>
      <point x="174.16666666666669" y="1581.0" type="line"/>
      <point x="582.3306666666667" y="1467.6806666666666"/>
      <point x="720.3666666666667" y="1145.6616666666669"/>
      <point x="720.3666666666667" y="633.0" type="curve"/>
      <point x="720.3666666666667" y="535.0" type="line"/>
      <point x="720.3666666666667" y="212.7746666666667"/>
      <point x="621.7533333333334" y="-20.0"/>
      <point x="406.68333333333334" y="-20.0" type="curve" smooth="yes"/>
      <point x="188.308" y="-20.0"/>
      <point x="85.0" y="177.44333333333333"/>
      <point x="85.0" y="468.0" type="curve" smooth="yes"/>
      <point x="85.0" y="763.2243333333334"/>
      <point x="179.35299999999998" y="978.0"/>
      <point x="384.2166666666667" y="978.0" type="curve" smooth="yes"/>
      <point x="610.6766666666667" y="978.0"/>
      <point x="725.35" y="793.9"/>
      <point x="725.35" y="613.0" type="curve"/>
      <point x="659.1166666666667" y="614.0" type="line"/>
      <point x="659.1166666666667" y="825.8763333333334"/>
      <point x="485.501" y="925.7166666666667"/>
      <point x="382.56666666666666" y="925.7166666666667" type="curve" smooth="yes"/>
      <point x="216.5853333333333" y="925.7166666666667"/>
      <point x="131.48333333333332" y="728.5406666666665"/>
      <point x="131.48333333333332" y="468.0" type="curve" smooth="yes"/>
      <point x="131.48333333333332" y="203.082"/>
      <point x="225.45066666666665" y="20.233333333333334"/>
      <point x="410.68333333333334" y="20.233333333333334" type="curve" smooth="yes"/>
      <point x="587.7643333333334" y="20.233333333333334"/>
      <point x="672.5" y="241.49533333333335"/>
      <point x="672.5" y="535.0" type="curve" smooth="yes"/>
      <point x="672.5" y="635.0" type="line" smooth="yes"/>
      <point x="672.5" y="1109.9183333333333"/>
      <point x="586.6466666666668" y="1428.9996666666668"/>
    </contour>
    <contour>
      <point x="613.15" y="1427.0" type="line"/>
      <point x="264.43333333333334" y="1116.3333333333333" type="line"/>
      <point x="232.61666666666667" y="1163.0166666666667" type="line"/>
      <point x="582.7166666666667" y="1474.0666666666666" type="line"/>
    </contour>
  </outline>
</glyph>
<glyph name="divide" format="2">
  <advance width="917"/>
  <unicode hex="00F7"/>
  <outline>
    <contour>
      <point x="397.68333333333334" y="1004.1333333333333" type="curve" smooth="yes"/>
      <point x="397.68333333333334" y="1036.2263333333333"/>
      <point x="419.07466666666664" y="1063.5"/>
      <point x="457.6666666666667" y="1063.5" type="curve" smooth="yes"/>
      <point x="498.62600000000003" y="1063.5"/>
      <point x="518.65" y="1036.2263333333333"/>
      <point x="518.65" y="1004.1333333333333" type="curve" smooth="yes"/>
      <point x="518.65" y="971.0129999999999"/>
      <point x="498.62600000000003" y="945.0"/>
      <point x="457.6666666666667" y="945.0" type="curve" smooth="yes"/>
      <point x="419.07466666666664" y="945.0"/>
      <point x="397.68333333333334" y="971.0129999999999"/>
    </contour>
    <contour>
      <point x="397.68333333333334" y="351.6333333333333" type="curve" smooth="yes"/>
      <point x="397.68333333333334" y="384.24000000000007"/>
      <point x="419.07466666666664" y="411.0"/>
      <point x="457.6666666666667" y="411.0" type="curve" smooth="yes"/>
      <point x="498.62600000000003" y="411.0"/>
      <point x="518.65" y="384.24000000000007"/>
      <point x="518.65" y="351.6333333333333" type="curve" smooth="yes"/>
      <point x="518.65" y="318.51300000000003"/>
      <point x="498.62600000000003" y="292.8833333333333"/>
      <point x="457.6666666666667" y="292.8833333333333" type="curve" smooth="yes"/>
      <point x="419.07466666666664" y="292.8833333333333"/>
      <point x="397.68333333333334" y="318.51300000000003"/>
    </contour>
    <contour>
      <point x="57.0" y="657.1666666666666" type="line"/>
      <point x="57.0" y="707.1333333333333" type="line"/>
      <point x="860.3333333333334" y="707.1333333333333" type="line"/>
      <point x="860.3333333333334" y="657.1666666666666" type="line"/>
    </contour>
  </outline>
</glyph>
<glyph name="thorn" format="2">
  <advance width="835"/>
  <unicode hex="00FE"/>
  <outline>
    <contour>
      <point x="159.06666666666666" y="-416.0" type="line"/>
      <point x="159.06666666666666" y="1536.0" type="line"/>
      <point x="184.13333333333333" y="1536.0" type="line"/>
      <point x="184.13333333333333" y="905.2333333333333" type="line"/>
      <point x="227.34833333333336" y="987.0403333333333"/>
      <point x="344.957" y="1072.0"/>
      <point x="461.9166666666667" y="1072.0" type="curve" smooth="yes"/>
      <point x="649.3826666666666" y="1072.0"/>
      <point x="749.6666666666667" y="850.2"/>
      <point x="749.6666666666667" y="542.0" type="curve" smooth="yes"/>
      <point x="749.6666666666667" y="510.0" type="line" smooth="yes"/>
      <point x="749.6666666666667" y="201.79999999999995"/>
      <point x="649.3826666666666" y="-20.0"/>
      <point x="461.9166666666667" y="-20.0" type="curve" smooth="yes"/>
      <point x="344.957" y="-20.0"/>
      <point x="254.29466666666667" y="27.507333333333335"/>
      <point x="185.01666666666665" y="117.6" type="curve"/>
      <point x="190.81666666666666" y="117.6" type="line"/>
      <point x="202.41666666666669" y="-416.0" type="line"/>
    </contour>
    <contour>
      <point x="200.96666666666667" y="186.45000000000002" type="line"/>
      <point x="232.345" y="121.393"/>
      <point x="310.9986666666667" y="32.28333333333333"/>
      <point x="446.3833333333333" y="32.28333333333333" type="curve" smooth="yes"/>
      <point x="621.8786666666667" y="32.28333333333333"/>
      <point x="706.5333333333333" y="206.98499999999996"/>
      <point x="706.5333333333333" y="478.0" type="curve" smooth="yes"/>
      <point x="706.5333333333333" y="574.0" type="line" smooth="yes"/>
      <point x="706.5333333333333" y="845.0150000000001"/>
      <point x="624.3533333333332" y="1019.7166666666667"/>
      <point x="451.7166666666667" y="1019.7166666666667" type="curve" smooth="yes"/>
      <point x="326.3373333333333" y="1019.7166666666667"/>
      <point x="236.633" y="939.9083333333333"/>
      <point x="200.96666666666667" y="863.4166666666666" type="curve"/>
    </contour>
  </outline>
</glyph>
<glyph name="OE" format="2">
  <advance width="1497"/>
  <unicode hex="0152"/>
  <outline>
    <contour>
      <point x="553.95" y="1489.45" type="curve" smooth="yes"/>
      <point x="690.8533333333334" y="1489.45"/>
      <point x="796.8419999999999" y="1470.4273333333333"/>
      <point x="875.5" y="1456.0" type="curve"/>
      <point x="1420.6" y="1456.0" type="line"/>
      <point x="1420.6" y="1404.3166666666666" type="line"/>
      <point x="890.9833333333333" y="1404.3166666666666" type="line"/>
      <point x="890.9833333333333" y="776.6833333333334" type="line"/>
      <point x="1323.0666666666666" y="776.6833333333334" type="line"/>
      <point x="1323.0666666666666" y="723.8666666666667" type="line"/>
      <point x="890.9833333333333" y="723.8666666666667" type="line"/>
      <point x="890.9833333333333" y="53.13333333333334" type="line"/>
      <point x="1430.6" y="53.13333333333334" type="line"/>
      <point x="1430.6" y="0.0" type="line"/>
      <point x="834.0" y="0.0" type="line"/>
      <point x="759.0493333333333" y="-18.648333333333333"/>
      <point x="677.0676666666666" y="-33.45"/>
      <point x="569.6666666666666" y="-33.45" type="curve" smooth="yes"/>
      <point x="240.27233333333334" y="-33.45"/>
      <point x="115.0" y="238.05133333333333"/>
      <point x="115.0" y="688.9166666666666" type="curve" smooth="yes"/>
      <point x="115.0" y="767.85" type="line" smooth="yes"/>
      <point x="115.0" y="1223.3383333333334"/>
      <point x="247.15699999999998" y="1489.45"/>
    </contour>
    <contour>
      <point x="155.46666666666667" y="688.9166666666666" type="line" smooth="yes"/>
      <point x="155.46666666666667" y="270.2783333333333"/>
      <point x="270.8006666666666" y="28.400000000000006"/>
      <point x="553.1833333333334" y="28.400000000000006" type="curve" smooth="yes"/>
      <point x="652.0083333333334" y="28.400000000000006"/>
      <point x="713.8780000000002" y="38.984333333333325"/>
      <point x="850.0666666666666" y="60.0" type="curve"/>
      <point x="850.0666666666666" y="1399.9166666666667" type="line"/>
      <point x="737.7523333333334" y="1420.4186666666667"/>
      <point x="659.7506666666667" y="1428.75"/>
      <point x="552.4166666666666" y="1428.75" type="curve" smooth="yes"/>
      <point x="272.6023333333334" y="1428.75"/>
      <point x="155.46666666666667" y="1189.831"/>
      <point x="155.46666666666667" y="767.0833333333334" type="curve" smooth="yes"/>
    </contour>
  </outline>
</glyph>
<glyph name="oe" format="2">
  <advance width="1315"/>
  <unicode hex="0153"/>
  <outline>
    <contour>
      <point x="126.75" y="574.0" type="curve" smooth="yes"/>
      <point x="126.75" y="478.0" type="line" smooth="yes"/>
      <point x="126.75" y="202.96499999999997"/>
      <point x="221.49433333333332" y="22.28333333333333"/>
      <point x="403.53333333333336" y="22.28333333333333" type="curve" smooth="yes"/>
      <point x="585.5723333333333" y="22.28333333333333"/>
      <point x="681.3833333333333" y="204.90799999999996"/>
      <point x="681.3833333333333" y="478.0" type="curve" smooth="yes"/>
      <point x="681.3833333333333" y="574.0" type="line" smooth="yes"/>
      <point x="681.3833333333333" y="854.2386666666666"/>
      <point x="594.1483333333333" y="1029.7166666666667"/>
      <point x="403.53333333333336" y="1029.7166666666667" type="curve" smooth="yes"/>
      <point x="212.91833333333327" y="1029.7166666666667"/>
      <point x="126.75" y="849.0350000000001"/>
    </contour>
    <contour>
      <point x="706.6833333333334" y="828.8666666666667" type="curve"/>
      <point x="830.7003333333333" y="1067.7663333333333"/>
      <point x="910.15" y="1082.0"/>
      <point x="943.65" y="1082.0" type="curve" smooth="yes"/>
      <point x="1173.6833333333334" y="1082.0"/>
      <point x="1257.1" y="932.4306666666668"/>
      <point x="1257.1" y="560.0" type="curve" smooth="yes"/>
      <point x="1257.1" y="533.1666666666666" type="line"/>
      <point x="689.2166666666667" y="533.1666666666666" type="line"/>
      <point x="689.2166666666667" y="582.8333333333334" type="line"/>
      <point x="1214.5833333333335" y="582.8333333333334" type="line"/>
      <point x="1213.1333333333332" y="587.0333333333333" type="line"/>
      <point x="1215.0763333333337" y="885.1163333333334"/>
      <point x="1144.9293333333335" y="1029.7166666666667"/>
      <point x="972.65" y="1029.7166666666667" type="curve" smooth="yes"/>
      <point x="816.0933333333334" y="1029.7166666666667"/>
      <point x="722.45" y="879.386"/>
      <point x="722.45" y="574.0" type="curve" smooth="yes"/>
      <point x="722.45" y="478.0" type="line" smooth="yes"/>
      <point x="722.45" y="185.90233333333327"/>
      <point x="815.205" y="22.28333333333333"/>
      <point x="1015.2" y="22.28333333333333" type="curve" smooth="yes"/>
      <point x="1122.3553333333334" y="22.28333333333333"/>
      <point x="1158.377666666667" y="71.76466666666667"/>
      <point x="1214.2333333333333" y="158.15" type="curve"/>
      <point x="1264.35" y="135.55" type="line"/>
      <point x="1207.6233333333334" y="26.429333333333332"/>
      <point x="1137.9423333333332" y="-30.0"/>
      <point x="980.9166666666666" y="-30.0" type="curve" smooth="yes"/>
      <point x="929.1033333333334" y="-30.0"/>
      <point x="810.27" y="12.378666666666646"/>
      <point x="702.4" y="222.13333333333333" type="curve"/>
      <point x="591.2470000000001" y="10.435666666666663"/>
      <point x="467.62466666666666" y="-30.0"/>
      <point x="447.0333333333333" y="-30.0" type="curve" smooth="yes"/>
      <point x="194.2423333333333" y="-30.0"/>
      <point x="85.0" y="162.49333333333328"/>
      <point x="85.0" y="510.0" type="curve" smooth="yes"/>
      <point x="85.0" y="542.0" type="line" smooth="yes"/>
      <point x="85.0" y="889.5066666666667"/>
      <point x="205.05933333333337" y="1083.45"/>
      <point x="420.93333333333334" y="1083.45" type="curve" smooth="yes"/>
      <point x="459.0116666666667" y="1083.45"/>
      <point x="575.6759999999999" y="1077.4813333333334"/>
    </contour>
  </outline>
</glyph>
<glyph name="ogonek" format="2">
  <advance width="1024"/>
  <unicode hex="02DB"/>
  <outline>
    <contour>
      <point x="505.3333333333333" y="43.16666666666667" type="curve"/>
      <point x="524.0" y="13.833333333333332" type="line"/>
      <point x="427.118" y="-43.072"/>
      <point x="325.33333333333337" y="-148.73333333333335"/>
      <point x="325.33333333333337" y="-235.83333333333334" type="curve" smooth="yes"/>
      <point x="325.33333333333337" y="-317.12666666666667"/>
      <point x="392.19333333333327" y="-343.4166666666667"/>
      <point x="468.35" y="-343.4166666666667" type="curve" smooth="yes"/>
      <point x="549.6433333333333" y="-343.4166666666667"/>
      <point x="596.6666666666666" y="-327.1366666666667"/>
      <point x="616.7666666666667" y="-316.4166666666667" type="curve"/>
      <point x="628.0" y="-348.5" type="line"/>
      <point x="594.5" y="-368.6"/>
      <point x="546.06" y="-392.5"/>
      <point x="467.0" y="-392.5" type="curve" smooth="yes"/>
      <point x="358.46" y="-392.5"/>
      <point x="275.0" y="-341.6686666666667"/>
      <point x="275.0" y="-243.0" type="curve" smooth="yes"/>
      <point x="275.0" y="-135.8"/>
      <point x="336.06899999999996" y="-50.521666666666675"/>
    </contour>
  </outline>
</glyph>
<glyph name="tilde" format="2">
  <advance width="1024"/>
  <unicode hex="02DC"/>
  <outline>
    <contour>
      <point x="197.5" y="1244.8166666666666" type="line"/>
      <point x="241.72" y="1329.2366666666667"/>
      <point x="304.22" y="1358.7833333333333"/>
      <point x="394.0" y="1358.7833333333333" type="curve" smooth="yes"/>
      <point x="448.94" y="1358.7833333333333"/>
      <point x="497.42" y="1328.1100000000001"/>
      <point x="547.0" y="1295.95" type="curve" smooth="yes"/>
      <point x="592.56" y="1266.47"/>
      <point x="646.08" y="1246.55"/>
      <point x="697.0" y="1246.55" type="curve" smooth="yes"/>
      <point x="750.6" y="1246.55"/>
      <point x="801.9466666666666" y="1290.0766666666666"/>
      <point x="832.7666666666667" y="1338.3166666666666" type="curve"/>
      <point x="869.5" y="1305.3333333333333" type="line"/>
      <point x="838.9703333333334" y="1230.5836666666667"/>
      <point x="785.2483333333333" y="1190.0"/>
      <point x="699.6" y="1190.0" type="curve" smooth="yes"/>
      <point x="611.696" y="1190.0"/>
      <point x="550.54" y="1227.22"/>
      <point x="509.0" y="1250.0" type="curve" smooth="yes"/>
      <point x="463.44" y="1275.46"/>
      <point x="416.86" y="1303.0"/>
      <point x="378.0" y="1303.0" type="curve" smooth="yes"/>
      <point x="315.02" y="1303.0"/>
      <point x="256.12" y="1245.7410000000002"/>
      <point x="232.0" y="1204.0" type="curve"/>
    </contour>
  </outline>
</glyph>
<glyph name="breveinvertedcomb" format="2">
  <advance width="1024"/>
  <unicode hex="030F"/>
  <outline>
    <contour>
      <point x="249.86666666666667" y="1213.2166666666667" type="curve"/>
      <point x="211.58333333333334" y="1232.6333333333334" type="line"/>
      <point x="256.62966666666665" y="1394.952"/>
      <point x="365.9336666666667" y="1509.7"/>
      <point x="514.3833333333333" y="1509.7" type="curve" smooth="yes"/>
      <point x="665.8033333333333" y="1509.7"/>
      <point x="772.966" y="1387.6303333333335"/>
      <point x="814.4166666666666" y="1233.0166666666667" type="curve"/>
      <point x="779.5833333333334" y="1213.2166666666667" type="line"/>
      <point x="723.415" y="1373.0116666666668"/>
      <point x="628.5116666666667" y="1454.9833333333333"/>
      <point x="513.3833333333333" y="1454.9833333333333" type="curve" smooth="yes"/>
      <point x="400.8233333333333" y="1454.9833333333333"/>
      <point x="305.5213333333333" y="1370.957"/>
    </contour>
  </outline>
</glyph>
<glyph name="dotbelowcomb" format="2">
  <advance width="1024"/>
  <unicode hex="0323"/>
  <outline>
    <contour>
      <point x="449.3333333333333" y="-226.43333333333334" type="curve" smooth="yes"/>
      <point x="449.3333333333333" y="-195.36766666666665"/>
      <point x="471.35333333333335" y="-164.0"/>
      <point x="512.0" y="-164.0" type="curve" smooth="yes"/>
      <point x="556.555" y="-164.0"/>
      <point x="576.05" y="-193.313"/>
      <point x="576.05" y="-226.43333333333334" type="curve" smooth="yes"/>
      <point x="576.05" y="-256.98533333333336"/>
      <point x="554.5003333333334" y="-287.1"/>
      <point x="512.0" y="-287.1" type="curve" smooth="yes"/>
      <point x="469.29866666666663" y="-287.1"/>
      <point x="449.3333333333333" y="-259.03999999999996"/>
    </contour>
  </outline>
</glyph>
<glyph name="brevebelowcomb" format="2">
  <advance width="1024"/>
  <unicode hex="032E"/>
  <outline>
    <contour>
      <point x="705.0833333333334" y="-189.71666666666667" type="curve"/>
      <point x="746.2666666666667" y="-185.93333333333334" type="line"/>
      <point x="708.9923333333334" y="-348.252"/>
      <point x="625.6016666666667" y="-463.0"/>
      <point x="515.8333333333334" y="-463.0" type="curve" smooth="yes"/>
      <point x="389.851" y="-463.0"/>
      <point x="310.97599999999994" y="-340.93033333333335"/>
      <point x="281.18333333333334" y="-186.31666666666666" type="curve"/>
      <point x="321.81666666666666" y="-189.71666666666667" type="line"/>
      <point x="362.441" y="-337.85366666666664"/>
      <point x="431.47633333333334" y="-415.5333333333333"/>
      <point x="515.5166666666667" y="-415.5333333333333" type="curve" smooth="yes"/>
      <point x="593.1026666666667" y="-415.5333333333333"/>
      <point x="663.0296666666667" y="-333.856"/>
    </contour>
  </outline>
</glyph>
<glyph name="Delta" format="2">
  <advance width="1155"/>
  <unicode hex="0394"/>
  <outline>
    <contour>
      <point x="34.61666666666667" y="0.0" type="line"/>
      <point x="34.61666666666667" y="30.91666666666667" type="line"/>
      <point x="509.75" y="1466.0" type="line"/>
      <point x="636.05" y="1466.0" type="line"/>
      <point x="1119.1" y="30.91666666666667" type="line"/>
      <point x="1119.1" y="0.0" type="line"/>
    </contour>
    <contour>
      <point x="80.85000000000002" y="49.983333333333334" type="line"/>
      <point x="1057.6333333333334" y="49.983333333333334" type="line"/>
      <point x="638.6333333333333" y="1280.0666666666666" type="line" smooth="yes"/>
      <point x="614.8036666666667" y="1349.8136666666664"/>
      <point x="593.5893333333333" y="1407.1633333333334"/>
      <point x="574.5166666666667" y="1464.7833333333333" type="curve"/>
      <point x="565.2666666666667" y="1464.7833333333333" type="line"/>
      <point x="548.0476666666666" y="1407.1633333333334"/>
      <point x="523.3600000000001" y="1347.96"/>
      <point x="499.01666666666665" y="1280.0666666666666" type="curve" smooth="yes"/>
    </contour>
  </outline>
</glyph>
<glyph name="Lambda" format="2">
  <advance width="1023"/>
  <unicode hex="039B"/>
  <outline>
    <contour>
      <point x="0.0" y="0.0" type="line"/>
      <point x="447.85" y="1466.0" type="line"/>
      <point x="574.15" y="1466.0" type="line"/>
      <point x="1023.0666666666666" y="0.0" type="line"/>
      <point x="965.5833333333334" y="0.0" type="line"/>
      <point x="567" y="1280" type="line" smooth="yes"/>
      <point x="545" y="1350"/>
      <point x="531.6893333333334" y="1407.1633333333334"/>
      <point x="512.6166666666667" y="1464.7833333333333" type="curve"/>
      <point x="503.3666666666667" y="1464.7833333333333" type="line"/>
      <point x="483" y="1407"/>
      <point x="465" y="1348"/>
      <point x="444" y="1280" type="curve" smooth="yes"/>
      <point x="50.54999999999998" y="0.0" type="line"/>
    </contour>
  </outline>
</glyph>
<glyph name="Sigma" format="2">
  <advance width="907"/>
  <unicode hex="03A3"/>
  <outline>
    <contour>
      <point x="-40" y="0" type="line"/>
      <point x="-40" y="36" type="line"/>
      <point x="352" y="761" type="line"/>
      <point x="352" y="699" type="line"/>
      <point x="-24" y="1417" type="line"/>
      <point x="-24" y="1456" type="line"/>
      <point x="912" y="1456" type="line"/>
      <point x="912" y="1399" type="line"/>
      <point x="26" y="1399" type="line"/>
      <point x="43" y="1419" type="line"/>
      <point x="392" y="753" type="line"/>
      <point x="392" y="736" type="line"/>
      <point x="12" y="37" type="line"/>
      <point x="12" y="56" type="line"/>
      <point x="950" y="56" type="line"/>
      <point x="950" y="0" type="line"/>
    </contour>
  </outline>
</glyph>
<glyph name="beta" format="2">
  <advance width="1001"/>
  <unicode hex="03B2"/>
  <outline>
    <contour>
      <point x="148.0" y="-416.0" type="line"/>
      <point x="148.0" y="1058.0" type="line" smooth="yes"/>
      <point x="148.0" y="1397.02"/>
      <point x="293.42966666666666" y="1556.0"/>
      <point x="507.45" y="1556.0" type="curve" smooth="yes"/>
      <point x="717.4503333333333" y="1556.0"/>
      <point x="844.0333333333333" y="1408.047619047619"/>
      <point x="844.0333333333333" y="1191.095238095238" type="curve"/>
      <point x="844.0333333333333" y="986.7867142857142"/>
      <point x="722.1159047619047" y="865.7389523809525"/>
      <point x="598.0" y="837.9690476190476" type="curve"/>
      <point x="598.0" y="836.302380952381" type="line"/>
      <point x="796.648619047619" y="818.084761904762"/>
      <point x="914.3333333333334" y="667.7700000000001"/>
      <point x="914.3333333333334" y="439.6190476190476" type="curve"/>
      <point x="914.3333333333334" y="163.33019047619047"/>
      <point x="784.682" y="-18.55"/>
      <point x="556.0333333333333" y="-18.55" type="curve" smooth="yes"/>
      <point x="398.628" y="-18.55"/>
      <point x="294.433" y="18.59466666666667"/>
      <point x="199.58333333333334" y="121.28333333333333" type="curve"/>
      <point x="199.58333333333334" y="-416.0" type="line"/>
    </contour>
    <contour>
      <point x="535.2833333333333" y="37.81666666666666" type="curve" smooth="yes"/>
      <point x="728.0646666666667" y="37.81666666666666"/>
      <point x="860.0666666666666" y="151.88523809523804"/>
      <point x="860.0666666666666" y="438.1666666666667" type="curve"/>
      <point x="860.0666666666666" y="700.0250000000001"/>
      <point x="740.8879999999999" y="803.460380952381"/>
      <point x="514.3833333333333" y="806.3190476190476" type="curve"/>
      <point x="385.81666666666666" y="806.3190476190476" type="line"/>
      <point x="385.81666666666666" y="863.0690476190476" type="line"/>
      <point x="515.3833333333333" y="863.0690476190476" type="line"/>
      <point x="683.2821428571428" y="863.0690476190476"/>
      <point x="796.0833333333334" y="954.8582380952381"/>
      <point x="796.0833333333334" y="1190.095238095238" type="curve"/>
      <point x="796.0833333333334" y="1395.8713809523808"/>
      <point x="705.0936666666666" y="1498.1833333333334"/>
      <point x="504.25" y="1498.1833333333334" type="curve" smooth="yes"/>
      <point x="309.481" y="1498.1833333333334"/>
      <point x="199.58333333333334" y="1372.9060000000002"/>
      <point x="199.58333333333334" y="1097.0" type="curve" smooth="yes"/>
      <point x="199.58333333333334" y="205.88333333333333" type="line"/>
      <point x="226.40566666666666" y="149.82666666666668"/>
      <point x="345.9413333333333" y="37.81666666666666"/>
    </contour>
  </outline>
</glyph>
<glyph name="zeta" format="2">
  <advance width="706"/>
  <unicode hex="03B6"/>
  <outline>
    <contour>
      <point x="552.9166666666666" y="-348.0" type="line"/>
      <point x="580.342" y="-266.6843333333333"/>
      <point x="585.1666666666666" y="-239.50599999999997"/>
      <point x="585.1666666666666" y="-186.93333333333334" type="curve"/>
      <point x="585.1666666666666" y="-124.44466666666668"/>
      <point x="620.192" y="-62.783666666666676"/>
      <point x="400.7" y="6.516666666666666" type="curve" smooth="yes"/>
      <point x="362.7" y="23.6" type="line" smooth="yes"/>
      <point x="155.7593333333333" y="98.037"/>
      <point x="71.33333333333333" y="182.792"/>
      <point x="71.33333333333333" y="327.3333333333333" type="curve" smooth="yes"/>
      <point x="71.33333333333333" y="514.9333333333334"/>
      <point x="173.7793333333333" y="702.5833333333334"/>
      <point x="309.7" y="942.6666666666666" type="curve" smooth="yes"/>
      <point x="687.9833333333333" y="1549.25" type="line"/>
      <point x="691.2166666666667" y="1479.25" type="line"/>
      <point x="69.45" y="1479.25" type="line"/>
      <point x="69.45" y="1536.0" type="line"/>
      <point x="701.5333333333333" y="1536.0" type="line"/>
      <point x="701.5333333333333" y="1486.15" type="line"/>
      <point x="369.68333333333334" y="927.0666666666667" type="line" smooth="yes"/>
      <point x="207.52100000000002" y="652.389"/>
      <point x="124.21666666666667" y="489.8936666666666"/>
      <point x="124.21666666666667" y="338.18333333333334" type="curve" smooth="yes"/>
      <point x="124.21666666666667" y="177.093"/>
      <point x="227.207" y="127.112"/>
      <point x="370.9666666666667" y="84.5" type="curve" smooth="yes"/>
      <point x="419.98333333333335" y="69.3" type="line" smooth="yes"/>
      <point x="630.408" y="2.612666666666655"/>
      <point x="642.6166666666667" y="-96.11000000000001"/>
      <point x="642.6166666666667" y="-171.14999999999998" type="curve"/>
      <point x="644.5596666666665" y="-246.19"/>
      <point x="628.3043333333333" y="-309.81"/>
      <point x="610.6833333333334" y="-348.0" type="curve"/>
    </contour>
  </outline>
</glyph>
<glyph name="kappa" format="2">
  <advance width="757"/>
  <unicode hex="03BA"/>
  <outline>
    <contour>
      <point x="148.0" y="0.0" type="line"/>
      <point x="148.0" y="1076.857142857143" type="line"/>
      <point x="198.2" y="1076.857142857143" type="line"/>
      <point x="198.2" y="0.0" type="line"/>
    </contour>
    <contour>
      <point x="165.3857142857143" y="517.9738095238096" type="line"/>
      <point x="165.3857142857143" y="577.2071428571428" type="line"/>
      <point x="393.0857142857143" y="577.2071428571428" type="line"/>
      <point x="681.9190476190477" y="1076.857142857143" type="line"/>
      <point x="721.2857142857142" y="1076.857142857143" type="line"/>
      <point x="421.60238095238094" y="517.9738095238096" type="line"/>
    </contour>
    <contour>
      <point x="707.5619047619048" y="0.0" type="line"/>
      <point x="395.15238095238095" y="513.3738095238095" type="line"/>
      <point x="443.3857142857143" y="553.6071428571429" type="line"/>
      <point x="757.6785714285714" y="0.0" type="line"/>
    </contour>
  </outline>
</glyph>
<glyph name="mu" format="2">
  <advance width="1022"/>
  <unicode hex="03BC"/>
  <outline>
    <contour>
      <point x="148.0" y="-416.0" type="line"/>
      <point x="148.0" y="1076.857142857143" type="line"/>
      <point x="199.58333333333334" y="1076.857142857143" type="line"/>
      <point x="199.58333333333334" y="171.38333333333333" type="line"/>
      <point x="206.57366666666664" y="106.17"/>
      <point x="265.1946666666667" y="39.94999999999999"/>
      <point x="450.51666666666665" y="39.94999999999999" type="curve" smooth="yes"/>
      <point x="655.9386666666668" y="39.94999999999999"/>
      <point x="774.2166666666667" y="154.921"/>
      <point x="774.2166666666667" y="339.4166666666667" type="curve"/>
      <point x="774.2166666666667" y="1076.4738095238095" type="line"/>
      <point x="827.1833333333334" y="1076.4738095238095" type="line"/>
      <point x="827.1833333333334" y="141.06666666666666" type="line" smooth="yes"/>
      <point x="827.1833333333334" y="43.42533333333333"/>
      <point x="849.2876666666667" y="31.46666666666667"/>
      <point x="903.1333333333333" y="31.46666666666667" type="curve" smooth="yes"/>
      <point x="914.0989999999999" y="31.46666666666667"/>
      <point x="943.7283333333334" y="38.53666666666667"/>
      <point x="960.3666666666667" y="47.91666666666667" type="curve"/>
      <point x="960.3666666666667" y="-5.316666666666666" type="line"/>
      <point x="941.0483333333334" y="-15.523000000000001"/>
      <point x="882.5176666666667" y="-19.333333333333336"/>
      <point x="874.5" y="-19.333333333333336" type="curve"/>
      <point x="814.0213333333334" y="-19.333333333333336"/>
      <point x="778.053" y="11.604666666666645"/>
      <point x="776.3333333333334" y="155.83333333333334" type="curve"/>
      <point x="776.6166666666667" y="155.83333333333334" type="line"/>
      <point x="728.6893333333334" y="82.91499999999999"/>
      <point x="620.4506666666667" y="-21.066666666666666"/>
      <point x="432.7166666666667" y="-21.066666666666666" type="curve" smooth="yes"/>
      <point x="327.214" y="-21.066666666666666"/>
      <point x="237.483" y="31.734666666666655"/>
      <point x="199.58333333333334" y="102.93333333333334" type="curve"/>
      <point x="199.58333333333334" y="-416.0" type="line"/>
    </contour>
  </outline>
</glyph>
<glyph name="xi" format="2">
  <advance width="648"/>
  <unicode hex="03BE"/>
  <outline>
    <contour>
      <point x="537.5833333333334" y="-348.0" type="line"/>
      <point x="560.2963333333332" y="-287.96799999999996"/>
      <point x="569.8333333333334" y="-237.15433333333334"/>
      <point x="569.8333333333334" y="-193.85" type="curve"/>
      <point x="569.8333333333334" y="-113.24899999999998"/>
      <point x="578.1571904761904" y="-67.06514285714286"/>
      <point x="428.8333333333333" y="-7.550000000000001" type="curve" smooth="yes"/>
      <point x="345.31904761904764" y="30.87142857142857" type="line" smooth="yes"/>
      <point x="172.72704761904762" y="114.75861904761905"/>
      <point x="84.91066666666667" y="179.49895238095237"/>
      <point x="85.0" y="386.45238095238096" type="curve"/>
      <point x="85.0" y="592.2125714285714"/>
      <point x="157.58700000000002" y="727.3120952380951"/>
      <point x="354.5" y="777.2047619047619" type="curve"/>
      <point x="356.1642857142857" y="759.2047619047619" type="line"/>
      <point x="215.01442857142857" y="799.5961904761904"/>
      <point x="123.4" y="904.0549047619048"/>
      <point x="123.4" y="1077.4285714285713" type="curve" smooth="yes"/>
      <point x="123.4" y="1275.1902380952383"/>
      <point x="259.3016666666667" y="1459.888857142857"/>
      <point x="437.6333333333333" y="1477.2833333333333" type="curve"/>
      <point x="437.6333333333333" y="1479.25" type="line"/>
      <point x="89.93333333333334" y="1479.25" type="line"/>
      <point x="89.93333333333334" y="1536.0" type="line"/>
      <point x="698.8" y="1536.0" type="line"/>
      <point x="698.8" y="1486.25" type="line"/>
      <point x="224.95047619047625" y="1461.807761904762"/>
      <point x="167.03333333333333" y="1294.9700952380952"/>
      <point x="167.03333333333333" y="1063.9285714285713" type="curve"/>
      <point x="167.03333333333333" y="911.7492380952381"/>
      <point x="267.8816666666666" y="800.1614285714286"/>
      <point x="454.70000000000005" y="797.8642857142858" type="curve"/>
      <point x="652.8" y="797.8642857142858" type="line"/>
      <point x="652.8" y="741.1142857142858" type="line"/>
      <point x="454.70000000000005" y="741.1142857142858" type="line"/>
      <point x="229.714" y="741.1142857142858"/>
      <point x="136.43333333333334" y="625.3115714285715"/>
      <point x="136.43333333333334" y="381.7857142857143" type="curve"/>
      <point x="136.43333333333334" y="182.54685714285714"/>
      <point x="229.8128095238095" y="140.26138095238096"/>
      <point x="378.4666666666667" y="84.53333333333333" type="curve" smooth="yes"/>
      <point x="409.8666666666667" y="67.91666666666667" type="line" smooth="yes"/>
      <point x="593.1116666666667" y="-3.8850000000000193"/>
      <point x="627.2833333333333" y="-91.69333333333333"/>
      <point x="627.2833333333333" y="-165.61666666666667" type="curve" smooth="yes"/>
      <point x="629.2263333333334" y="-240.6566666666667"/>
      <point x="619.5986666666668" y="-296.83433333333335"/>
      <point x="596.4166666666666" y="-348.0" type="curve"/>
    </contour>
  </outline>
</glyph>
<glyph name="finalsigma" format="2">
  <advance width="813"/>
  <unicode hex="03C2"/>
  <outline>
    <contour>
      <point x="687.4" y="-348.0" type="line"/>
      <point x="698.1423333333333" y="-315.88466666666665"/>
      <point x="719.65" y="-262.663"/>
      <point x="719.65" y="-189.7" type="curve"/>
      <point x="719.65" y="-92.10333333333334"/>
      <point x="686.3736666666666" y="-34.46766666666667"/>
      <point x="496.25" y="13.75" type="curve" smooth="yes"/>
      <point x="397.85" y="39.86666666666667" type="line" smooth="yes"/>
      <point x="160.11166666666665" y="106.286"/>
      <point x="85.0" y="215.13052380952382"/>
      <point x="85.0" y="516.5571428571428" type="curve"/>
      <point x="85.0" y="567.8333333333334" type="line"/>
      <point x="85.0" y="919.9789523809523"/>
      <point x="259.3576666666666" y="1106.857142857143"/>
      <point x="494.55" y="1106.857142857143" type="curve" smooth="yes"/>
      <point x="739.0553333333334" y="1106.857142857143"/>
      <point x="859.1" y="888.4684761904763"/>
      <point x="859.1" y="738.7904761904762" type="curve" smooth="yes"/>
      <point x="859.1" y="729.1880952380952" type="line"/>
      <point x="812.1333333333333" y="729.1880952380952" type="line"/>
      <point x="812.1333333333333" y="739.8571428571429" type="line" smooth="yes"/>
      <point x="812.1333333333333" y="913.0744761904762"/>
      <point x="725.733" y="1049.357142857143"/>
      <point x="492.41666666666663" y="1049.357142857143" type="curve" smooth="yes"/>
      <point x="240.452" y="1049.357142857143"/>
      <point x="135.05" y="864.1664761904763"/>
      <point x="135.05" y="571.0" type="curve"/>
      <point x="135.05" y="522.8571428571429" type="line"/>
      <point x="135.05" y="265.36019047619044"/>
      <point x="212.3673333333333" y="158.89366666666666"/>
      <point x="375.26666666666665" y="113.26666666666667" type="curve" smooth="yes"/>
      <point x="475.9" y="86.01666666666667" type="line" smooth="yes"/>
      <point x="699.613" y="24.95733333333333"/>
      <point x="777.1" y="-66.23199999999999"/>
      <point x="777.1" y="-167.0" type="curve" smooth="yes"/>
      <point x="779.0429999999999" y="-243.89366666666666"/>
      <point x="762.7876666666666" y="-311.66366666666664"/>
      <point x="745.1666666666666" y="-348.0" type="curve"/>
    </contour>
  </outline>
</glyph>
<glyph name="tau" format="2">
  <advance width="736"/>
  <unicode hex="03C4"/>
  <outline>
    <contour>
      <point x="32.0" y="1020.1071428571429" type="line"/>
      <point x="32.0" y="1076.857142857143" type="line"/>
      <point x="718.1" y="1076.857142857143" type="line"/>
      <point x="718.1" y="1020.1071428571429" type="line"/>
    </contour>
    <contour>
      <point x="520.65" y="-30.0" type="curve" smooth="yes"/>
      <point x="405.5216666666667" y="-30.0"/>
      <point x="334.48333333333335" y="59.44266666666664"/>
      <point x="334.48333333333335" y="264.15" type="curve" smooth="yes"/>
      <point x="334.48333333333335" y="1049.1738095238095" type="line"/>
      <point x="386.06666666666666" y="1049.1738095238095" type="line"/>
      <point x="386.06666666666666" y="256.68333333333334" type="line" smooth="yes"/>
      <point x="386.06666666666666" y="80.16066666666663"/>
      <point x="429.26233333333334" y="25.066666666666677"/>
      <point x="532.8666666666667" y="25.066666666666677" type="curve" smooth="yes"/>
      <point x="568.801" y="25.066666666666677"/>
      <point x="597.01" y="29.808666666666667"/>
      <point x="627.3833333333333" y="40.349999999999994" type="curve"/>
      <point x="627.3833333333333" y="-9.683333333333334" type="line"/>
      <point x="603.8216666666666" y="-20.202333333333332"/>
      <point x="566.5226666666666" y="-30.0"/>
    </contour>
  </outline>
</glyph>
<glyph name="Dje" format="2">
  <advance width="1485"/>
  <unicode hex="0402"/>
  <guideline x="568.0" y="625.0" angle="90.0" identifier="YDADns81zF"/>
  <outline>
    <contour>
      <point x="465.26666666666665" y="0.0" type="line"/>
      <point x="465.26666666666665" y="1400.1666666666667" type="line"/>
      <point x="24.0" y="1400.1666666666667" type="line"/>
      <point x="24.0" y="1456.0" type="line"/>
      <point x="954.5333333333333" y="1456.0" type="line"/>
      <point x="954.5333333333333" y="1400.1666666666667" type="line"/>
      <point x="514.8666666666667" y="1400.1666666666667" type="line"/>
      <point x="514.8666666666667" y="0.0" type="line"/>
    </contour>
    <contour>
      <point x="965.1333333333333" y="0.0" type="line"/>
      <point x="965.1333333333333" y="46.633333333333326" type="line"/>
      <point x="973.1333333333333" y="46.633333333333326" type="line" smooth="yes"/>
      <point x="1154.3236666666667" y="46.633333333333326"/>
      <point x="1252.6333333333334" y="152.31942765275096"/>
      <point x="1252.6333333333334" y="407.0" type="curve" smooth="yes"/>
      <point x="1252.6333333333334" y="425.76666666666665" type="line" smooth="yes"/>
      <point x="1252.6333333333334" y="695.5310000000001"/>
      <point x="1074.5536666666667" y="794.5293333333333"/>
      <point x="883.9833333333333" y="793.1" type="curve" smooth="yes"/>
      <point x="698.6057106917553" y="791.6706666666666"/>
      <point x="604.2596666666666" y="772.885"/>
      <point x="489.5333333333333" y="741.2833333333333" type="curve"/>
      <point x="489.5333333333333" y="799.5666666666667" type="line"/>
      <point x="645.219" y="828.8903333333334"/>
      <point x="689.8248408861624" y="850.0"/>
      <point x="868.65" y="850.0" type="curve" smooth="yes"/>
      <point x="1117.7783333333332" y="850.0"/>
      <point x="1304.6833333333334" y="745.0556666666666"/>
      <point x="1304.6833333333334" y="422.31666666666666" type="curve" smooth="yes"/>
      <point x="1304.6833333333334" y="407.6166666666667" type="line" smooth="yes"/>
      <point x="1304.6833333333334" y="113.28566666666666"/>
      <point x="1180.0293333333334" y="0.0"/>
      <point x="973.1333333333333" y="0.0" type="curve" smooth="yes"/>
    </contour>
  </outline>
</glyph>
<glyph name="Lje" format="2">
  <advance width="1702"/>
  <unicode hex="0409"/>
  <outline>
    <contour>
      <point x="283.01666666666665" y="1456.0" type="line"/>
      <point x="940.8833333333333" y="1456.0" type="line"/>
      <point x="940.8833333333333" y="866.8666666666667" type="line"/>
      <point x="1239.2166666666667" y="866.8666666666667" type="line" smooth="yes"/>
      <point x="1504.961" y="866.8666666666667"/>
      <point x="1624.6833333333334" y="725.592"/>
      <point x="1624.6833333333334" y="431.2833333333333" type="curve" smooth="yes"/>
      <point x="1624.6833333333334" y="136.97466666666668"/>
      <point x="1504.961" y="0.0"/>
      <point x="1239.2166666666667" y="0.0" type="curve" smooth="yes"/>
      <point x="888.8333333333334" y="0.0" type="line"/>
      <point x="888.8333333333334" y="1399.1" type="line"/>
      <point x="328.9666666666667" y="1399.1" type="line"/>
      <point x="295.06666666666666" y="569.6666666666666" type="line" smooth="yes"/>
      <point x="281.62199999999996" y="210.6583333333333"/>
      <point x="239.51333333333332" y="-11.568333333333337"/>
      <point x="90.55" y="-2.3000000000000007" type="curve" smooth="yes"/>
      <point x="51.556000000000004" y="-0.4463333333333299"/>
      <point x="41.289" y="7.3036666666666665"/>
      <point x="10.0" y="18.85" type="curve"/>
      <point x="10.0" y="91.98333333333333" type="line"/>
      <point x="32.311" y="81.26333333333334"/>
      <point x="46.20233333333333" y="72.06666666666666"/>
      <point x="101.56666666666666" y="72.06666666666666" type="curve" smooth="yes"/>
      <point x="201.553" y="72.06666666666666"/>
      <point x="235.69233333333332" y="269.4576666666667"/>
      <point x="248.4" y="575.0" type="curve" smooth="yes"/>
    </contour>
    <contour>
      <point x="940.8833333333333" y="809.9666666666667" type="line"/>
      <point x="940.8833333333333" y="55.83333333333334" type="line"/>
      <point x="1239.2166666666667" y="55.83333333333334" type="line" smooth="yes"/>
      <point x="1487.5856666666666" y="55.83333333333334"/>
      <point x="1572.6333333333334" y="196.024"/>
      <point x="1572.6333333333334" y="431.2833333333333" type="curve" smooth="yes"/>
      <point x="1572.6333333333334" y="669.8256666666666"/>
      <point x="1487.9483333333333" y="809.9666666666667"/>
      <point x="1238.15" y="809.9666666666667" type="curve" smooth="yes"/>
    </contour>
  </outline>
</glyph>
<glyph name="Tshe" format="2">
  <advance width="1432"/>
  <unicode hex="040B"/>
  <outline>
    <contour>
      <point x="1215.75" y="0.0" type="line"/>
      <point x="1217.8833333333334" y="309.05" type="line" smooth="yes"/>
      <point x="1219.3126666666667" y="707.2756666666667"/>
      <point x="1087.1970000000001" y="793.1"/>
      <point x="862.2333333333333" y="793.1" type="curve" smooth="yes"/>
      <point x="623.2334684684615" y="793.1"/>
      <point x="542.0836666666667" y="763.663"/>
      <point x="489.5333333333333" y="739.8333333333334" type="curve"/>
      <point x="489.5333333333333" y="798.1166666666667" type="line"/>
      <point x="584.986" y="821.6113333333333"/>
      <point x="616.5754102564997" y="850.0"/>
      <point x="820.8" y="850.0" type="curve" smooth="yes"/>
      <point x="1067.9183333333335" y="850.0"/>
      <point x="1267.8" y="768.6690000000001"/>
      <point x="1267.8" y="309.25" type="curve" smooth="yes"/>
      <point x="1267.8" y="0.0" type="line"/>
    </contour>
    <contour>
      <point x="24.0" y="1400.1666666666667" type="line"/>
      <point x="24.0" y="1456.0" type="line"/>
      <point x="954.5333333333333" y="1456.0" type="line"/>
      <point x="954.5333333333333" y="1400.1666666666667" type="line"/>
      <point x="514.8666666666667" y="1400.1666666666667" type="line"/>
      <point x="514.8666666666667" y="0.0" type="line"/>
      <point x="465.26666666666665" y="0.0" type="line"/>
      <point x="465.26666666666665" y="1400.1666666666667" type="line"/>
    </contour>
  </outline>
</glyph>
<glyph name="De" format="2">
  <advance width="1177"/>
  <unicode hex="0414"/>
  <outline>
    <contour>
      <point x="1124.25" y="-290.0" type="line"/>
      <point x="1124.25" y="0.0" type="line"/>
      <point x="52.16666666666666" y="0.0" type="line"/>
      <point x="52.16666666666666" y="-290.0" type="line"/>
      <point x="4.666666666666667" y="-290.0" type="line"/>
      <point x="4.666666666666667" y="56.900000000000006" type="line"/>
      <point x="1171.75" y="56.900000000000006" type="line"/>
      <point x="1171.75" y="-290.0" type="line"/>
    </contour>
    <contour>
      <point x="233.11666666666667" y="1456.0" type="line"/>
      <point x="999.25" y="1456.0" type="line"/>
      <point x="999.25" y="0.0" type="line"/>
      <point x="947.2" y="0.0" type="line"/>
      <point x="947.2" y="1399.1" type="line"/>
      <point x="281.9666666666667" y="1399.1" type="line"/>
      <point x="246.61666666666667" y="400.01666666666665" type="line" smooth="yes"/>
      <point x="245.701" y="231.89133333333334"/>
      <point x="233.78966666666668" y="132.28766666666667"/>
      <point x="147.65" y="-18.21666666666664" type="curve"/>
      <point x="85.15" y="-18.21666666666664" type="line"/>
      <point x="207.06766666666667" y="134.20833333333334"/>
      <point x="194.43033333333332" y="272.81033333333335"/>
      <point x="202.85" y="456.1" type="curve" smooth="yes"/>
    </contour>
  </outline>
</glyph>
<glyph name="Ze" format="2">
  <advance width="961"/>
  <unicode hex="0417"/>
  <outline>
    <contour>
      <point x="411.43333333333334" y="26.30000000000001" type="curve" smooth="yes"/>
      <point x="685.6866666666667" y="26.30000000000001"/>
      <point x="822.4" y="157.74666666666664"/>
      <point x="822.4" y="394.03333333333336" type="curve" smooth="yes"/>
      <point x="822.4" y="587.4623333333334"/>
      <point x="745.4543333333334" y="728.4166666666666"/>
      <point x="368.26666666666665" y="728.4166666666666" type="curve" smooth="yes"/>
      <point x="286.5333333333333" y="728.4166666666666" type="line"/>
      <point x="286.5333333333333" y="785.45" type="line"/>
      <point x="427.73333333333335" y="785.45" type="line" smooth="yes"/>
      <point x="673.1766666666666" y="785.45"/>
      <point x="784.4" y="902.8528803418271"/>
      <point x="784.4" y="1098.75" type="curve" smooth="yes"/>
      <point x="784.4" y="1310.5787420635045"/>
      <point x="678.0281372549441" y="1429.7"/>
      <point x="443.85" y="1429.7" type="curve" smooth="yes"/>
      <point x="163.79000000000002" y="1429.7"/>
      <point x="85.06666666666666" y="1189.2106666666668"/>
      <point x="85.06666666666666" y="1005.05" type="curve" smooth="yes"/>
      <point x="85.06666666666666" y="997.95" type="line"/>
      <point x="33.016666666666666" y="997.95" type="line"/>
      <point x="33.016666666666666" y="1007.95" type="line" smooth="yes"/>
      <point x="33.016666666666666" y="1304.7153333333335"/>
      <point x="208.0066666666667" y="1486.0"/>
      <point x="446.75" y="1486.0" type="curve" smooth="yes"/>
      <point x="720.8023333333333" y="1486.0"/>
      <point x="837.2166666666667" y="1324.956973557722"/>
      <point x="837.2166666666667" y="1108.35" type="curve" smooth="yes"/>
      <point x="837.2166666666667" y="924.1412649006868"/>
      <point x="743.6373507334881" y="805.1226210016013"/>
      <point x="579.1" y="762.7833333333333" type="curve"/>
      <point x="579.1" y="758.7833333333333" type="line"/>
      <point x="776.9063333333334" y="717.757"/>
      <point x="875.2166666666667" y="594.4310616570006"/>
      <point x="875.2166666666667" y="391.5833333333333" type="curve" smooth="yes"/>
      <point x="875.2166666666667" y="111.08842105261652"/>
      <point x="690.5223333333333" y="-30.0"/>
      <point x="413.56666666666666" y="-30.0" type="curve" smooth="yes"/>
      <point x="105.14333333333332" y="-30.0"/>
      <point x="-31.11666666666666" y="223.23133333333334"/>
      <point x="-31.11666666666666" y="419.05" type="curve" smooth="yes"/>
      <point x="-31.11666666666666" y="429.05" type="line"/>
      <point x="20.933333333333337" y="429.05" type="line"/>
      <point x="20.933333333333337" y="419.05" type="line" smooth="yes"/>
      <point x="29.509333333333345" y="321.096"/>
      <point x="138.654" y="26.30000000000001"/>
    </contour>
  </outline>
</glyph>
<glyph name="Soft" format="2">
  <advance width="984"/>
  <unicode hex="042C"/>
  <outline>
    <contour>
      <point x="170.0" y="1456.0" type="line"/>
      <point x="170.0" y="0.0" type="line"/>
      <point x="520.3833333333333" y="0.0" type="line" smooth="yes"/>
      <point x="786.1276666666668" y="0.0"/>
      <point x="905.85" y="135.76130468177843"/>
      <point x="905.85" y="431.2833333333333" type="curve" smooth="yes"/>
      <point x="905.85" y="725.7966905974884"/>
      <point x="786.1352377211488" y="866.8666666666667"/>
      <point x="520.3833333333333" y="866.8666666666667" type="curve" smooth="yes"/>
      <point x="222.05" y="866.8666666666667" type="line"/>
      <point x="222.05" y="1456.0" type="line"/>
    </contour>
    <contour>
      <point x="222.05" y="809.9666666666667" type="line"/>
      <point x="519.3166666666666" y="809.9666666666667" type="line" smooth="yes"/>
      <point x="769.115" y="809.9666666666667"/>
      <point x="853.8" y="669.5517080488866"/>
      <point x="853.8" y="431.2833333333333" type="curve" smooth="yes"/>
      <point x="853.8" y="195.3398541293072"/>
      <point x="768.7523333333334" y="55.83333333333334"/>
      <point x="520.3833333333333" y="55.83333333333334" type="curve" smooth="yes"/>
      <point x="222.05" y="55.83333333333334" type="line"/>
    </contour>
  </outline>
</glyph>
<glyph name="ze" format="2">
  <advance width="724"/>
  <unicode hex="0437"/>
  <outline>
    <contour>
      <point x="312.9166666666667" y="-30.0" type="curve" smooth="yes"/>
      <point x="163.24564269659214" y="-30.0"/>
      <point x="-22.549999999999997" y="44.23933333333332"/>
      <point x="-22.549999999999997" y="303.2166666666667" type="curve" smooth="yes"/>
      <point x="-22.549999999999997" y="308.2166666666667" type="line"/>
      <point x="25.80000000000001" y="308.2166666666667" type="line"/>
      <point x="25.80000000000001" y="303.2166666666667" type="line" smooth="yes"/>
      <point x="25.80000000000001" y="116.35366666666661"/>
      <point x="145.93111654131536" y="27.5"/>
      <point x="312.53333333333336" y="27.5" type="curve" smooth="yes"/>
      <point x="508.24143726234195" y="27.5"/>
      <point x="581.5333333333333" y="146.327"/>
      <point x="581.5333333333333" y="282.7166666666667" type="curve" smooth="yes"/>
      <point x="581.5333333333333" y="439.2733333333333"/>
      <point x="495.259" y="508.01666666666665"/>
      <point x="315.9" y="508.01666666666665" type="curve" smooth="yes"/>
      <point x="179.88333333333333" y="508.01666666666665" type="line"/>
      <point x="179.88333333333333" y="567.3166666666667" type="line"/>
      <point x="314.93333333333334" y="567.3166666666667" type="line" smooth="yes"/>
      <point x="478.76812543078654" y="567.3166666666667"/>
      <point x="541.6166666666667" y="636.0296666666667"/>
      <point x="541.6166666666667" y="787.5166666666667" type="curve" smooth="yes"/>
      <point x="541.6166666666667" y="924.1296666666667"/>
      <point x="484.64666666666665" y="1025.5666666666666"/>
      <point x="305.5333333333333" y="1025.5666666666666" type="curve" smooth="yes"/>
      <point x="125.93547301580242" y="1025.5666666666666"/>
      <point x="49.599999999999994" y="917.0034620261885"/>
      <point x="49.599999999999994" y="748.7833333333333" type="curve" smooth="yes"/>
      <point x="49.599999999999994" y="743.7833333333333" type="line"/>
      <point x="1.25" y="743.7833333333333" type="line"/>
      <point x="1.25" y="748.7833333333333" type="line" smooth="yes"/>
      <point x="1.25" y="964.6796666666667"/>
      <point x="142.45399999999998" y="1082.0"/>
      <point x="323.6666666666667" y="1082.0" type="curve" smooth="yes"/>
      <point x="470.77633333333335" y="1082.0"/>
      <point x="605.1166666666667" y="983.8143333333334"/>
      <point x="605.1166666666667" y="773.2333333333333" type="curve" smooth="yes"/>
      <point x="605.1166666666667" y="636.732"/>
      <point x="525.4196594074015" y="564.9218244297774"/>
      <point x="447.3333333333333" y="546.1333333333333" type="curve"/>
      <point x="447.3333333333333" y="543.1333333333333" type="line"/>
      <point x="557.0471731140535" y="525.8165299090507"/>
      <point x="644.0333333333333" y="457.31733333333335"/>
      <point x="644.0333333333333" y="284.1" type="curve" smooth="yes"/>
      <point x="644.0333333333333" y="115.70666666666665"/>
      <point x="540.5440413894485" y="-30.0"/>
    </contour>
  </outline>
</glyph>
<glyph name="icyr" format="2">
  <advance width="976"/>
  <unicode hex="0438"/>
  <outline>
    <contour>
      <point x="198.2" y="227.5" type="line" smooth="yes"/>
      <point x="198.2" y="187.3"/>
      <point x="197.54" y="132.7"/>
      <point x="196.2" y="92.5" type="curve"/>
      <point x="203.2" y="92.5" type="line"/>
      <point x="220.53066666666666" y="124.57066666666668"/>
      <point x="234.30766666666665" y="168.23800000000003"/>
      <point x="257.33333333333337" y="207.5" type="curve" smooth="yes"/>
      <point x="761.5666666666667" y="1052.0" type="line"/>
      <point x="828.3666666666667" y="1052.0" type="line"/>
      <point x="828.3666666666667" y="0.0" type="line"/>
      <point x="778.1666666666666" y="0.0" type="line"/>
      <point x="778.1666666666666" y="825.95" type="line" smooth="yes"/>
      <point x="778.1666666666666" y="866.1500000000001"/>
      <point x="778.8266666666666" y="920.75"/>
      <point x="780.1666666666666" y="960.95" type="curve"/>
      <point x="773.1666666666666" y="960.95" type="line"/>
      <point x="755.836" y="928.8793333333333"/>
      <point x="743.9126666666667" y="888.9193333333333"/>
      <point x="719.0333333333333" y="845.95" type="curve" smooth="yes"/>
      <point x="214.8" y="0.0" type="line"/>
      <point x="148.0" y="0.0" type="line"/>
      <point x="148.0" y="1052.0" type="line"/>
      <point x="198.2" y="1052.0" type="line"/>
    </contour>
  </outline>
</glyph>
<glyph name="el" format="2">
  <advance width="956"/>
  <unicode hex="043B"/>
  <outline>
    <contour>
      <point x="256.1666666666667" y="992.7666666666667" type="line"/>
      <point x="230.3" y="330.25" type="line" smooth="yes"/>
      <point x="224.67821782171862" y="178.77445011409287"/>
      <point x="210.9314067277931" y="-12.2"/>
      <point x="71.23333333333333" y="-12.2" type="curve" smooth="yes"/>
      <point x="34.361" y="-12.2"/>
      <point x="34.03066666666667" y="-4.8306666666666676"/>
      <point x="10.0" y="5.800000000000001" type="curve"/>
      <point x="10.0" y="67.73333333333333" type="line"/>
      <point x="33.20433333333334" y="60.20700000000001"/>
      <point x="33.855333333333334" y="51.96666666666667"/>
      <point x="70.75" y="51.96666666666667" type="curve" smooth="yes"/>
      <point x="158.721" y="51.96666666666667"/>
      <point x="175.0016637842624" y="248.75465547259512"/>
      <point x="178.75" y="302.35" type="curve" smooth="yes"/>
      <point x="207.16666666666669" y="1052.0" type="line"/>
      <point x="812.3166666666666" y="1052.0" type="line"/>
      <point x="812.3166666666666" y="0.0" type="line"/>
      <point x="762.1166666666667" y="0.0" type="line"/>
      <point x="762.1166666666667" y="992.7666666666667" type="line"/>
    </contour>
  </outline>
</glyph>
<glyph name="ef" format="2">
  <advance width="1085"/>
  <unicode hex="0444"/>
  <outline>
    <contour>
      <point x="136.43333333333334" y="478.0" type="line" smooth="yes"/>
      <point x="136.43333333333334" y="203.41166666666663"/>
      <point x="306.18066666666664" y="41.21666666666666"/>
      <point x="517.7666666666667" y="27.816666666666663" type="curve"/>
      <point x="517.7666666666667" y="1024.1833333333334" type="line"/>
      <point x="294.74600000000004" y="1010.7833333333334"/>
      <point x="136.43333333333334" y="848.5883333333334"/>
      <point x="136.43333333333334" y="574.0" type="curve" smooth="yes"/>
    </contour>
    <contour>
      <point x="949.3" y="574.0" type="line" smooth="yes"/>
      <point x="949.3" y="848.5883333333334"/>
      <point x="779.5526666666667" y="1010.7833333333334"/>
      <point x="567.9666666666667" y="1024.1833333333334" type="curve"/>
      <point x="567.9666666666667" y="27.816666666666663" type="line"/>
      <point x="790.9873333333333" y="41.21666666666666"/>
      <point x="949.3" y="203.41166666666663"/>
      <point x="949.3" y="478.0" type="curve" smooth="yes"/>
    </contour>
    <contour>
      <point x="517.7666666666667" y="-30.0" type="line"/>
      <point x="293.1156666666667" y="-16.6"/>
      <point x="85.0" y="172.20833333333331"/>
      <point x="85.0" y="510.0" type="curve" smooth="yes"/>
      <point x="85.0" y="542.0" type="line" smooth="yes"/>
      <point x="85.0" y="879.7916666666667"/>
      <point x="293.1156666666667" y="1068.6"/>
      <point x="517.7666666666667" y="1082.0" type="curve"/>
      <point x="517.7666666666667" y="1536.0" type="line"/>
      <point x="567.9666666666667" y="1536.0" type="line"/>
      <point x="567.9666666666667" y="1082.0" type="line"/>
      <point x="792.6176666666667" y="1068.6"/>
      <point x="1000.7333333333333" y="879.7916666666667"/>
      <point x="1000.7333333333333" y="542.0" type="curve" smooth="yes"/>
      <point x="1000.7333333333333" y="510.0" type="line" smooth="yes"/>
      <point x="1000.7333333333333" y="172.20833333333331"/>
      <point x="792.6176666666667" y="-16.6"/>
      <point x="567.9666666666667" y="-30.0" type="curve"/>
      <point x="567.9666666666667" y="-416.0" type="line"/>
      <point x="517.7666666666667" y="-416.0" type="line"/>
    </contour>
  </outline>
</glyph>
<glyph name="yu" format="2">
  <advance width="1347"/>
  <unicode hex="044E"/>
  <guideline x="571.4" y="661.9333333333334" angle="90.0" identifier="5WLHpa9SA0"/>
  <outline>
    <contour>
      <point x="148.0" y="1052.0" type="line"/>
      <point x="198.2" y="1052.0" type="line"/>
      <point x="198.2" y="564.35" type="line"/>
      <point x="456.51666666666665" y="564.35" type="line"/>
      <point x="456.51666666666665" y="505.1166666666667" type="line"/>
      <point x="198.2" y="505.1166666666667" type="line"/>
      <point x="198.2" y="0.0" type="line"/>
      <point x="148.0" y="0.0" type="line"/>
    </contour>
    <contour>
      <point x="432.25" y="510.0" type="curve" smooth="yes"/>
      <point x="432.25" y="542.0" type="line" smooth="yes"/>
      <point x="432.25" y="889.5066666666667"/>
      <point x="593.9293333333334" y="1082.0"/>
      <point x="847.1" y="1082.0" type="curve" smooth="yes"/>
      <point x="1100.2706666666666" y="1082.0"/>
      <point x="1263.0166666666667" y="889.5066666666667"/>
      <point x="1263.0166666666667" y="542.0" type="curve" smooth="yes"/>
      <point x="1263.0166666666667" y="510.0" type="line" smooth="yes"/>
      <point x="1263.0166666666667" y="162.49333333333328"/>
      <point x="1100.2706666666666" y="-30.0"/>
      <point x="847.1" y="-30.0" type="curve" smooth="yes"/>
      <point x="593.9293333333334" y="-30.0"/>
      <point x="432.25" y="162.49333333333328"/>
    </contour>
    <contour>
      <point x="483.68333333333334" y="574.0" type="curve" smooth="yes"/>
      <point x="483.68333333333334" y="478.0" type="line" smooth="yes"/>
      <point x="483.68333333333334" y="193.69666666666672"/>
      <point x="608.245" y="27.816666666666663"/>
      <point x="847.1" y="27.816666666666663" type="curve" smooth="yes"/>
      <point x="1085.955" y="27.816666666666663"/>
      <point x="1211.5833333333333" y="193.69666666666672"/>
      <point x="1211.5833333333333" y="478.0" type="curve" smooth="yes"/>
      <point x="1211.5833333333333" y="574.0" type="line" smooth="yes"/>
      <point x="1211.5833333333333" y="865.45"/>
      <point x="1093.1016666666667" y="1024.1833333333334"/>
      <point x="847.1" y="1024.1833333333334" type="curve" smooth="yes"/>
      <point x="601.0983333333334" y="1024.1833333333334"/>
      <point x="483.68333333333334" y="858.3033333333333"/>
    </contour>
  </outline>
</glyph>
<glyph name="ya" format="2">
  <advance width="928"/>
  <unicode hex="044F"/>
  <outline>
    <contour>
      <point x="175.71666666666667" y="0.0" type="line"/>
      <point x="96.21666666666667" y="0.0" type="line"/>
      <point x="365.7166666666667" y="454.0" type="line"/>
      <point x="426.2166666666667" y="437.0" type="line"/>
    </contour>
    <contour>
      <point x="730.15" y="0.0" type="line"/>
      <point x="730.15" y="401.8666666666667" type="line"/>
      <point x="400.4" y="401.8666666666667" type="line"/>
      <point x="409.26666666666665" y="396.4" type="line"/>
      <point x="226.2673333333333" y="430.07866666666666"/>
      <point x="126.41666666666667" y="549.3486666666666"/>
      <point x="126.41666666666667" y="724.9333333333333" type="curve" smooth="yes"/>
      <point x="126.41666666666667" y="922.1143333333334"/>
      <point x="265.93566666666663" y="1052.0"/>
      <point x="516.7166666666667" y="1052.0" type="curve" smooth="yes"/>
      <point x="780.35" y="1052.0" type="line"/>
      <point x="780.35" y="0.0" type="line"/>
    </contour>
    <contour>
      <point x="516.7166666666667" y="461.1" type="curve" smooth="yes"/>
      <point x="730.15" y="461.1" type="line"/>
      <point x="730.15" y="992.7666666666667" type="line"/>
      <point x="516.7166666666667" y="992.7666666666667" type="line" smooth="yes"/>
      <point x="272.68033333333335" y="992.7666666666667"/>
      <point x="182.15" y="881.1044754097637"/>
      <point x="182.15" y="724.9333333333333" type="curve" smooth="yes"/>
      <point x="182.15" y="570.1672011173509"/>
      <point x="274.62333333333333" y="461.1"/>
    </contour>
  </outline>
</glyph>
<glyph name="ieukran" format="2">
  <advance width="837"/>
  <unicode hex="0454"/>
  <guideline x="180.0" y="548.0" angle="90.0" identifier="n4jm0tBg3Y"/>
  <outline>
    <contour>
      <point x="85.0" y="510.0" type="curve" smooth="yes"/>
      <point x="85.0" y="542.0" type="line" smooth="yes"/>
      <point x="85.0" y="889.5066666666667"/>
      <point x="237.3693333333333" y="1082.0"/>
      <point x="486.9666666666667" y="1082.0" type="curve" smooth="yes"/>
      <point x="718.4963333333333" y="1082.0"/>
      <point x="830.1" y="937.3883333333333"/>
      <point x="830.1" y="748.7833333333333" type="curve" smooth="yes"/>
      <point x="830.1" y="743.7833333333333" type="line"/>
      <point x="781.75" y="743.7833333333333" type="line"/>
      <point x="781.75" y="748.7833333333333" type="line" smooth="yes"/>
      <point x="781.75" y="907.8636666666666"/>
      <point x="704.2306666666667" y="1024.5"/>
      <point x="485.9" y="1024.5" type="curve" smooth="yes"/>
      <point x="250.68533333333335" y="1024.5"/>
      <point x="135.05" y="869.1493333333333"/>
      <point x="135.05" y="542.1" type="curve" smooth="yes"/>
      <point x="135.05" y="492.5" type="line" smooth="yes"/>
      <point x="135.05" y="186.91299999999995"/>
      <point x="253.79299999999998" y="26.433333333333337"/>
      <point x="476.3" y="26.433333333333337" type="curve" smooth="yes"/>
      <point x="697.4893333333333" y="26.433333333333337"/>
      <point x="781.75" y="144.1363333333333"/>
      <point x="781.75" y="303.2166666666667" type="curve" smooth="yes"/>
      <point x="781.75" y="308.2166666666667" type="line"/>
      <point x="830.1" y="308.2166666666667" type="line"/>
      <point x="830.1" y="303.2166666666667" type="line" smooth="yes"/>
      <point x="830.1" y="114.61166666666665"/>
      <point x="721.3976666666667" y="-30.0"/>
      <point x="478.43333333333334" y="-30.0" type="curve" smooth="yes"/>
      <point x="240.27066666666664" y="-30.0"/>
      <point x="85.0" y="162.49333333333328"/>
    </contour>
    <contour>
      <point x="114.6" y="564.35" type="line"/>
      <point x="587.7166666666667" y="564.35" type="line"/>
      <point x="587.7166666666667" y="505.1166666666667" type="line"/>
      <point x="114.6" y="505.1166666666667" type="line"/>
    </contour>
  </outline>
</glyph>
<glyph name="yi" format="2">
  <advance width="364"/>
  <unicode hex="0457"/>
  <outline>
    <contour>
      <point x="157.0" y="0.0" type="line"/>
      <point x="157.0" y="1052.0" type="line"/>
      <point x="207.2" y="1052.0" type="line"/>
      <point x="207.2" y="0.0" type="line"/>
    </contour>
    <contour>
      <point x="51.81666666666666" y="1409.4833333333333" type="curve" smooth="yes"/>
      <point x="51.81666666666666" y="1440.3703333333333"/>
      <point x="69.45733333333334" y="1464.6"/>
      <point x="97.01666666666667" y="1464.6" type="curve" smooth="yes"/>
      <point x="122.633" y="1464.6"/>
      <point x="140.76666666666665" y="1440.3703333333333"/>
      <point x="140.76666666666665" y="1409.4833333333333" type="curve" smooth="yes"/>
      <point x="140.76666666666665" y="1376.7426666666665"/>
      <point x="122.16266666666665" y="1352.9833333333333"/>
      <point x="98.4" y="1352.9833333333333" type="curve" smooth="yes"/>
      <point x="68.987" y="1352.9833333333333"/>
      <point x="51.81666666666666" y="1376.7426666666665"/>
    </contour>
    <contour>
      <point x="223.43333333333334" y="1409.4833333333333" type="curve" smooth="yes"/>
      <point x="223.43333333333334" y="1440.3703333333333"/>
      <point x="241.07399999999998" y="1464.6"/>
      <point x="268.6333333333333" y="1464.6" type="curve" smooth="yes"/>
      <point x="294.24966666666666" y="1464.6"/>
      <point x="312.3833333333333" y="1440.3703333333333"/>
      <point x="312.3833333333333" y="1409.4833333333333" type="curve" smooth="yes"/>
      <point x="312.3833333333333" y="1376.7426666666665"/>
      <point x="293.77933333333334" y="1352.9833333333333"/>
      <point x="270.01666666666665" y="1352.9833333333333" type="curve" smooth="yes"/>
      <point x="240.60366666666667" y="1352.9833333333333"/>
      <point x="223.43333333333334" y="1376.7426666666665"/>
    </contour>
  </outline>
</glyph>
<glyph name="lje" format="2">
  <advance width="1479"/>
  <unicode hex="0459"/>
  <outline>
    <contour>
      <point x="777.1833333333334" y="1052.0" type="line"/>
      <point x="777.1833333333334" y="653.6666666666666" type="line"/>
      <point x="1019.6166666666667" y="653.6666666666666" type="line" smooth="yes"/>
      <point x="1260.6826666666666" y="653.6666666666666"/>
      <point x="1395.4166666666667" y="528.4263333333333"/>
      <point x="1395.4166666666667" y="328.8333333333333" type="curve" smooth="yes"/>
      <point x="1395.4166666666667" y="129.24033333333333"/>
      <point x="1260.6826666666666" y="0.0"/>
      <point x="1019.6166666666667" y="0.0" type="curve" smooth="yes"/>
      <point x="726.9833333333333" y="0.0" type="line"/>
      <point x="726.9833333333333" y="992.7666666666667" type="line"/>
      <point x="256.1666666666667" y="992.7666666666667" type="line"/>
      <point x="230.3" y="330.25" type="line" smooth="yes"/>
      <point x="224.2253333333333" y="178.80766666666665"/>
      <point x="210.72733333333332" y="-12.2"/>
      <point x="71.23333333333333" y="-12.2" type="curve" smooth="yes"/>
      <point x="34.361" y="-12.2"/>
      <point x="34.03066666666667" y="-4.8306666666666676"/>
      <point x="10.0" y="5.800000000000001" type="curve"/>
      <point x="10.0" y="67.73333333333333" type="line"/>
      <point x="33.20433333333334" y="60.20700000000001"/>
      <point x="33.855333333333334" y="51.96666666666667"/>
      <point x="70.75" y="51.96666666666667" type="curve" smooth="yes"/>
      <point x="158.721" y="51.96666666666667"/>
      <point x="175.26600000000002" y="249.17433333333335"/>
      <point x="178.75" y="302.35" type="curve" smooth="yes"/>
      <point x="207.16666666666669" y="1052.0" type="line"/>
    </contour>
    <contour>
      <point x="1019.6166666666667" y="594.4333333333334" type="curve" smooth="yes"/>
      <point x="777.1833333333334" y="594.4333333333334" type="line"/>
      <point x="777.1833333333334" y="59.233333333333334" type="line"/>
      <point x="1019.6166666666667" y="59.233333333333334" type="line" smooth="yes"/>
      <point x="1251.995" y="59.233333333333334"/>
      <point x="1339.6833333333334" y="171.13766666666666"/>
      <point x="1339.6833333333334" y="328.8333333333333" type="curve" smooth="yes"/>
      <point x="1339.6833333333334" y="485.18899999999996"/>
      <point x="1251.995" y="594.4333333333334"/>
    </contour>
  </outline>
</glyph>
<glyph name="nje" format="2">
  <advance width="1478"/>
  <unicode hex="045A"/>
  <outline>
    <contour>
      <point x="148.0" y="1052.0" type="line"/>
      <point x="198.2" y="1052.0" type="line"/>
      <point x="198.2" y="599.85" type="line"/>
      <point x="711.45" y="599.85" type="line"/>
      <point x="711.45" y="1052.0" type="line"/>
      <point x="761.65" y="1052.0" type="line"/>
      <point x="761.65" y="599.85" type="line"/>
      <point x="1004.0833333333333" y="599.85" type="line" smooth="yes"/>
      <point x="1245.1493333333333" y="599.85"/>
      <point x="1379.8833333333332" y="482.91499999999996"/>
      <point x="1379.8833333333332" y="301.23333333333335" type="curve" smooth="yes"/>
      <point x="1379.8833333333332" y="119.55166666666665"/>
      <point x="1245.1493333333333" y="0.0"/>
      <point x="1004.0833333333333" y="0.0" type="curve" smooth="yes"/>
      <point x="711.45" y="0.0" type="line"/>
      <point x="711.45" y="540.6166666666667" type="line"/>
      <point x="198.2" y="540.6166666666667" type="line"/>
      <point x="198.2" y="0.0" type="line"/>
      <point x="148.0" y="0.0" type="line"/>
    </contour>
    <contour>
      <point x="1004.0833333333333" y="540.6166666666667" type="curve" smooth="yes"/>
      <point x="761.65" y="540.6166666666667" type="line"/>
      <point x="761.65" y="59.233333333333334" type="line"/>
      <point x="1004.0833333333333" y="59.233333333333334" type="line" smooth="yes"/>
      <point x="1236.4616666666666" y="59.233333333333334"/>
      <point x="1324.15" y="158.4077826087041"/>
      <point x="1324.15" y="301.23333333333335" type="curve" smooth="yes"/>
      <point x="1324.15" y="442.65693333326857"/>
      <point x="1236.4616666666666" y="538.763"/>
    </contour>
  </outline>
</glyph>
<glyph name="Ustraightstroke" format="2">
  <advance width="1017"/>
  <unicode hex="04B0"/>
  <outline>
    <contour>
      <point x="235.83333333333334" y="593.8" type="line"/>
      <point x="778.55" y="593.8" type="line"/>
      <point x="778.55" y="539.85" type="line"/>
      <point x="235.83333333333334" y="539.85" type="line"/>
    </contour>
    <contour>
      <point x="482.55" y="0.0" type="line"/>
      <point x="482.55" y="595.9333333333333" type="line"/>
      <point x="15.0" y="1456.0" type="line"/>
      <point x="76.98333333333335" y="1456.0" type="line"/>
      <point x="433.0" y="783.0333333333333" type="line" smooth="yes"/>
      <point x="453.8593333333333" y="742.8333333333333"/>
      <point x="479.68399999999997" y="671.8696666666667"/>
      <point x="504.1166666666667" y="622.1333333333333" type="curve"/>
      <point x="516.4" y="622.1333333333333" type="line"/>
      <point x="540.8326666666667" y="671.8696666666667"/>
      <point x="560.6536666666666" y="742.8333333333333"/>
      <point x="583.3666666666667" y="783.0333333333333" type="curve" smooth="yes"/>
      <point x="943.7" y="1456.0" type="line"/>
      <point x="1000.7666666666667" y="1456.0" type="line"/>
      <point x="533.2166666666667" y="595.9333333333333" type="line"/>
      <point x="533.2166666666667" y="0.0" type="line"/>
    </contour>
  </outline>
</glyph>
<glyph name="ustraightstroke" format="2">
  <advance width="906"/>
  <unicode hex="04B1"/>
  <outline>
    <contour>
      <point x="170.26666666666668" y="-55.08333333333333" type="line"/>
      <point x="170.26666666666668" y="0.0" type="line"/>
      <point x="426.68333333333334" y="0.0" type="line"/>
      <point x="0.0" y="1052.0" type="line"/>
      <point x="77.63333333333334" y="1052.0" type="line"/>
      <point x="400.75" y="273.55" type="line" smooth="yes"/>
      <point x="422.726" y="219.95000000000002"/>
      <point x="433.4293333333333" y="199.84733333333332"/>
      <point x="447.6333333333333" y="122.21666666666667" type="curve"/>
      <point x="455.01666666666665" y="122.21666666666667" type="line"/>
      <point x="469.645" y="199.84733333333332"/>
      <point x="479.924" y="219.95000000000002"/>
      <point x="501.9" y="273.55" type="curve" smooth="yes"/>
      <point x="831.0" y="1052.0" type="line"/>
      <point x="906.3333333333333" y="1052.0" type="line"/>
      <point x="476.8833333333333" y="0.0" type="line"/>
      <point x="733.3" y="0.0" type="line"/>
      <point x="733.3" y="-55.08333333333333" type="line"/>
      <point x="476.8833333333333" y="-55.08333333333333" type="line"/>
      <point x="476.8833333333333" y="-416.0" type="line"/>
      <point x="426.68333333333334" y="-416.0" type="line"/>
      <point x="426.68333333333334" y="-55.08333333333333" type="line"/>
    </contour>
  </outline>
</glyph>
<glyph name="chedescender-cy" format="2">
  <advance width="905"/>
  <unicode hex="04B7"/>
  <outline>
    <contour>
      <point x="761.1333333333333" y="59.233333333333334" type="line"/>
      <point x="859.0333333333333" y="59.233333333333334" type="line"/>
      <point x="859.0333333333333" y="-270.0" type="line"/>
      <point x="801.7" y="-270.0" type="line"/>
      <point x="801.7" y="0.0" type="line"/>
      <point x="710.9333333333333" y="0.0" type="line"/>
      <point x="710.9333333333333" y="1052.0" type="line"/>
      <point x="761.1333333333333" y="1052.0" type="line"/>
    </contour>
    <contour>
      <point x="180.53333333333333" y="1052.0" type="line"/>
      <point x="180.53333333333333" y="773.0" type="line" smooth="yes"/>
      <point x="180.53333333333333" y="527.8693333333334"/>
      <point x="276.14466666666664" y="454.85"/>
      <point x="462.58333333333337" y="454.85" type="curve" smooth="yes"/>
      <point x="605.74" y="454.85"/>
      <point x="642.8363333333334" y="459.01733333333334"/>
      <point x="736.0333333333333" y="487.9166666666667" type="curve"/>
      <point x="736.0333333333333" y="429.06666666666666" type="line"/>
      <point x="642.5683333333333" y="405.6166666666667"/>
      <point x="580.9336666666668" y="396.0"/>
      <point x="493.76666666666665" y="396.0" type="curve" smooth="yes"/>
      <point x="222.59533333333331" y="396.0"/>
      <point x="130.33333333333334" y="508.39466666666664"/>
      <point x="130.33333333333334" y="773.0" type="curve" smooth="yes"/>
      <point x="130.33333333333334" y="1052.0" type="line"/>
    </contour>
  </outline>
</glyph>
<glyph name="Schwacyr" format="2">
  <advance width="1135"/>
  <unicode hex="04D8"/>
  <guideline x="-1262.6499999999996" y="761.35" angle="90.0" identifier="UtNSclIhRG"/>
  <guideline x="2750.2" y="844.55" angle="90.0" identifier="hwb5F7EShy"/>
  <outline>
    <contour>
      <point x="141.33333333333331" y="697.95" type="line"/>
      <point x="992.3" y="697.95" type="line"/>
      <point x="992.3" y="641.05" type="line"/>
      <point x="141.33333333333331" y="641.05" type="line"/>
    </contour>
    <contour>
      <point x="966.35" y="752.9666666666667" type="line" smooth="yes"/>
      <point x="966.35" y="1217.3213333333333"/>
      <point x="817.1306666666667" y="1429.7"/>
      <point x="528.45" y="1429.7" type="curve" smooth="yes"/>
      <point x="271.10299999999995" y="1429.7"/>
      <point x="163.72066666666666" y="1278.0193333333332"/>
      <point x="206.46666666666667" y="1034.05" type="curve" smooth="yes"/>
      <point x="209.36666666666667" y="1026.95" type="line"/>
      <point x="157.31666666666666" y="1026.95" type="line"/>
      <point x="155.86666666666667" y="1036.95" type="line" smooth="yes"/>
      <point x="117.00666666666667" y="1335.6583333333335"/>
      <point x="289.0143333333333" y="1486.0"/>
      <point x="528.45" y="1486.0" type="curve" smooth="yes"/>
      <point x="819.6096666666667" y="1486.0"/>
      <point x="1019.0166666666667" y="1283.322"/>
      <point x="1019.0166666666667" y="722.8" type="curve" smooth="yes"/>
      <point x="1019.0166666666667" y="666.5" type="line" smooth="yes"/>
      <point x="1019.0166666666667" y="204.73599999999993"/>
      <point x="854.347" y="-30.0"/>
      <point x="566.85" y="-30.0" type="curve" smooth="yes"/>
      <point x="281.20666666666665" y="-30.0"/>
      <point x="115.0" y="223.87599999999992"/>
      <point x="115.0" y="724.5" type="curve" smooth="yes"/>
      <point x="115.0" y="697.95" type="line"/>
      <point x="166.6" y="697.95" type="line"/>
      <point x="166.6" y="740.35" type="line" smooth="yes"/>
      <point x="166.6" y="193.58533333333332"/>
      <point x="368.35133333333334" y="26.30000000000001"/>
      <point x="566.85" y="26.30000000000001" type="curve" smooth="yes"/>
      <point x="767.2023333333334" y="26.30000000000001"/>
      <point x="966.35" y="166.6733333333333"/>
      <point x="966.35" y="682.35" type="curve" smooth="yes"/>
    </contour>
  </outline>
</glyph>
<glyph name="Obarcyr" format="2">
  <advance width="1210"/>
  <unicode hex="04E8"/>
  <guideline x="212.0" y="786.0" angle="90.0" identifier="UtNSclIhRG"/>
  <guideline x="1248.0" y="730.0" angle="90.0" identifier="hwb5F7EShy"/>
  <outline>
    <contour>
      <point x="141.33333333333331" y="779.45" type="line"/>
      <point x="1070.5333333333333" y="779.45" type="line"/>
      <point x="1070.5333333333333" y="722.55" type="line"/>
      <point x="141.33333333333331" y="722.55" type="line"/>
    </contour>
    <contour>
      <point x="115.0" y="702.75" type="curve" smooth="yes"/>
      <point x="115.0" y="753.25" type="line" smooth="yes"/>
      <point x="115.0" y="1263.589"/>
      <point x="308.57766666666663" y="1486.0"/>
      <point x="604.5166666666667" y="1486.0" type="curve" smooth="yes"/>
      <point x="900.4556666666667" y="1486.0"/>
      <point x="1094.35" y="1263.589"/>
      <point x="1094.35" y="753.25" type="curve" smooth="yes"/>
      <point x="1094.35" y="702.75" type="line" smooth="yes"/>
      <point x="1094.35" y="192.41099999999994"/>
      <point x="900.4556666666667" y="-30.0"/>
      <point x="604.5166666666667" y="-30.0" type="curve" smooth="yes"/>
      <point x="310.4313333333333" y="-30.0"/>
      <point x="115.0" y="192.41099999999994"/>
    </contour>
    <contour>
      <point x="166.6" y="670.75" type="line" smooth="yes"/>
      <point x="166.6" y="219.1923333333333"/>
      <point x="335.91366666666664" y="26.30000000000001"/>
      <point x="604.5166666666667" y="26.30000000000001" type="curve" smooth="yes"/>
      <point x="874.9733333333334" y="26.30000000000001"/>
      <point x="1041.6833333333334" y="219.1923333333333"/>
      <point x="1041.6833333333334" y="670.75" type="curve" smooth="yes"/>
      <point x="1041.6833333333334" y="786.3166666666666" type="line" smooth="yes"/>
      <point x="1041.6833333333334" y="1237.8743333333332"/>
      <point x="874.9733333333334" y="1429.7"/>
      <point x="604.5166666666667" y="1429.7" type="curve" smooth="yes"/>
      <point x="335.91366666666664" y="1429.7"/>
      <point x="166.6" y="1237.8743333333332"/>
      <point x="166.6" y="786.3166666666666" type="curve" smooth="yes"/>
    </contour>
  </outline>
</glyph>
<glyph name="quoteleft" format="2">
  <advance width="410"/>
  <unicode hex="2018"/>
  <outline>
    <contour>
      <point x="147.33333333333331" y="1114.5" type="line"/>
      <point x="147.33333333333331" y="1235.5" type="line" smooth="yes"/>
      <point x="147.33333333333331" y="1356.1"/>
      <point x="183.88533333333334" y="1467.2040000000002"/>
      <point x="283.98333333333335" y="1554.6166666666666" type="curve"/>
      <point x="329.5" y="1524.5" type="line"/>
      <point x="253.03066666666666" y="1449.0356666666667"/>
      <point x="219.66666666666669" y="1347.04"/>
      <point x="219.66666666666669" y="1238.5" type="curve" smooth="yes"/>
      <point x="219.66666666666669" y="1114.5" type="line"/>
    </contour>
  </outline>
</glyph>
<glyph name="quoteright" format="2">
  <advance width="410"/>
  <unicode hex="2019"/>
  <outline>
    <contour>
      <point x="259.9" y="1458.0" type="line"/>
      <point x="259.9" y="1339.6833333333334" type="line" smooth="yes"/>
      <point x="259.9" y="1219.0833333333335"/>
      <point x="223.47833333333332" y="1107.9793333333332"/>
      <point x="122.86666666666667" y="1020.5666666666666" type="curve"/>
      <point x="77.73333333333333" y="1050.6833333333334" type="line"/>
      <point x="153.689" y="1126.1476666666667"/>
      <point x="187.95" y="1228.1433333333334"/>
      <point x="187.95" y="1336.6833333333334" type="curve" smooth="yes"/>
      <point x="187.95" y="1458.0" type="line"/>
    </contour>
  </outline>
</glyph>
<glyph name="quotedblright" format="2">
  <advance width="636"/>
  <unicode hex="201D"/>
  <outline>
    <contour>
      <point x="262.6666666666667" y="1458.0" type="line"/>
      <point x="262.6666666666667" y="1339.6833333333334" type="line" smooth="yes"/>
      <point x="262.6666666666667" y="1219.0833333333335"/>
      <point x="226.245" y="1107.9793333333332"/>
      <point x="125.63333333333333" y="1020.5666666666666" type="curve"/>
      <point x="80.5" y="1050.6833333333334" type="line"/>
      <point x="156.45566666666667" y="1126.1476666666667"/>
      <point x="190.71666666666667" y="1228.1433333333334"/>
      <point x="190.71666666666667" y="1336.6833333333334" type="curve" smooth="yes"/>
      <point x="190.71666666666667" y="1458.0" type="line"/>
    </contour>
    <contour>
      <point x="489.0" y="1458.0" type="line"/>
      <point x="489.0" y="1339.6833333333334" type="line" smooth="yes"/>
      <point x="489.0" y="1219.0833333333335"/>
      <point x="452.5783333333334" y="1107.9793333333332"/>
      <point x="351.9666666666667" y="1020.5666666666666" type="curve"/>
      <point x="306.83333333333337" y="1050.6833333333334" type="line"/>
      <point x="382.789" y="1126.1476666666667"/>
      <point x="417.05" y="1228.1433333333334"/>
      <point x="417.05" y="1336.6833333333334" type="curve" smooth="yes"/>
      <point x="417.05" y="1458.0" type="line"/>
    </contour>
  </outline>
</glyph>
<glyph name="peseta" format="2">
  <advance width="1588"/>
  <unicode hex="20A7"/>
  <outline>
    <contour>
      <point x="578.2" y="623.2166666666667" type="curve"/>
      <point x="185.11666666666667" y="623.2166666666667" type="line"/>
      <point x="185.11666666666667" y="674.0" type="line"/>
      <point x="578.2" y="674.0" type="line"/>
      <point x="824.5883333333531" y="674.0"/>
      <point x="922.9833333333333" y="826.1713333332667"/>
      <point x="922.9833333333333" y="1039.4333333333334" type="curve"/>
      <point x="922.9833333333333" y="1250.80033333325"/>
      <point x="824.5883333333531" y="1400.95"/>
      <point x="578.2" y="1400.95" type="curve"/>
      <point x="224.73333333333335" y="1400.95" type="line"/>
      <point x="224.73333333333335" y="0.0" type="line"/>
      <point x="171.15" y="0.0" type="line"/>
      <point x="171.15" y="1456.0" type="line"/>
      <point x="578.2" y="1456.0" type="line"/>
      <point x="840.58600000004" y="1456.0"/>
      <point x="977.5666666666667" y="1287.1050000000066"/>
      <point x="977.5666666666667" y="1038.6666666666667" type="curve"/>
      <point x="977.5666666666667" y="788.3953333332898"/>
      <point x="840.58600000004" y="623.2166666666667"/>
    </contour>
    <contour>
      <point x="814.2833333333333" y="832.4" type="line"/>
      <point x="814.2833333333333" y="1076.2166666666667" type="line"/>
      <point x="1550.9666666666667" y="1076.2166666666667" type="line"/>
      <point x="1550.9666666666667" y="832.4" type="line"/>
    </contour>
    <contour>
      <point x="1156.8" y="1299.35" type="line"/>
      <point x="1200.15" y="1299.35" type="line"/>
      <point x="1200.15" y="240.93333333333334" type="line"/>
      <point x="1200.15" y="89.35066666661675"/>
      <point x="1205.4819999999604" y="7.866666666666674"/>
      <point x="1319.0833333333333" y="7.866666666666674" type="curve" smooth="yes"/>
      <point x="1357.0570000000198" y="7.866666666666674"/>
      <point x="1368.2836666666667" y="33.02466666666666"/>
      <point x="1334.7166666666667" y="20.25" type="curve"/>
      <point x="1334.7166666666667" y="-27.08333333333333" type="line"/>
      <point x="1357.697666666667" y="-25.944333333333336"/>
      <point x="1356.3209999999265" y="-44.5"/>
      <point x="1316.8166666666666" y="-44.5" type="curve" smooth="yes"/>
      <point x="1193.5763333332236" y="-44.5"/>
      <point x="1156.8" y="69.15000000008322"/>
      <point x="1156.8" y="246.95" type="curve"/>
    </contour>
  </outline>
</glyph>
<glyph name="dong" format="2">
  <advance width="1033"/>
  <unicode hex="20AB"/>
  <outline>
    <contour>
      <point x="186.5" y="458.26666666666665" type="curve" smooth="yes"/>
      <point x="186.5" y="515.1166666666667" type="line" smooth="yes"/>
      <point x="186.5" y="809.202"/>
      <point x="305.924" y="993.3833333333333"/>
      <point x="532.25" y="993.3833333333333" type="curve" smooth="yes"/>
      <point x="649.2096666666666" y="993.3833333333333"/>
      <point x="750.6396666666667" y="931.3366666666667"/>
      <point x="806.3166666666666" y="844.6833333333333" type="curve"/>
      <point x="806.3166666666666" y="1456.0" type="line"/>
      <point x="864.1" y="1456.0" type="line"/>
      <point x="864.1" y="0.0" type="line"/>
      <point x="808.6666666666666" y="0.0" type="line"/>
      <point x="810.0333333333333" y="127.91666666666667" type="line"/>
      <point x="810.3166666666666" y="111.31666666666666" type="line"/>
      <point x="761.1610000000001" y="38.778000000000006"/>
      <point x="658.5766666666666" y="-20.0"/>
      <point x="504.7" y="-20.0" type="curve" smooth="yes"/>
      <point x="315.29100000000005" y="-20.0"/>
      <point x="186.5" y="177.78233333333333"/>
    </contour>
    <contour>
      <point x="228.25" y="426.26666666666665" type="line" smooth="yes"/>
      <point x="228.25" y="198.7793333333333"/>
      <point x="324.21000000000004" y="23.983333333333334"/>
      <point x="562.2833333333333" y="23.983333333333334" type="curve" smooth="yes"/>
      <point x="663.9446666666666" y="23.983333333333334"/>
      <point x="767.7916666666666" y="92.87933333333335"/>
      <point x="806.3166666666666" y="172.96666666666667" type="curve"/>
      <point x="806.3166666666666" y="771.4166666666666" type="line"/>
      <point x="767.7916666666666" y="851.5039999999999"/>
      <point x="668.8746666666666" y="949.4"/>
      <point x="547.7833333333333" y="949.4" type="curve" smooth="yes"/>
      <point x="329.14" y="949.4"/>
      <point x="228.25" y="755.174"/>
      <point x="228.25" y="547.1166666666667" type="curve" smooth="yes"/>
    </contour>
    <contour>
      <point x="978.3333333333334" y="1160.2666666666667" type="line"/>
      <point x="347.6666666666667" y="1160.2666666666667" type="line"/>
      <point x="347.6666666666667" y="1206.4333333333334" type="line"/>
      <point x="978.3333333333334" y="1206.4333333333334" type="line"/>
    </contour>
    <contour>
      <point x="911.7333333333333" y="-181.5" type="line"/>
      <point x="158.83333333333334" y="-181.5" type="line"/>
      <point x="158.83333333333334" y="-132.26666666666668" type="line"/>
      <point x="911.7333333333333" y="-132.26666666666668" type="line"/>
    </contour>
  </outline>
</glyph>
<glyph name="Euro" format="2">
  <advance width="978"/>
  <unicode hex="20AC"/>
  <outline>
    <contour>
      <point x="718.6666666666666" y="930.1666666666666" type="line"/>
      <point x="721.6666666666666" y="887.9833333333333" type="line"/>
      <point x="22.0" y="887.9833333333333" type="line"/>
      <point x="22.0" y="930.1666666666666" type="line"/>
    </contour>
    <contour>
      <point x="721.6666666666666" y="604.1666666666666" type="line"/>
      <point x="721.6666666666666" y="562.9833333333333" type="line"/>
      <point x="22.0" y="562.9833333333333" type="line"/>
      <point x="22.0" y="604.1666666666666" type="line"/>
    </contour>
    <contour>
      <point x="106.38333333333334" y="544.0" type="curve" smooth="yes"/>
      <point x="106.38333333333334" y="903.0" type="line" smooth="yes"/>
      <point x="106.38333333333334" y="1163.563"/>
      <point x="202.48433333333332" y="1484.0"/>
      <point x="557.3833333333333" y="1484.0" type="curve" smooth="yes"/>
      <point x="616.187" y="1484.0"/>
      <point x="775.4696666666666" y="1451.57"/>
      <point x="878.7166666666667" y="1337.0" type="curve"/>
      <point x="840.5666666666667" y="1301.45" type="line"/>
      <point x="739.8433333333332" y="1409.4763333333333"/>
      <point x="634.6446666666666" y="1433.2666666666667"/>
      <point x="557.55" y="1433.2666666666667" type="curve" smooth="yes"/>
      <point x="257.4123333333333" y="1433.2666666666667"/>
      <point x="163.65" y="1162.6323333333335"/>
      <point x="163.65" y="906.0" type="curve" smooth="yes"/>
      <point x="163.65" y="541.0" type="line" smooth="yes"/>
      <point x="163.65" y="279.1863333333333"/>
      <point x="256.09099999999995" y="20.5"/>
      <point x="566.1" y="20.5" type="curve" smooth="yes"/>
      <point x="635.713" y="20.5"/>
      <point x="751.7173333333333" y="48.46166666666666"/>
      <point x="850.9666666666667" y="170.06666666666666" type="curve"/>
      <point x="891.7166666666667" y="126.0" type="line"/>
      <point x="788.6036666666666" y="0.24099999999999966"/>
      <point x="632.7930000000001" y="-30.0"/>
      <point x="559.3833333333333" y="-30.0" type="curve" smooth="yes"/>
      <point x="181.77133333333336" y="-30.0"/>
      <point x="106.38333333333334" y="221.39499999999998"/>
    </contour>
  </outline>
</glyph>
<glyph name="uni20B2" format="2">
  <advance width="981"/>
  <unicode hex="20B2"/>
  <outline>
    <contour>
      <point x="499.28333333333336" y="-190.0" type="line"/>
      <point x="499.28333333333336" y="57.0" type="line"/>
      <point x="493.76666666666665" y="71.0" type="line"/>
      <point x="493.76666666666665" y="708.0" type="line"/>
      <point x="546.0666666666666" y="708.0" type="line"/>
      <point x="546.0666666666666" y="70.0" type="line"/>
      <point x="539.0166666666667" y="55.85" type="line"/>
      <point x="539.0166666666667" y="-190.0" type="line"/>
    </contour>
    <contour>
      <point x="493.76666666666665" y="708.0" type="line"/>
      <point x="493.76666666666665" y="1452.6666666666667" type="line"/>
      <point x="498.1333333333333" y="1462.6666666666667" type="line"/>
      <point x="498.1333333333333" y="1582.0" type="line"/>
      <point x="541.7" y="1582.0" type="line"/>
      <point x="541.7" y="1462.6666666666667" type="line"/>
      <point x="546.0666666666666" y="1453.8166666666666" type="line"/>
      <point x="546.0666666666666" y="708.0" type="line"/>
    </contour>
    <contour>
      <point x="927.4333333333334" y="725.0" type="line"/>
      <point x="927.4333333333334" y="452.0" type="line" smooth="yes"/>
      <point x="927.4333333333334" y="193.38"/>
      <point x="794.8866666666667" y="-5.0"/>
      <point x="549.6666666666666" y="-5.0" type="curve" smooth="yes"/>
      <point x="253.5266666666667" y="-5.0"/>
      <point x="118.9" y="201.64"/>
      <point x="118.9" y="542.0" type="curve" smooth="yes"/>
      <point x="118.9" y="897.0" type="line" smooth="yes"/>
      <point x="118.9" y="1297.66"/>
      <point x="261.0066666666667" y="1485.0"/>
      <point x="527.6666666666666" y="1485.0" type="curve" smooth="yes"/>
      <point x="766.1866666666666" y="1485.0"/>
      <point x="887.6573333333333" y="1357.5043333333333"/>
      <point x="929.7333333333333" y="1288.5166666666667" type="curve"/>
      <point x="893.9666666666667" y="1249.9666666666667" type="line"/>
      <point x="807.2909999999999" y="1373.7379999999998"/>
      <point x="685.5456666666666" y="1432.1166666666666"/>
      <point x="535.6666666666666" y="1432.1166666666666" type="curve" smooth="yes"/>
      <point x="286.49366666666674" y="1432.1166666666666"/>
      <point x="170.41666666666669" y="1234.4689999999998"/>
      <point x="170.41666666666669" y="899.0" type="curve" smooth="yes"/>
      <point x="170.41666666666669" y="544.0" type="line" smooth="yes"/>
      <point x="170.41666666666669" y="223.80700000000002"/>
      <point x="303.4046666666666" y="56.233333333333334"/>
      <point x="552.6" y="56.233333333333334" type="curve" smooth="yes"/>
      <point x="769.2779999999999" y="56.233333333333334"/>
      <point x="858.7233333333334" y="223.78133333333332"/>
      <point x="873.0166666666667" y="433.0" type="curve" smooth="yes"/>
      <point x="873.0166666666667" y="672.8666666666667" type="line"/>
      <point x="653.3333333333334" y="672.8666666666667" type="line"/>
      <point x="653.3333333333334" y="725.0" type="line"/>
    </contour>
  </outline>
</glyph>
<glyph name="manat" format="2">
  <advance width="1130"/>
  <unicode hex="20BC"/>
  <outline>
    <contour>
      <point x="991.6666666666666" y="916.0" type="curve" smooth="yes"/>
      <point x="991.6666666666666" y="0.0" type="line"/>
      <point x="941.0833333333334" y="0.0" type="line"/>
      <point x="941.0833333333334" y="916.0" type="line" smooth="yes"/>
      <point x="944.9693333333333" y="1199.41"/>
      <point x="820.7563333333335" y="1366.9333333333334"/>
      <point x="543.6666666666666" y="1366.9333333333334" type="curve" smooth="yes"/>
      <point x="266.577" y="1366.9333333333334"/>
      <point x="146.25" y="1199.41"/>
      <point x="146.25" y="916.0" type="curve" smooth="yes"/>
      <point x="146.25" y="0.0" type="line"/>
      <point x="95.66666666666666" y="0.0" type="line"/>
      <point x="95.66666666666666" y="916.0" type="line" smooth="yes"/>
      <point x="94.12566666666667" y="1251.0"/>
      <point x="263.6066666666667" y="1416.0"/>
      <point x="543.6666666666666" y="1416.0" type="curve" smooth="yes"/>
      <point x="825.0666666666666" y="1416.0"/>
      <point x="992.9396666666667" y="1251.0"/>
    </contour>
    <contour>
      <point x="571.1" y="0.0" type="line"/>
      <point x="516.2333333333333" y="0.0" type="line"/>
      <point x="516.2333333333333" y="1582.0" type="line"/>
      <point x="571.1" y="1582.0" type="line"/>
    </contour>
  </outline>
</glyph>
<glyph name="ruble" format="2">
  <advance width="1024"/>
  <unicode hex="20BD"/>
  <outline>
    <contour>
      <point x="500.15" y="615.2666666666667" type="curve" smooth="yes"/>
      <point x="30.0" y="615.2666666666667" type="line"/>
      <point x="30.0" y="664.1333333333333" type="line"/>
      <point x="500.15" y="664.1333333333333" type="line" smooth="yes"/>
      <point x="751.9359999999999" y="664.1333333333333"/>
      <point x="829.9833333333333" y="821.2379999999999"/>
      <point x="829.9833333333333" y="1030.2333333333333" type="curve" smooth="yes"/>
      <point x="829.9833333333333" y="1245.08"/>
      <point x="748.854" y="1406.1086666666667"/>
      <point x="500.15" y="1403.25" type="curve" smooth="yes"/>
      <point x="214.71666666666667" y="1403.25" type="line"/>
      <point x="214.71666666666667" y="0.0" type="line"/>
      <point x="163.1" y="0.0" type="line"/>
      <point x="163.1" y="1456.0" type="line"/>
      <point x="500.15" y="1456.0" type="line" smooth="yes"/>
      <point x="763.058" y="1456.0"/>
      <point x="882.2666666666667" y="1282.6150000000002"/>
      <point x="882.2666666666667" y="1029.4666666666667" type="curve" smooth="yes"/>
      <point x="882.2666666666667" y="783.7106666666667"/>
      <point x="763.058" y="616.696"/>
    </contour>
    <contour>
      <point x="791.1666666666666" y="372.7" type="line"/>
      <point x="791.1666666666666" y="325.6" type="line"/>
      <point x="30.0" y="325.6" type="line"/>
      <point x="30.0" y="372.7" type="line"/>
    </contour>
  </outline>
</glyph>
<glyph name="numero" format="2">
  <advance width="2160"/>
  <unicode hex="2116"/>
  <outline>
    <contour>
      <point x="225.33333333333331" y="0.0" type="line"/>
      <point x="225.33333333333331" y="1456.0" type="line"/>
      <point x="311.0833333333333" y="1456.0" type="line"/>
      <point x="944.4333333333334" y="220.03333333333333" type="line" smooth="yes"/>
      <point x="959.9773333333333" y="185.12633333333335"/>
      <point x="984.7376666666668" y="119.46800000000002"/>
      <point x="998.3833333333333" y="74.53333333333336" type="curve"/>
      <point x="1003.4833333333333" y="74.53333333333336" type="line"/>
      <point x="1005.1136666666667" y="121.88"/>
      <point x="1006.2166666666667" y="164.40800000000002"/>
      <point x="1006.2166666666667" y="207.46666666666667" type="curve" smooth="yes"/>
      <point x="1006.2166666666667" y="1456.0" type="line"/>
      <point x="1062.2333333333333" y="1456.0" type="line"/>
      <point x="1062.2333333333333" y="0.0" type="line"/>
      <point x="980.7666666666667" y="0.0" type="line"/>
      <point x="349.53333333333336" y="1266.6833333333334" type="line" smooth="yes"/>
      <point x="331.64433333333335" y="1306.7939999999999"/>
      <point x="289.70133333333337" y="1366.1416666666667"/>
      <point x="276.0333333333333" y="1400.2" type="curve"/>
      <point x="270.93333333333334" y="1400.2" type="line"/>
      <point x="273.01033333333334" y="1350.5753333333334"/>
      <point x="276.25" y="1289.7006666666666"/>
      <point x="276.25" y="1243.7833333333333" type="curve" smooth="yes"/>
      <point x="276.25" y="0.0" type="line"/>
    </contour>
    <contour>
      <point x="1285.3333333333333" y="992.0" type="curve" smooth="yes"/>
      <point x="1285.3333333333333" y="1019.0" type="line" smooth="yes"/>
      <point x="1285.3333333333333" y="1287.0"/>
      <point x="1405.8266666666666" y="1473.0"/>
      <point x="1668.4666666666667" y="1473.0" type="curve" smooth="yes"/>
      <point x="1931.1066666666668" y="1473.0"/>
      <point x="2054.7333333333336" y="1287.0"/>
      <point x="2054.7333333333336" y="1019.0" type="curve" smooth="yes"/>
      <point x="2054.7333333333336" y="992.0" type="line" smooth="yes"/>
      <point x="2054.7333333333336" y="724.0"/>
      <point x="1947.1866666666667" y="539.0"/>
      <point x="1668.4666666666667" y="539.0" type="curve" smooth="yes"/>
      <point x="1389.7466666666667" y="539.0"/>
      <point x="1285.3333333333333" y="724.0"/>
    </contour>
    <contour>
      <point x="1316.8666666666668" y="1016.0" type="curve" smooth="yes"/>
      <point x="1316.8666666666668" y="991.0" type="line" smooth="yes"/>
      <point x="1316.8666666666668" y="726.2830000000001"/>
      <point x="1432.1799999999998" y="579.6833333333334"/>
      <point x="1668.4666666666667" y="579.6833333333334" type="curve" smooth="yes"/>
      <point x="1906.607" y="579.6833333333334"/>
      <point x="2024.5833333333333" y="726.2830000000001"/>
      <point x="2024.5833333333333" y="991.0" type="curve" smooth="yes"/>
      <point x="2024.5833333333333" y="1016.0" type="line" smooth="yes"/>
      <point x="2024.5833333333333" y="1284.4243333333334"/>
      <point x="1907.1206666666667" y="1439.5666666666666"/>
      <point x="1668.4666666666667" y="1439.5666666666666" type="curve" smooth="yes"/>
      <point x="1431.6663333333333" y="1439.5666666666666"/>
      <point x="1316.8666666666668" y="1284.4243333333334"/>
    </contour>
    <contour>
      <point x="1293.8" y="301.1666666666667" type="line"/>
      <point x="1293.8" y="344.8333333333333" type="line"/>
      <point x="2044.1333333333332" y="344.8333333333333" type="line"/>
      <point x="2044.1333333333332" y="301.1666666666667" type="line"/>
    </contour>
  </outline>
</glyph>
<glyph name="bulletoperator" format="2">
  <advance width="1024"/>
  <unicode hex="2219"/>
  <outline>
    <contour>
      <point x="434.4" y="674.0" type="curve" smooth="yes"/>
      <point x="434.4" y="716.5003333333334"/>
      <point x="466.507" y="751.6"/>
      <point x="512.0" y="751.6" type="curve" smooth="yes"/>
      <point x="557.493" y="751.6"/>
      <point x="589.6" y="716.5003333333334"/>
      <point x="589.6" y="674.0" type="curve" smooth="yes"/>
      <point x="589.6" y="632.8396666666666"/>
      <point x="557.493" y="597.4"/>
      <point x="512.0" y="597.4" type="curve" smooth="yes"/>
      <point x="466.507" y="597.4"/>
      <point x="434.4" y="632.8396666666666"/>
    </contour>
  </outline>
</glyph>
<glyph name="approxequal" format="2">
  <advance width="1024"/>
  <unicode hex="2248"/>
  <outline>
    <contour>
      <point x="126.0" y="772.1" type="curve"/>
      <point x="126.0" y="827.5666666666666" type="line"/>
      <point x="177.54533333333333" y="894.4773333333334"/>
      <point x="255.59333333333333" y="934.0933333333332"/>
      <point x="328.4" y="935.4333333333333" type="curve" smooth="yes"/>
      <point x="415.67866666666663" y="936.7733333333333"/>
      <point x="451.74" y="904.6773333333333"/>
      <point x="521.8666666666667" y="864.5666666666666" type="curve" smooth="yes"/>
      <point x="588.0626666666667" y="824.3666666666666"/>
      <point x="620.5253333333334" y="795.6333333333333"/>
      <point x="702.5333333333333" y="795.6333333333333" type="curve" smooth="yes"/>
      <point x="775.34" y="795.6333333333333"/>
      <point x="847.4546666666666" y="842.5293333333333"/>
      <point x="899.0" y="921.5" type="curve"/>
      <point x="899.0" y="866.0333333333333" type="line"/>
      <point x="847.4546666666666" y="797.6933333333333"/>
      <point x="776.34" y="758.1"/>
      <point x="703.5333333333333" y="758.1" type="curve" smooth="yes"/>
      <point x="621.5253333333334" y="758.1"/>
      <point x="587.6333333333334" y="787.2626666666667"/>
      <point x="522.8666666666667" y="826.0333333333333" type="curve" smooth="yes"/>
      <point x="452.74" y="867.5733333333333"/>
      <point x="415.67866666666663" y="897.9666666666667"/>
      <point x="328.4" y="897.9666666666667" type="curve" smooth="yes"/>
      <point x="255.59333333333333" y="897.9666666666667"/>
      <point x="177.54533333333333" y="851.0706666666666"/>
    </contour>
    <contour>
      <point x="125.0" y="361.5" type="curve"/>
      <point x="125.0" y="416.9666666666667" type="line"/>
      <point x="176.54533333333333" y="485.30666666666673"/>
      <point x="254.59333333333333" y="523.56"/>
      <point x="327.4" y="524.9" type="curve" smooth="yes"/>
      <point x="414.67866666666663" y="526.24"/>
      <point x="450.74" y="493.0773333333333"/>
      <point x="520.8666666666667" y="452.9666666666667" type="curve" smooth="yes"/>
      <point x="587.0626666666667" y="412.7666666666667"/>
      <point x="619.5253333333334" y="385.0333333333333"/>
      <point x="701.5333333333333" y="385.0333333333333" type="curve" smooth="yes"/>
      <point x="774.34" y="385.0333333333333"/>
      <point x="846.4546666666666" y="431.9293333333334"/>
      <point x="898.0" y="510.9" type="curve"/>
      <point x="898.0" y="454.43333333333334" type="line"/>
      <point x="846.4546666666666" y="387.5226666666667"/>
      <point x="775.34" y="347.56666666666666"/>
      <point x="702.5333333333333" y="347.56666666666666" type="curve" smooth="yes"/>
      <point x="620.5253333333334" y="347.56666666666666"/>
      <point x="588.0626666666667" y="375.3"/>
      <point x="521.8666666666667" y="415.5" type="curve" smooth="yes"/>
      <point x="451.74" y="455.6106666666667"/>
      <point x="414.67866666666663" y="486.3666666666667"/>
      <point x="327.4" y="486.3666666666667" type="curve" smooth="yes"/>
      <point x="254.59333333333333" y="486.3666666666667"/>
      <point x="176.54533333333333" y="440.47066666666666"/>
    </contour>
  </outline>
</glyph>
<glyph name="be.locl" format="2">
  <advance width="995"/>
  <outline>
    <contour>
      <point x="136.43333333333334" y="592.3333333333334" type="curve" smooth="yes"/>
      <point x="136.43333333333334" y="496.3333333333333" type="line" smooth="yes"/>
      <point x="136.43333333333334" y="203.63266666666664"/>
      <point x="259.95099999999996" y="27.816666666666663"/>
      <point x="497.6" y="27.816666666666663" type="curve" smooth="yes"/>
      <point x="735.249" y="27.816666666666663"/>
      <point x="859.8333333333334" y="203.63266666666664"/>
      <point x="859.8333333333334" y="496.3333333333333" type="curve" smooth="yes"/>
      <point x="859.8333333333334" y="592.3333333333334" type="line" smooth="yes"/>
      <point x="859.8333333333334" y="905.7816666666668"/>
      <point x="737.996" y="1060.85"/>
      <point x="497.6" y="1060.85" type="curve" smooth="yes"/>
      <point x="251.375" y="1060.85"/>
      <point x="136.43333333333334" y="885.034"/>
    </contour>
    <contour>
      <point x="85.0" y="560.3333333333334" type="line" smooth="yes"/>
      <point x="85.0" y="801.0643333333334"/>
      <point x="136.9213333333333" y="990.3583333333333"/>
      <point x="388.35" y="1089.1833333333334" type="curve"/>
      <point x="388.35" y="1093.1833333333334" type="line"/>
      <point x="284.81099453083846" y="1108.6578791667046"/>
      <point x="177.33333333333334" y="1170.6366666666665"/>
      <point x="177.33333333333334" y="1280.5166666666667" type="curve" smooth="yes"/>
      <point x="177.33333333333334" y="1411.926"/>
      <point x="282.69629993096845" y="1485.0"/>
      <point x="392.48333333333335" y="1485.0" type="curve" smooth="yes"/>
      <point x="586.9166666666666" y="1485.0" type="line" smooth="yes"/>
      <point x="700.3700000000001" y="1485.0"/>
      <point x="740.1233333333333" y="1496.068"/>
      <point x="752.1833333333333" y="1536.0" type="curve"/>
      <point x="802.0333333333333" y="1536.0" type="line"/>
      <point x="793.3679999999999" y="1464.9576666666667"/>
      <point x="729.5496666666667" y="1439.4666666666667"/>
      <point x="597.85" y="1439.4666666666667" type="curve" smooth="yes"/>
      <point x="392.6666666666667" y="1439.4666666666667" type="line" smooth="yes"/>
      <point x="257.751" y="1439.4666666666667"/>
      <point x="201.66666666666666" y="1388.5966666666668"/>
      <point x="201.66666666666666" y="1286.5333333333333" type="curve" smooth="yes"/>
      <point x="201.66666666666666" y="1148.6026666666667"/>
      <point x="331.4624231246926" y="1125.089819270222"/>
      <point x="562.8" y="1098.15" type="curve" smooth="yes"/>
      <point x="743.2310000000001" y="1080.73"/>
      <point x="911.2666666666667" y="886.6233333333334"/>
      <point x="911.2666666666667" y="560.3333333333334" type="curve" smooth="yes"/>
      <point x="911.2666666666667" y="528.3333333333334" type="line" smooth="yes"/>
      <point x="911.2666666666667" y="170.48633333333333"/>
      <point x="749.5646666666667" y="-30.0"/>
      <point x="497.6" y="-30.0" type="curve" smooth="yes"/>
      <point x="245.6353333333333" y="-30.0"/>
      <point x="85.0" y="170.48633333333333"/>
      <point x="85.0" y="528.3333333333334" type="curve" smooth="yes"/>
    </contour>
  </outline>
</glyph>
<glyph name="breve.cyr.case" format="2">
  <advance width="1027"/>
  <outline>
    <contour>
      <point x="513.3833333333333" y="1689.7833333333333" type="curve" smooth="yes"/>
      <point x="659.984100131699" y="1689.7833333333333"/>
      <point x="760.1299804619899" y="1799.5839472301166"/>
      <point x="813.8166666666667" y="1933.35" type="curve"/>
      <point x="856.3" y="1912.5166666666667" type="line"/>
      <point x="821.0079067486976" y="1783.7279503684438"/>
      <point x="701.4977777777367" y="1640.0"/>
      <point x="513.3833333333333" y="1640.0" type="curve" smooth="yes"/>
      <point x="325.2688888889301" y="1640.0"/>
      <point x="206.28677058311894" y="1783.7065251524673"/>
      <point x="170.46666666666667" y="1912.5166666666667" type="curve"/>
      <point x="212.95" y="1933.35" type="line"/>
      <point x="267.1630479302896" y="1799.0443947771992"/>
      <point x="366.7825665349674" y="1689.7833333333333"/>
    </contour>
  </outline>
</glyph>
<glyph name="brevecomb.case" format="2">
  <advance width="1024"/>
  <outline>
    <contour>
      <point x="832.05" y="1930.35" type="curve"/>
      <point x="864.1833333333333" y="1906.0" type="line"/>
      <point x="815.6306666666667" y="1758.5106666666668"/>
      <point x="686.4233333333333" y="1640.0"/>
      <point x="512.0" y="1640.0" type="curve" smooth="yes"/>
      <point x="325.65066666666667" y="1640.0"/>
      <point x="199.65566666666666" y="1765.8323333333333"/>
      <point x="159.43333333333334" y="1905.6166666666666" type="curve"/>
      <point x="188.88333333333333" y="1930.35" type="line"/>
      <point x="250.21066666666667" y="1773.6370000000002"/>
      <point x="373.10766666666666" y="1692.8"/>
      <point x="513.3833333333333" y="1692.8" type="curve" smooth="yes"/>
      <point x="642.6486666666667" y="1692.8"/>
      <point x="767.0153333333333" y="1776.2053333333333"/>
    </contour>
  </outline>
</glyph>
<glyph name="breveinvertedcomb.case" format="2">
  <advance width="1024"/>
  <outline>
    <contour>
      <point x="191.56666666666666" y="1622.6833333333334" type="curve"/>
      <point x="159.43333333333334" y="1647.0333333333333" type="line"/>
      <point x="204.27866666666668" y="1794.5226666666665"/>
      <point x="333.486" y="1913.0333333333333"/>
      <point x="511.6166666666667" y="1913.0333333333333" type="curve" smooth="yes"/>
      <point x="694.2586666666666" y="1913.0333333333333"/>
      <point x="820.2536666666666" y="1787.201"/>
      <point x="864.1833333333333" y="1647.4166666666667" type="curve"/>
      <point x="834.7333333333333" y="1622.6833333333334" type="line"/>
      <point x="769.6986666666667" y="1779.3963333333336"/>
      <point x="645.861" y="1860.2333333333333"/>
      <point x="513.0" y="1860.2333333333333" type="curve" smooth="yes"/>
      <point x="376.32" y="1860.2333333333333"/>
      <point x="252.894" y="1776.828"/>
    </contour>
  </outline>
</glyph>
<glyph name="cedillacomb.case" format="2">
  <advance width="1024"/>
  <outline>
    <contour>
      <point x="447.98333333333335" y="45.83333333333333" type="line"/>
      <point x="516.4333333333334" y="45.83333333333333" type="line"/>
      <point x="487.05" y="-87.46666666666667" type="line"/>
      <point x="598.471" y="-106.22666666666667"/>
      <point x="654.0833333333334" y="-159.56766666666664"/>
      <point x="654.0833333333334" y="-238.65" type="curve" smooth="yes"/>
      <point x="654.0833333333334" y="-352.57233333333335"/>
      <point x="556.0333333333333" y="-437.2166666666667"/>
      <point x="359.5" y="-437.2166666666667" type="curve"/>
      <point x="358.0333333333333" y="-399.43333333333334" type="line"/>
      <point x="499.046" y="-393.35866666666664"/>
      <point x="608.4" y="-328.35300000000007"/>
      <point x="608.4" y="-240.65" type="curve" smooth="yes"/>
      <point x="608.4" y="-167.57533333333333"/>
      <point x="551.941" y="-147.817"/>
      <point x="415.2833333333333" y="-136.58333333333334" type="curve"/>
    </contour>
  </outline>
</glyph>
<glyph name="commaaccentcomb.case" format="2">
  <advance width="1024"/>
  <outline>
    <contour>
      <point x="402.1666666666667" y="-648.0" type="line"/>
      <point x="441.0266666666667" y="-508.64"/>
      <point x="457.2866666666667" y="-422.26"/>
      <point x="500.1666666666667" y="-236.0" type="curve"/>
      <point x="562.0" y="-234.0" type="line"/>
      <point x="425.0" y="-651.0" type="line"/>
    </contour>
  </outline>
</glyph>
<glyph name="dieresiscombstack.case" format="2">
  <advance width="1024"/>
  <outline>
    <contour>
      <point x="211.65" y="1684.1166666666666" type="curve" smooth="yes"/>
      <point x="211.65" y="1730.0116666666665"/>
      <point x="236.61866666666666" y="1755.2333333333333"/>
      <point x="282.0" y="1755.2333333333333" type="curve" smooth="yes"/>
      <point x="325.21500000000003" y="1755.2333333333333"/>
      <point x="352.35" y="1726.5053333333333"/>
      <point x="352.35" y="1684.1166666666666" type="curve" smooth="yes"/>
      <point x="352.35" y="1639.5616666666665"/>
      <point x="328.72133333333335" y="1614.0"/>
      <point x="282.0" y="1614.0" type="curve" smooth="yes"/>
      <point x="238.785" y="1614.0"/>
      <point x="211.65" y="1641.728"/>
    </contour>
    <contour>
      <point x="671.65" y="1684.1166666666666" type="curve" smooth="yes"/>
      <point x="671.65" y="1730.0116666666665"/>
      <point x="696.6186666666666" y="1755.2333333333333"/>
      <point x="742.0" y="1755.2333333333333" type="curve" smooth="yes"/>
      <point x="785.215" y="1755.2333333333333"/>
      <point x="812.35" y="1726.5053333333333"/>
      <point x="812.35" y="1684.1166666666666" type="curve" smooth="yes"/>
      <point x="812.35" y="1639.5616666666665"/>
      <point x="788.7213333333334" y="1614.0"/>
      <point x="742.0" y="1614.0" type="curve" smooth="yes"/>
      <point x="698.785" y="1614.0"/>
      <point x="671.65" y="1641.728"/>
    </contour>
  </outline>
</glyph>
<glyph name="dollar.rvrn" format="2">
  <advance width="1182"/>
  <outline>
    <contour>
      <point x="182.8651260503876" y="491.30765639585644" type="curve" smooth="yes"/>
      <point x="182.8651260503876" y="505.92128851536546" type="line"/>
      <point x="250.98800186743262" y="505.92128851536546" type="line"/>
      <point x="250.98800186743262" y="491.30765639585644" type="line" smooth="yes"/>
      <point x="250.98800186743262" y="227.93153221285718"/>
      <point x="387.8563053220488" y="94.6852007470007"/>
      <point x="628.8930905695829" y="94.6852007470007" type="curve" smooth="yes"/>
      <point x="867.207836601267" y="94.6852007470007"/>
      <point x="999.5031531279532" y="240.4365004668236"/>
      <point x="997.6494864612865" y="426.6773576096807" type="curve" smooth="yes"/>
      <point x="995.7958197946199" y="619.2341690008674"/>
      <point x="916.9526479924788" y="645.501450980443"/>
      <point x="639.3556956115264" y="705.1407096172019" type="curve" smooth="yes"/>
      <point x="350.8574491129052" y="773.2352931839112"/>
      <point x="203.34281045745666" y="812.1920401494776"/>
      <point x="203.34281045745666" y="1043.787768440707" type="curve" smooth="yes"/>
      <point x="203.34281045745666" y="1280.9431204481837"/>
      <point x="358.65216433240494" y="1450.772735760982"/>
      <point x="619.0104108310262" y="1450.772735760982" type="curve" smooth="yes"/>
      <point x="871.5630634919925" y="1450.772735760982"/>
      <point x="1035.4600373482374" y="1255.3448478057828"/>
      <point x="1035.4600373482374" y="983.760504201689" type="curve" smooth="yes"/>
      <point x="1035.4600373482374" y="969.1468720821798" type="line"/>
      <point x="965.0044817927742" y="969.1468720821798" type="line"/>
      <point x="965.0044817927742" y="983.760504201689" type="line" smooth="yes"/>
      <point x="965.0044817927742" y="1213.7746946778796"/>
      <point x="846.4458048552334" y="1374.3829598505445"/>
      <point x="620.0770774976928" y="1374.3829598505445" type="curve" smooth="yes"/>
      <point x="385.6509589168254" y="1374.3829598505445"/>
      <point x="272.34967320261165" y="1252.201149393088"/>
      <point x="272.34967320261165" y="1058.7211017740403" type="curve" smooth="yes"/>
      <point x="272.34967320261165" y="864.3106237161869"/>
      <point x="350.8909299719491" y="878.5147992531295"/>
      <point x="670.1601307189001" y="790.557749766519" type="curve" smooth="yes"/>
      <point x="934.3185471521908" y="713.743281979426"/>
      <point x="1066.1050420167498" y="662.4227525677621"/>
      <point x="1066.1050420167498" y="454.3440242763474" type="curve" smooth="yes"/>
      <point x="1066.1050420167498" y="196.7841381885862"/>
      <point x="900.0865070028735" y="15.681792717054286"/>
      <point x="628.8930905695829" y="15.681792717054286" type="curve" smooth="yes"/>
      <point x="357.89892250229053" y="15.681792717054286"/>
      <point x="182.8651260503876" y="187.92383660128644"/>
    </contour>
    <contour>
      <point x="600.0123716153562" y="-97.72735760968071" type="line"/>
      <point x="600.0123716153562" y="112.7422969187431" type="line"/>
      <point x="659.4123249299557" y="112.7422969187431" type="line"/>
      <point x="659.4123249299557" y="83.10597572365262" type="line"/>
      <point x="648.8404761904762" y="73.10597572365262" type="line"/>
      <point x="648.8404761904762" y="-97.72735760968071" type="line"/>
    </contour>
    <contour>
      <point x="588.9251633986249" y="1317.1213818860278" type="line"/>
      <point x="588.9251633986249" y="1346.7577030812568" type="line"/>
      <point x="598.1136788049096" y="1356.7577030812568" type="line"/>
      <point x="598.1136788049096" y="1658.2726423903193" type="line"/>
      <point x="646.9417833800295" y="1658.2726423903193" type="line"/>
      <point x="646.9417833800295" y="1317.1213818860278" type="line"/>
    </contour>
  </outline>
</glyph>
<glyph name="dotaccentcombstack.case" format="2">
  <advance width="1024"/>
  <outline>
    <contour>
      <point x="450.48333333333335" y="1733.9" type="curve" smooth="yes"/>
      <point x="450.48333333333335" y="1763.9383333333333"/>
      <point x="471.867" y="1795.1833333333334"/>
      <point x="512.0" y="1795.1833333333334" type="curve" smooth="yes"/>
      <point x="556.0413333333333" y="1795.1833333333334"/>
      <point x="574.9" y="1765.993"/>
      <point x="574.9" y="1733.9" type="curve" smooth="yes"/>
      <point x="574.9" y="1703.8616666666667"/>
      <point x="553.9866666666667" y="1674.0"/>
      <point x="512.0" y="1674.0" type="curve" smooth="yes"/>
      <point x="469.8123333333333" y="1674.0"/>
      <point x="450.48333333333335" y="1701.807"/>
    </contour>
  </outline>
</glyph>
<glyph name="engtail" format="2">
  <advance width="629"/>
  <outline>
    <contour>
      <point x="459.20238095238096" y="79.33333333333334" type="line"/>
      <point x="495.7166666666667" y="79.33333333333334" type="line"/>
      <point x="495.7166666666667" y="-22.083333333333343" type="line" smooth="yes"/>
      <point x="495.7166666666667" y="-304.37666666666667"/>
      <point x="414.3676666666667" y="-405.65"/>
      <point x="269.0" y="-405.65" type="curve" smooth="yes"/>
      <point x="246.66666666666663" y="-405.65"/>
      <point x="205.37666666666667" y="-405.1816666666667"/>
      <point x="188.85" y="-418.9166666666667" type="curve"/>
      <point x="164.7" y="-335.6166666666667" type="line"/>
      <point x="176.49200000000002" y="-325.67833333333334"/>
      <point x="280.05430905698597" y="-334.68333333333334"/>
      <point x="307.18930905698596" y="-334.68333333333334" type="curve" smooth="yes"/>
      <point x="427.32030905698593" y="-334.68333333333334"/>
      <point x="448.4190476190476" y="-256.28266666666667"/>
      <point x="448.4190476190476" y="-88.91666666666667" type="curve" smooth="yes"/>
      <point x="448.4190476190476" y="-57.723380952380964"/>
      <point x="448.4190476190476" y="185.24166666666667"/>
      <point x="448.4190476190476" y="80.83333333333333" type="curve"/>
    </contour>
  </outline>
</glyph>
<glyph name="five.prop" format="2">
  <advance width="1007"/>
  <outline>
    <contour>
      <point x="153.23333333333332" y="360.85" type="curve" smooth="yes"/>
      <point x="153.23333333333332" y="375.0" type="line"/>
      <point x="194.51666666666668" y="375.0" type="line"/>
      <point x="194.51666666666668" y="365.0" type="line" smooth="yes"/>
      <point x="194.51666666666668" y="151.71666666666667"/>
      <point x="325.05233333333337" y="21.683333333333337"/>
      <point x="514.4166666666666" y="21.683333333333337" type="curve" smooth="yes"/>
      <point x="703.3566666666666" y="21.683333333333337"/>
      <point x="813.1333333333333" y="182.86299999999994"/>
      <point x="813.1333333333333" y="465.0" type="curve" smooth="yes"/>
      <point x="813.1333333333333" y="717.9026666666667"/>
      <point x="702.9939999999999" y="852.9166666666666"/>
      <point x="515.4833333333333" y="852.9166666666666" type="curve" smooth="yes"/>
      <point x="426.4403333333333" y="854.7703333333333"/>
      <point x="271.895" y="763.1313333333334"/>
      <point x="230.46666666666667" y="687.6" type="curve"/>
      <point x="195.45" y="706.4833333333333" type="line"/>
      <point x="270.0833333333333" y="1456.0" type="line"/>
      <point x="803.0666666666666" y="1456.0" type="line"/>
      <point x="803.0666666666666" y="1405.8333333333333" type="line"/>
      <point x="307.6333333333333" y="1405.8333333333333" type="line"/>
      <point x="234.26666666666665" y="735.25" type="line"/>
      <point x="274.5783333333334" y="824.494"/>
      <point x="415.152" y="904.2166666666667"/>
      <point x="519.7166666666667" y="904.2166666666667" type="curve" smooth="yes"/>
      <point x="722.3246666666666" y="904.2166666666667"/>
      <point x="856.2666666666667" y="743.9656666666666"/>
      <point x="856.2666666666667" y="465.0" type="curve" smooth="yes"/>
      <point x="856.2666666666667" y="156.79999999999995"/>
      <point x="726.561" y="-30.0"/>
      <point x="514.4166666666666" y="-30.0" type="curve" smooth="yes"/>
      <point x="301.84800000000007" y="-30.0"/>
      <point x="153.23333333333332" y="107.09866666666667"/>
    </contour>
  </outline>
</glyph>
